<?xml version="1.0" encoding="utf-8"?>
<!-- Generator: Adobe Illustrator 17.1.0, SVG Export Plug-In . SVG Version: 6.00 Build 0)  -->
<!DOCTYPE svg PUBLIC "-//W3C//DTD SVG 1.1//EN" "http://www.w3.org/Graphics/SVG/1.1/DTD/svg11.dtd">
<svg version="1.1" id="Layer_1" xmlns="http://www.w3.org/2000/svg" xmlns:xlink="http://www.w3.org/1999/xlink" x="0px" y="0px"
	 viewBox="0 0 28 34" enable-background="new 0 0 28 34" xml:space="preserve">
<g>
	<g>
		<g>
			<g>
				<g>
					<path fill="#FF3C00" d="M12,14v-2.3c0-0.7,0.1-1.3,0.4-1.9c0.2-0.6,0.6-1.1,1-1.5c0.4-0.4,0.9-0.7,1.4-1C15.3,7,15.9,7,16.5,7
						H19v3h-2.5c-0.2,0-0.2,0.4-0.4,0.6C16,10.8,16,11.3,16,11.6V14h3v3h-3v9h-4v-9H9v-3H12z"/>
				</g>
			</g>
		</g>
		<g>
			<g>
				<path fill="#FF3C00" d="M28,34H0V0h28V34z M3,31h22V3H3V31z"/>
			</g>
		</g>
	</g>
</g>
</svg>
