<?xml version="1.0" encoding="utf-8"?>
<!-- Generator: Adobe Illustrator 17.1.0, SVG Export Plug-In . SVG Version: 6.00 Build 0)  -->
<!DOCTYPE svg PUBLIC "-//W3C//DTD SVG 1.1//EN" "http://www.w3.org/Graphics/SVG/1.1/DTD/svg11.dtd">
<svg version="1.1" id="Layer_1" xmlns="http://www.w3.org/2000/svg" xmlns:xlink="http://www.w3.org/1999/xlink" x="0px" y="0px"
	 viewBox="0 0 23 20.1" enable-background="new 0 0 23 20.1" xml:space="preserve">
<path d="M10.1,0C4.5,0,0,4.5,0,10.1s4.5,10.1,10.1,10.1s10.1-4.5,10.1-10.1S15.6,0,10.1,0z M14.6,5c1-0.6,2.3-0.2,2.9,0.8
	c0.6,1,0.2,2.3-0.8,2.9c-1,0.6-2.4,0.2-2.9-0.8C13.2,6.9,13.6,5.6,14.6,5z M5.5,15.2c-1,0.6-2.4,0.2-2.9-0.8c-0.6-1-0.2-2.3,0.8-2.9
	c1-0.6,2.3-0.2,2.9,0.8C6.9,13.2,6.6,14.6,5.5,15.2z M6.3,7.9c-0.6,1-1.9,1.4-2.9,0.8C2.3,8.1,2,6.8,2.6,5.7c0.6-1,1.9-1.4,2.9-0.8
	C6.6,5.6,6.9,6.9,6.3,7.9z M10.1,18.7c-1.2,0-2.2-1-2.2-2.2s1-2.2,2.2-2.2c1.2,0,2.2,1,2.2,2.2S11.3,18.7,10.1,18.7z M10.1,5.7
	c-1.2,0-2.2-1-2.2-2.2s1-2.2,2.2-2.2c1.2,0,2.2,1,2.2,2.2S11.3,5.7,10.1,5.7z M17.5,14.4c-0.6,1-1.9,1.4-2.9,0.8
	c-1-0.6-1.4-1.9-0.8-2.9c0.6-1,1.9-1.4,2.9-0.8C17.8,12,18.1,13.3,17.5,14.4z M23,17.2v2.9h-7.4c1.3-0.7,2.5-1.7,3.4-2.9H23z"/>
</svg>
