<?xml version="1.0" encoding="utf-8"?>
<!-- Generator: Adobe Illustrator 17.1.0, SVG Export Plug-In . SVG Version: 6.00 Build 0)  -->
<!DOCTYPE svg PUBLIC "-//W3C//DTD SVG 1.1//EN" "http://www.w3.org/Graphics/SVG/1.1/DTD/svg11.dtd">
<svg version="1.1" id="Layer_1" xmlns="http://www.w3.org/2000/svg" xmlns:xlink="http://www.w3.org/1999/xlink" x="0px" y="0px"
	 viewBox="0 0 130 129.8" enable-background="new 0 0 130 129.8" xml:space="preserve">
<g id="_x33_56._Play">
	<g>
		<g>
			<path fill="#FF3C00" d="M121.3,32.5C103.3,1.4,63.6-9.2,32.5,8.7C1.4,26.7-9.2,66.4,8.7,97.5c17.9,31.1,57.7,41.7,88.8,23.8
				C128.6,103.3,139.2,63.6,121.3,32.5z M91,110c-24.9,14.4-56.7,5.8-71-19C5.6,66.1,14.1,34.3,39,20c24.9-14.4,56.7-5.8,71,19
				C124.4,63.9,115.9,95.7,91,110z M88.4,62.4l-34-19.8c-3.1-1.8-5.6-0.4-5.6,3.2L49,85.1c0,3.6,2.5,5,5.7,3.2l33.8-19.5
				C91.5,67.1,91.5,64.2,88.4,62.4z"/>
		</g>
	</g>
</g>
</svg>
