<?xml version="1.0" encoding="utf-8"?>
<!-- Generator: Adobe Illustrator 17.1.0, SVG Export Plug-In . SVG Version: 6.00 Build 0)  -->
<!DOCTYPE svg PUBLIC "-//W3C//DTD SVG 1.1//EN" "http://www.w3.org/Graphics/SVG/1.1/DTD/svg11.dtd">
<svg version="1.1" id="Layer_1" xmlns="http://www.w3.org/2000/svg" xmlns:xlink="http://www.w3.org/1999/xlink" x="0px" y="0px"
	 viewBox="0 0 28 34" enable-background="new 0 0 28 34" xml:space="preserve">
<g>
	<g>
		<path fill="#FF3C00" d="M17.8,26c0.9-0.2,1.7-0.5,2.4-1c0.6-0.5,1.1-1,1.5-1.7c0.4-0.7,0.5-1.5,0.5-2.5c0-1.3-0.5-2.3-1.2-3.1
			c-0.7-0.8-1-1.3-3-1.5V16c1-0.3,1.6-0.9,2.1-1.6c0.5-0.7,0.8-1.6,0.8-2.5c0-0.8-0.1-1.5-0.5-2.1c-0.3-0.6-0.8-1.1-1.5-1.5
			c-0.6-0.3-1.3-0.8-2-0.9C16.1,7.3,15,7,13.6,7H7v19h7.5C15.8,26,16.9,26.2,17.8,26z M12,11L12,11c0.8,0,1.5,0,1.9,0
			c0.4,0,0.8,0.1,1.1,0.2c0.3,0.1,0.6,0.4,0.7,0.7c0.2,0.3,0.2,0.6,0.2,1c0,0.4-0.1,0.8-0.2,1.1c-0.1,0.3-0.4,0.6-0.8,0.7
			c-0.4,0.2-0.7,0.2-1,0.3c-0.3,0-0.9,0-1.7,0H12V11z M11.9,23H12v-5h0.5c0.9,0,1.5,0.2,2.1,0.2c0.5,0,0.9,0.2,1.2,0.3
			c0.5,0.2,0.8,0.5,1.1,0.8c0.2,0.3,0.4,0.8,0.4,1.4c0,0.5-0.1,0.9-0.3,1.3c-0.2,0.4-0.5,0.6-1,0.8C15.5,23,15,23,14.5,23
			C14,23.1,13.1,23,11.9,23z"/>
	</g>
</g>
<g>
	<g>
		<path fill="#FF3C00" d="M28,34H0V0h28V34z M3,31h22V3H3V31z"/>
	</g>
</g>
</svg>
