<?xml version="1.0" standalone="no"?>
<!DOCTYPE svg PUBLIC "-//W3C//DTD SVG 1.1//EN" "http://www.w3.org/Graphics/SVG/1.1/DTD/svg11.dtd" >
<svg>
<metadata>
Created by FontForge 20110222 at Thu Aug 21 06:45:01 2014
 By Orthosie Webhosting
Copyright (c) ParaType, Inc., 2004. All rights reserved. Officina Serif is a registered trade mark of International Typeface Corporation.
</metadata>
<defs>
<font id="OfficinaSerifBoldITCRegular" horiz-adv-x="500" >
  <font-face 
    font-family="OfficinaSerifBoldITCRegular"
    font-weight="400"
    font-stretch="normal"
    units-per-em="1000"
    panose-1="2 6 8 6 5 5 5 2 2 4"
    ascent="800"
    descent="-200"
    x-height="494"
    cap-height="685"
    bbox="-427 -263 1137 958"
    underline-thickness="50"
    underline-position="-50"
    unicode-range="U+0020-F8FF"
  />
<missing-glyph horiz-adv-x="233" 
 />
    <glyph glyph-name="fi" unicode="fi" horiz-adv-x="667" 
d="M650 79v-65v-2q0 -4 -0.5 -6t-3.5 -4t-10 -2h-243h-6t-5 3.5t-3 10.5v65q0 14 14 14h52v308h-194v-308h45h4h5t4 -1t4.5 -3.5t2.5 -6.5t1 -10v-51q0 -6 -1 -10t-2.5 -6.5t-4.5 -3.5t-4 -1h-5h-4h-233h-4h-5t-4 1t-4.5 3.5t-2.5 6.5t-1 10v51q0 6 1 10t2.5 6.5t4.5 3.5
t4 1h5h4h61v308h-71h-4h-5t-4 1t-4.5 3.5t-2.5 6.5t-1 10v51q0 6 1 10t2.5 6.5t4.5 3.5t4 1h5h4h71v41q0 91 38 138q42 51 122 51q48 0 97 -17q29 -9 23 -28l-18 -70q-3 -10 -10 -10q-1 0 -12 4q-36 13 -57 13q-27 0 -41 -14q-15 -15 -15 -67v-41h307q10 0 12 -3t2 -9v-2
v-387h64q10 0 12 -3t2 -9v-2zM590 642q0 -35 -24 -59t-58 -24t-58.5 24.5t-24.5 58.5t24 58t59 24q34 0 58 -24t24 -58z" />
    <glyph glyph-name="fl" unicode="fl" horiz-adv-x="667" 
d="M645 101l20 -82q2 -6 2 -8q0 -6 -17 -13q-35 -15 -84 -15q-84 0 -109 65q-14 36 -14 128v418l-16 5q-51 17 -113 17q-35 0 -50 -17q-13 -16 -13 -64v-41h114q17 0 17 -12q0 -2 -2 -8l-14 -59q-4 -14 -19 -14h-96v-308h68h4h5t4 -1t4.5 -3.5t2.5 -6.5t1 -10v-51
q0 -6 -1 -10t-2.5 -6.5t-4.5 -3.5t-4 -1h-5h-4h-256h-4h-5t-4 1t-4.5 3.5t-2.5 6.5t-1 10v51q0 6 1 10t2.5 6.5t4.5 3.5t4 1h5h4h61v308h-71h-4h-5t-4 1t-4.5 3.5t-2.5 6.5t-1 10v51q0 6 1 10t2.5 6.5t4.5 3.5t4 1h5h4h71v41q0 89 35 135q42 54 131 54q79 0 161 -29l99 21
q10 4 14.5 0.5t5 -5.5t0.5 -8v-545q0 -46 12 -55q6 -5 16 -5q15 0 29 6q16 6 18 -3z" />
    <glyph glyph-name="afii10017small.var.accented" unicode="&#xf350;`" horiz-adv-x="534" 
d="M530 76v-58q0 -18 -20 -18h-186q-11 0 -15 3.5t-4 14.5v58q0 10 4 14t15 4h23l-14 47h-142l-13 -47h23q11 0 15 -4t4 -14v-58q0 -11 -4 -14.5t-15 -3.5h-178q-11 0 -15 3.5t-4 14.5v58q0 18 19 18h29l146 431q4 11 8.5 14t16.5 3h88q12 0 16 -3t8 -14l143 -431h32
q20 0 20 -18zM308 227l-33 123q-9 35 -16 78q-10 -55 -17 -79l-35 -122h101zM403 741l31 -60q5 -10 5 -14q0 -9 -15 -14l-177 -70q-11 -4 -14 -4q-5 0 -13 15l-16 31q-5 10 -5 14q0 6 13 14l163 97q10 5 15 5q6 0 13 -14z" />
    <glyph glyph-name="afii10022small.var.accented" unicode="&#xf355;`" horiz-adv-x="477" 
d="M429 146v-125q0 -13 -4 -17t-18 -4h-345q-14 0 -18 4t-4 17v52q0 13 4 17t18 4h40v353h-40q-14 0 -18 4.5t-4 16.5v54q0 12 4 16t18 4h345q11 0 14.5 -4t3.5 -14v-122q0 -10 -3.5 -14t-14.5 -4h-60q-19 0 -19 18v37h-101v-105h141q13 0 18 -4t5 -17v-61q0 -12 -5 -16.5
t-18 -4.5h-141v-128h104v43q0 10 4.5 14t15.5 4h58q20 0 20 -18zM383 741l31 -60q5 -10 5 -14q0 -9 -15 -14l-177 -70q-11 -4 -14 -4q-5 0 -13 15l-16 31q-5 10 -5 14q0 6 13 14l163 97q10 5 15 5q6 0 13 -14z" />
    <glyph glyph-name="afii10026small.var.accented" unicode="&#xf358;`" horiz-adv-x="611" 
d="M548 542q13 0 18 -3.5t5 -16.5v-54q0 -13 -5 -17t-18 -4h-35v-353h35q13 0 18 -4t5 -17v-52q0 -13 -5 -17t-18 -4h-189q-14 0 -18.5 3.5t-4.5 17.5v52q0 14 4.5 17.5t17.5 3.5h36v145q0 12 3 81h-3q-17 -41 -55 -83l-122 -135v-8h36q13 0 17.5 -3.5t4.5 -17.5v-53
q0 -13 -4.5 -16.5t-17.5 -3.5h-190q-13 0 -18 3.5t-5 16.5v53q0 13 5 17t18 4h35v353h-36q-13 0 -17.5 3.5t-4.5 17.5v54q0 13 4.5 16.5t17.5 3.5h190q13 0 18 -3.5t5 -16.5v-54q0 -13 -5 -17t-18 -4h-35v-139q0 -40 -3 -85h3q15 29 60 81l117 135v8h-36q-13 0 -17.5 3.5
t-4.5 17.5v54q0 13 4.5 16.5t17.5 3.5h190zM446 741l31 -60q5 -10 5 -14q0 -9 -15 -14l-177 -70q-11 -4 -14 -4q-5 0 -13 15l-16 31q-5 10 -5 14q0 6 13 14l163 97q10 5 15 5q6 0 13 -14z" />
    <glyph glyph-name="afii10032small.var.accented" unicode="&#xf35e;`" horiz-adv-x="531" 
d="M483 279q0 -292 -221 -292q-215 0 -215 292q0 58 11.5 106t36.5 87t68.5 61t103.5 22q216 0 216 -276zM352 272q0 97 -21.5 139.5t-65.5 42.5q-87 0 -87 -185q0 -96 22 -138.5t65 -42.5t65 43t22 141zM403 741l31 -60q5 -10 5 -14q0 -9 -15 -14l-177 -70q-11 -4 -14 -4
q-5 0 -13 15l-16 31q-5 10 -5 14q0 6 13 14l163 97q10 5 15 5q6 0 13 -14z" />
    <glyph glyph-name="afii10037small.var.accented" unicode="&#xf363;`" horiz-adv-x="505" 
d="M241 162h-49q-12 0 -16 11l-104 274h-39q-13 0 -18 4t-5 17v54q0 13 5 16.5t18 3.5h121q12 0 16 -12l63 -191q19 -60 27 -94h3q7 39 22 96l50 189q3 12 16 12h121q13 0 18 -3.5t5 -16.5v-54q0 -13 -5 -17t-18 -4h-39l-83 -297q-25 -90 -59 -124q-40 -39 -104 -39
q-65 0 -110 30q-16 11 -9 26l26 58q7 15 24 7l4 -2l5 -2.5l5 -2.5t5.5 -3t5.5 -3q16 -8 35 -8q27 0 42 15q13 13 18 42zM397 741l31 -60q5 -10 5 -14q0 -9 -15 -14l-177 -70q-11 -4 -14 -4q-5 0 -13 15l-16 31q-5 10 -5 14q0 6 13 14l163 97q10 5 15 5q6 0 13 -14z" />
    <glyph glyph-name="afii10045small.var.accented" unicode="&#xf36b;`" horiz-adv-x="767" 
d="M62 0q-13 0 -17.5 3.5t-4.5 17.5v52q0 14 4.5 17.5t17.5 3.5h40v353h-40q-13 0 -17.5 3.5t-4.5 17.5v54q0 13 4.5 16.5t17.5 3.5h193q13 0 18 -3.5t5 -16.5v-54q0 -13 -5 -17t-18 -4h-35v-122h40q113 0 166 -47q49 -43 49 -121q0 -70 -42 -110q-51 -47 -173 -47h-198z
M665 94h39q13 0 18 -4t5 -17v-52q0 -13 -5 -17t-18 -4h-199q-14 0 -18.5 3.5t-4.5 17.5v52q0 14 4.5 17.5t17.5 3.5h36v353h-36q-13 0 -17.5 3.5t-4.5 17.5v54q0 13 4.5 16.5t17.5 3.5h200q13 0 18 -3.5t5 -16.5v-54q0 -13 -5 -17t-18 -4h-39v-353zM220 231v-127h33
q69 0 89 20q15 15 15 41q0 27 -15 44q-20 22 -89 22h-33zM526 741l31 -60q5 -10 5 -14q0 -9 -15 -14l-177 -70q-11 -4 -14 -4q-5 0 -13 15l-16 31q-5 10 -5 14q0 6 13 14l163 97q10 5 15 5q6 0 13 -14z" />
    <glyph glyph-name="afii10047small.var.accented" unicode="&#xf36d;`" horiz-adv-x="481" 
d="M347 741l31 -60q5 -10 5 -14q0 -9 -15 -14l-177 -70q-11 -4 -14 -4q-5 0 -13 15l-16 31q-5 10 -5 14q0 6 13 14l163 97q10 5 15 5q6 0 13 -14zM41 392v90q0 17 20 30q62 41 154 41q95 0 150 -53q68 -65 68 -231q0 -161 -67 -227q-58 -57 -177 -57q-84 0 -133 28
q-16 9 -16 28v106q0 18 19 18h63q21 0 21 -18v-50q27 -8 51 -8q53 0 78 25q29 29 29 109v6h-133q-9 0 -12 3.5t-3 13.5v65q0 17 16 17h132v2q0 63 -30 94q-24 25 -70 25q-29 0 -57 -11v-46q0 -18 -20 -18h-64q-19 0 -19 18z" />
    <glyph glyph-name="afii10048small.var.accented" unicode="&#xf36e;`" horiz-adv-x="778" 
d="M227 331h71q7 96 52 152q57 72 161 72q96 0 150 -53q69 -69 69 -230q0 -157 -70 -229q-55 -56 -151 -56q-97 0 -150 58q-57 60 -62 183h-70v-134h37q13 0 17 -4t4 -17v-52q0 -13 -4 -17t-17 -4h-202q-13 0 -17.5 3.5t-4.5 17.5v52q0 14 4.5 17.5t17.5 3.5h40v353h-40
q-13 0 -17.5 3.5t-4.5 17.5v54q0 13 4.5 16.5t17.5 3.5h202q12 0 16.5 -3.5t4.5 -16.5v-54q0 -13 -4 -17t-17 -4h-37v-116zM514 454q-27 0 -45 -17q-40 -37 -40 -166t40 -166q18 -17 45 -17t45 17q40 37 40 166t-40 166q-18 17 -45 17zM494 741l31 -60q5 -10 5 -14
q0 -9 -15 -14l-177 -70q-11 -4 -14 -4q-5 0 -13 15l-16 31q-5 10 -5 14q0 6 13 14l163 97q10 5 15 5q6 0 13 -14z" />
    <glyph glyph-name="afii10049small.var.accented" unicode="&#xf36f;`" horiz-adv-x="546" 
d="M245 542h238q13 0 18 -3.5t5 -16.5v-54q0 -13 -5 -17t-18 -4h-39v-353h39q13 0 18 -4t5 -17v-52q0 -13 -5 -17t-18 -4h-206q-14 0 -18.5 3.5t-4.5 17.5v52q0 14 4.5 17.5t17.5 3.5h40v116h-36q-30 0 -48 -14q-20 -18 -27 -52l-10 -48q-11 -50 -33 -72q-18 -17 -49 -26.5
t-53 -9.5q-18 0 -21 11l-25 77q-5 16 10 20l11 2q24 4 34 14q8 8 15 32l9 36q7 31 25 52q16 18 37 24v2q-37 10 -60 34q-34 35 -34 94q0 74 47 116q46 40 137 40zM316 305v142h-55q-38 0 -58 -19q-19 -18 -19 -52t21 -53q21 -18 68 -18h43zM407 741l31 -60q5 -10 5 -14
q0 -9 -15 -14l-177 -70q-11 -4 -14 -4q-5 0 -13 15l-16 31q-5 10 -5 14q0 6 13 14l163 97q10 5 15 5q6 0 13 -14z" />
    <glyph glyph-name="fismall" unicode="&#xf766;&#xf769;" horiz-adv-x="742" 
d="M710 73v-52q0 -13 -4.5 -17t-18.5 -4h-210q-14 0 -18.5 4t-4.5 17v52q0 13 4.5 17t18.5 4h43v353h-43q-14 0 -18.5 4.5t-4.5 16.5v54q0 12 4.5 16t18.5 4h210q14 0 18.5 -4t4.5 -16v-54q0 -12 -5 -16.5t-18 -4.5h-42v-353h42q14 0 18.5 -4t4.5 -17zM417 524v-122
q0 -10 -3.5 -14t-14.5 -4h-60q-19 0 -19 18v37h-101v-105h141q13 0 18 -4t5 -17v-61q0 -12 -5 -16.5t-18 -4.5h-141v-137h52q13 0 18 -4t5 -17v-52q0 -13 -4.5 -17t-18.5 -4h-217q-14 0 -18 4t-4 17v52q0 13 4 17t18 4h40v353h-40q-14 0 -18 4.5t-4 16.5v54q0 12 4 16t18 4
h345q11 0 14.5 -4t3.5 -14z" />
    <glyph glyph-name="flsmall" unicode="&#xf766;&#xf76c;" horiz-adv-x="887" 
d="M877 133l-28 -116q-2 -10 -7 -13.5t-16 -3.5h-348q-14 0 -18 4t-4 17v52q0 13 4 17t18 4h40v353h-40q-14 0 -18 4.5t-4 16.5v54q0 12 4 16t18 4h206q13 0 18 -4t5 -16v-54q0 -12 -5 -16.5t-18 -4.5h-41v-344h119l11 47q3 13 8.5 16t18.5 0l60 -12q13 -2 16.5 -6t0.5 -15z
M417 524v-122q0 -10 -3.5 -14t-14.5 -4h-60q-19 0 -19 18v37h-101v-105h141q13 0 18 -4t5 -17v-61q0 -12 -5 -16.5t-18 -4.5h-141v-137h52q13 0 18 -4t5 -17v-52q0 -13 -4.5 -17t-18.5 -4h-217q-14 0 -18 4t-4 17v52q0 13 4 17t18 4h40v353h-40q-14 0 -18 4.5t-4 16.5v54
q0 12 4 16t18 4h345q11 0 14.5 -4t3.5 -14z" />
    <glyph glyph-name="afii10017.var.accented" unicode="&#x410;`" horiz-adv-x="630" 
d="M615 75v-54q0 -6 -1 -10t-2.5 -6.5t-4.5 -3.5t-4 -1h-5h-4h-208h-4h-5t-4 1t-4.5 3.5t-2.5 6.5t-1 10v54q0 6 1 10t2.5 6.5t4.5 3.5t4 1h5h4h32l-23 87h-172l-22 -87h33h4h5t4 -1t4.5 -3.5t2.5 -6.5t1 -10v-54q0 -6 -1 -10t-2.5 -6.5t-4.5 -3.5t-4 -1h-5h-4h-198h-4h-5
t-4 1t-4.5 3.5t-2.5 6.5t-1 10v54q0 6 1 10t2.5 6.5t4.5 3.5t4 1h5h4h30l175 573q0 1 1 4.5t1.5 4.5t2 3t3.5 3t5.5 1.5t8.5 0.5h104q6 0 10 -0.5t6 -3t3 -3t2 -5t1 -5.5l171 -573h34h4h5t4 -1t4.5 -3.5t2.5 -6.5t1 -10zM370 273l-41 172q-14 56 -22 140h-2
q-10 -90 -23 -140l-44 -172h132zM249 814l182 86q9 4 12 4q5 0 11 -11l31 -75q1 -3 1 -9q0 -2 -1.5 -4t-3 -2.5t-3.5 -1.5l-3 -1l-198 -57q-8 -2 -9 -2q-5 0 -10 10l-19 43q-2 4 -2 6q0 8 12 14z" />
    <glyph glyph-name="afii10022.var.accented" unicode="&#x415;`" horiz-adv-x="537" 
d="M481 178v-157q0 -11 -4 -16t-6 -5h-10h-401h-4h-5t-4 1t-4.5 3.5t-2.5 6.5t-1 10v54q0 6 1 10t2.5 6.5t4.5 3.5t4 1h5h4h51v493h-51h-4h-5t-4 1t-4.5 3.5t-2.5 6.5t-1 10v54q0 6 1 10t2.5 6.5t4.5 3.5t4 1h5h4h400q17 0 19 -7q2 -4 2 -10v-152q0 -11 -3.5 -15.5t-6.5 -5
t-11 -0.5h-66h-4h-5t-4 1t-4.5 3.5t-2.5 6.5t-1 10v61h-127v-165h170h4h4.5t3.5 -0.5t4 -2t2.5 -4t2 -6t0.5 -8.5v-66q0 -6 -1 -10t-2.5 -6.5t-4.5 -3.5t-4 -1h-5h-4h-170v-196h127v70v5v5t0.5 4t2 3t4 1.5t6 2t8.5 0.5h66h4h4.5t3.5 -0.5t4 -2t2.5 -4t2 -6t0.5 -8.5z
M219 814l182 86q9 4 12 4q5 0 11 -11l31 -75q1 -3 1 -9q0 -2 -1.5 -4t-3 -2.5t-3.5 -1.5l-3 -1l-198 -57q-8 -2 -9 -2q-5 0 -10 10l-19 43q-2 4 -2 6q0 8 12 14z" />
    <glyph glyph-name="afii10026.var.accented" unicode="&#x418;`" horiz-adv-x="691" 
d="M247 106v-10h39h4h5t4 -1t4.5 -3.5t2.5 -6.5t1 -10v-54q0 -6 -1 -10t-2.5 -6.5t-4.5 -3.5t-4 -1h-5h-4h-225h-4h-5t-4 1t-4.5 3.5t-2.5 6.5t-1 10v54q0 6 1 10t2.5 6.5t4.5 3.5t4 1h5h4h51v493h-51h-4h-5t-4 1t-4.5 3.5t-2.5 6.5t-1 10v54q0 6 1 10t2.5 6.5t4.5 3.5t4 1
h5h4h225h4h5t4 -1t4.5 -3.5t2.5 -6.5t1 -10v-54q0 -6 -1 -10t-2.5 -6.5t-4.5 -3.5t-4 -1h-5h-4h-39v-222q0 -58 -4 -102h5q20 45 48 89l148 225v10h-39h-4h-5t-4 1t-4.5 3.5t-2.5 6.5t-1 10v54q0 6 1 10t2.5 6.5t4.5 3.5t4 1h5h4h225h4h5t4 -1t4.5 -3.5t2.5 -6.5t1 -10v-54
q0 -6 -1 -10t-2.5 -6.5t-4.5 -3.5t-4 -1h-5h-4h-51v-493h51h4h5t4 -1t4.5 -3.5t2.5 -6.5t1 -10v-54q0 -6 -1 -10t-2.5 -6.5t-4.5 -3.5t-4 -1h-5h-4h-225h-4h-5t-4 1t-4.5 3.5t-2.5 6.5t-1 10v54q0 6 1 10t2.5 6.5t4.5 3.5t4 1h5h4h39v222q0 21 4 102h-5q-22 -48 -49 -89z
M281 814l182 86q9 4 12 4q5 0 11 -11l31 -75q1 -3 1 -9q0 -2 -1.5 -4t-3 -2.5t-3.5 -1.5l-3 -1l-198 -57q-8 -2 -9 -2q-5 0 -10 10l-19 43q-2 4 -2 6q0 8 12 14z" />
    <glyph glyph-name="afii10032.var.accented" unicode="&#x41e;`" horiz-adv-x="593" 
d="M296 -17q-50 0 -90.5 16.5t-66 41.5t-44 61.5t-27.5 67.5t-14 70t-6 59t-1 43t1 43.5t6 59.5t14 70t27.5 67.5t44 61.5t66 41.5t90.5 16.5t90.5 -17t66 -41.5t44 -61.5t27.5 -68.5t14 -70t6 -59t1 -42.5q0 -23 -1 -43t-6 -59t-14 -70t-27.5 -67.5t-44 -61.5t-66 -41.5
t-90.5 -16.5zM296 88q107 0 107 254q0 255 -107 255t-107 -255q0 -254 107 -254zM230 814l182 86q9 4 12 4q6 0 11 -11l31 -75q1 -3 1 -9q0 -2 -1.5 -4t-3 -2.5l-4.5 -1.5l-2 -1l-198 -57q-8 -2 -9 -2q-5 0 -10 10l-19 43q-2 4 -2 6q0 8 12 14z" />
    <glyph glyph-name="afii10037.var.accented" unicode="&#x423;`" horiz-adv-x="567" 
d="M282 193h-62q-11 0 -15 7q-2 2 -3 6l-144 383h-39h-3.5h-3.5t-3 0.5t-3 1.5t-2 3t-1.5 5t-0.5 7v62v3.5v3.5t0.5 3t1.5 3t3 2t5 1.5t7 0.5h143h4.5h3.5t2.5 -0.5t2.5 -2t2 -4l3 -7.5l77 -237q16 -49 42 -150h5q26 112 36 150l66 237q1 4 2.5 7t2 4.5t2.5 2t2.5 0.5h4h4.5
h124h3.5h3.5t3 -0.5t3 -1.5t2 -3t1.5 -5t0.5 -7v-62v-3.5v-3.5t-0.5 -3t-1.5 -3t-3 -2t-5 -1.5t-7 -0.5h-39l-129 -469q-7 -26 -16 -45t-27 -42.5t-50 -36.5t-76 -13q-77 0 -129 34q-12 8 -7 20l31 75q3 7 10 7q5 0 16 -7q37 -21 70 -21q32 0 46.5 16.5t24.5 52.5zM221 814
l182 86q9 4 12 4q5 0 11 -11l31 -75q1 -3 1 -9q0 -2 -1.5 -4t-3 -2.5t-3.5 -1.5l-3 -1l-198 -57q-8 -2 -9 -2q-5 0 -10 10l-19 43q-2 4 -2 6q0 8 12 14z" />
    <glyph glyph-name="afii10045.var.accented" unicode="&#x42b;`" horiz-adv-x="863" 
d="M112 589h-51h-4h-5t-4 1t-4.5 3.5t-2.5 6.5t-1 10v54q0 6 1 10t2.5 6.5t4.5 3.5t4 1h5h4h237h4h5t4 -1t4.5 -3.5t2.5 -6.5t1 -10v-54q0 -6 -1 -10t-2.5 -6.5t-4.5 -3.5t-4 -1h-5h-4h-51v-179h65q114 0 169 -46q64 -52 64 -162q0 -98 -64 -151q-61 -51 -176 -51h-247
q-14 0 -17 10q-1 4 -1 11v54q0 6 1 10t2.5 6.5t4.5 3.5t4 1h5h4h51v493zM247 105h49q60 0 89 27q25 24 25 71q0 60 -38 85q-26 17 -72 17h-53v-200zM836 75v-54q0 -6 -1 -10t-2.5 -6.5t-4.5 -3.5t-4 -1h-5h-4h-237h-4h-5t-4 1t-4.5 3.5t-2.5 6.5t-1 10v54q0 6 1 10t2.5 6.5
t4.5 3.5t4 1h5h4h51v493h-51h-4h-5t-4 1t-4.5 3.5t-2.5 6.5t-1 10v54q0 6 1 10t2.5 6.5t4.5 3.5t4 1h5h4h237h4h5t4 -1t4.5 -3.5t2.5 -6.5t1 -10v-54q0 -6 -1 -10t-2.5 -6.5t-4.5 -3.5t-4 -1h-5h-4h-51v-493h51h4h5t4 -1t4.5 -3.5t2.5 -6.5t1 -10zM388 814l182 86q9 4 12 4
q6 0 11 -11l31 -75q1 -3 1 -9q0 -2 -1.5 -4t-3 -2.5l-4.5 -1.5l-2 -1l-198 -57q-8 -2 -9 -2q-5 0 -10 10l-19 43q-2 4 -2 6q0 8 12 14z" />
    <glyph glyph-name="afii10047.var.accented" unicode="&#x42d;`" horiz-adv-x="527" 
d="M39 41v145q0 14 8 16q4 1 9 1h74q8 0 12 -3t4.5 -5.5t0.5 -6.5v-2v-92q29 -11 55 -11q58 0 93 37q47 50 49 180h-149h-3h-5t-3.5 0.5t-3.5 2t-2.5 4t-2 6t-0.5 8.5v63q0 12 4 17t6 5h10h149q0 112 -50 163q-33 33 -86 33q-25 0 -53 -9v-91v-3.5v-3.5t-0.5 -3t-1.5 -3
t-3 -2t-5 -1.5t-7 -0.5h-74q-14 0 -16 8q-1 4 -1 9v134q0 27 56.5 46.5t111.5 19.5q169 0 232 -158q32 -79 32 -220q0 -139 -41 -214q-71 -127 -239 -127q-75 0 -133 29q-27 14 -27 29zM168 814l182 86q9 4 12 4q6 0 11 -11l31 -75q1 -3 1 -9q0 -2 -1.5 -4t-3 -2.5
l-4.5 -1.5l-2 -1l-198 -57q-8 -2 -9 -2q-5 0 -10 10l-19 43q-2 4 -2 6q0 8 12 14z" />
    <glyph glyph-name="afii10048.var.accented" unicode="&#x42e;`" horiz-adv-x="866" 
d="M247 408h81q4 145 81 228q62 66 160 66q116 0 179 -84q70 -91 70 -276q0 -183 -69 -274q-63 -85 -180 -85q-110 0 -172 80q-71 91 -69 235h-81v-202h48h4h5t4 -1t4.5 -3.5t2.5 -6.5t1 -10v-54q0 -6 -1 -10t-2.5 -6.5t-4.5 -3.5t-4 -1h-5h-4h-234h-4h-5t-4 1t-4.5 3.5
t-2.5 6.5t-1 10v54q0 6 1 10t2.5 6.5t4.5 3.5t4 1h5h4h51v493h-51h-4h-5t-4 1t-4.5 3.5t-2.5 6.5t-1 10v54q0 6 1 10t2.5 6.5t4.5 3.5t4 1h5h4h234h4h5t4 -1t4.5 -3.5t2.5 -6.5t1 -10v-54q0 -6 -1 -10t-2.5 -6.5t-4.5 -3.5t-4 -1h-5h-4h-48v-181zM569 88q59 0 84 70
q23 64 23 184q0 143 -32 203q-28 52 -75 52q-51 0 -78 -55q-29 -58 -29 -200q0 -139 29 -198q27 -56 78 -56zM374 814l182 86q9 4 12 4q6 0 11 -11l31 -75q1 -3 1 -9q0 -2 -1.5 -4t-3 -2.5l-4.5 -1.5l-2 -1l-198 -57q-8 -2 -9 -2q-5 0 -10 10l-19 43q-2 4 -2 6q0 8 12 14z
" />
    <glyph glyph-name="afii10049.var.accented" unicode="&#x42f;`" horiz-adv-x="607" 
d="M495 589v-493h51h4h5t4 -1t4.5 -3.5t2.5 -6.5t1 -10v-54q0 -6 -1 -10t-2.5 -6.5t-4.5 -3.5t-4 -1h-5h-4h-233h-4h-5t-4 1t-4.5 3.5t-2.5 6.5t-1 10v54q0 6 1 10t2.5 6.5t4.5 3.5t4 1h5h4h47v184h-37q-37 0 -53 -15q-12 -11 -23 -52l-25 -98q-14 -56 -30.5 -81.5
t-56.5 -39.5q-33 -11 -64 -11q-13 0 -17 3.5t-7 11.5l-26 76q-5 16 10 20l26 6q22 5 29 15t20 52l19 60q2 5 5 17t5 17.5t6.5 14.5t11.5 17q16 22 44 33v3q-60 12 -90 56q-28 41 -28 107q0 92 59 143q56 50 174 50h234h4h5t4 -1t4.5 -3.5t2.5 -6.5t1 -10v-54q0 -6 -1 -10
t-2.5 -6.5t-4.5 -3.5t-4 -1h-5h-4h-51zM360 388v189h-37q-55 0 -78 -18q-31 -24 -31 -79q0 -40 24 -66q25 -26 74 -26h48zM269 814l182 86q9 4 12 4q5 0 11 -11l31 -75q1 -3 1 -9q0 -2 -1.5 -4t-3 -2.5t-3.5 -1.5l-3 -1l-198 -57q-8 -2 -9 -2q-5 0 -10 10l-19 43q-2 4 -2 6
q0 8 12 14z" />
    <glyph glyph-name="afii10065.var.accented" unicode="&#x430;`" 
d="M488 79v-65v-2q0 -4 -0.5 -6t-3.5 -4t-10 -2h-125q-22 0 -29 37q0 1 -0.5 3t-0.5 3q-31 -32 -60.5 -46t-68.5 -14q-62 0 -106 38.5t-44 115.5q0 90 64 129.5t183 39.5h14v31q0 12 -0.5 18.5t-3.5 19t-9 19t-19 12t-31 5.5q-47 0 -101 -20q-28 -10 -31 -10q-8 0 -10 10
l-20 61q-5 5 -2.5 15t22.5 17q71 27 164 27q161 0 161 -161v-173q0 -44 9 -80l1 -4h43q14 0 14 -14zM301 114v110h-6q-69 0 -99 -17q-36 -22 -36 -63q0 -30 18.5 -49t47.5 -19q35 0 75 38zM398 638l-178 -71q-6 -3 -12 -3t-13 14l-17 34q-4 8 -4 12q0 6 13 14l166 98
q6 4 11 4q6 0 13 -12l33 -65q4 -6 4 -12q0 -8 -16 -13z" />
    <glyph glyph-name="afii10070.var.accented" unicode="&#x435;`" 
d="M439 213h-269q0 -125 110 -125q51 0 100 23q2 1 5.5 2.5t5.5 2.5q12 5 16 5q8 0 11 -8l25 -59q3 -9 3 -11q0 -9 -16 -20q-62 -40 -160 -40q-105 0 -162 58q-65 67 -65 193q0 132 66 208q60 69 153 69q27 0 51 -5t52.5 -22t49 -45t34 -78t13.5 -116q0 -20 -4 -26t-19 -6z
M170 306h157v10q0 24 -4 41q-6 27 -22 43q-20 18 -48 18q-35 0 -57 -27q-21 -27 -26 -85zM411 638l-178 -71q-6 -3 -12 -3t-13 14l-17 34q-4 8 -4 12q0 6 13 14l166 98q6 4 11 4q6 0 13 -12l33 -65q4 -6 4 -12q0 -8 -16 -13z" />
    <glyph glyph-name="afii10074.var.accented" unicode="&#x438;`" horiz-adv-x="602" 
d="M505 93h51q10 0 12 -3t2 -9v-2v-65v-2q0 -4 -0.5 -6t-3.5 -4t-10 -2h-164h-6t-5 3.5t-3 10.5v171q0 51 4 123h-4q-27 -65 -33 -75l-120 -219q-7 -12 -12 -13q-3 -1 -7 -1h-92h-6t-5 3.5t-3 10.5v387h-51h-6t-5 3.5t-3 10.5v65q0 7 3 10.5t5 3.5h6h164q10 0 12 -3t2 -9v-2
v-171q0 -51 -4 -123h4q27 66 33 76l120 218q7 12 12 13q3 1 7 1h92q14 0 14 -14v-387zM460 638l-178 -71q-6 -3 -12 -3t-13 14l-17 34q-4 8 -4 12q0 6 13 14l166 98q6 4 11 4q6 0 13 -12l33 -65q4 -6 4 -12q0 -8 -16 -13z" />
    <glyph glyph-name="afii10080.var.accented" unicode="&#x43e;`" horiz-adv-x="519" 
d="M259 -17q-91 0 -154 66t-63 198t63 198t154 66t154 -66t63 -198t-63 -198t-154 -66zM259 83q44 0 64 38q18 36 18 120q0 98 -21 135q-20 35 -61 35q-42 0 -64 -41q-18 -35 -18 -126q0 -93 20 -127t62 -34zM412 638l-178 -71q-6 -3 -12 -3t-13 14l-17 34q-4 8 -4 12
q0 6 13 14l166 98q6 4 11 4q6 0 13 -12l33 -65q4 -6 4 -12q0 -8 -16 -13z" />
    <glyph glyph-name="afii10085.var.accented" unicode="&#x443;`" horiz-adv-x="516" 
d="M463 401l-98 -363q-2 -9 -14.5 -51t-13.5 -45q-27 -88 -63 -119q-39 -35 -106 -35q-32 0 -70.5 10t-56.5 24q-4 3 -6.5 6t-2.5 5.5v4t2 4.5t2 4l30 65q4 7 9 7q2 0 4 -0.5t4 -1.5t4.5 -2.5t5.5 -2.5l14 -6q29 -12 53 -12q26 0 43 12.5t23.5 25.5t13.5 36l10 33h-42
q-12 0 -15 7q-2 2 -3 6l-134 388h-32h-6t-5 3.5t-3 10.5v65q0 7 3 10.5t5 3.5h6h126h4h3.5t2.5 -0.5t3 -2.5l2.5 -5t2.5 -7l64 -238q18 -65 38 -173h2q19 113 33 173l54 238q1 4 2.5 7t2.5 4.5t3 2.5t3 1h3.5h3.5h121h2q4 0 6 -0.5t4 -3.5t2 -10v-65v-2q0 -4 -0.5 -6
t-3.5 -4t-10 -2h-35zM435 638l-178 -71q-6 -3 -12 -3t-13 14l-17 34q-4 8 -4 12q0 6 13 14l166 98q6 4 11 4q6 0 13 -12l33 -65q4 -6 4 -12q0 -8 -16 -13z" />
    <glyph glyph-name="afii10093.var.accented" unicode="&#x44b;`" horiz-adv-x="789" 
d="M108 93v308h-51h-6t-5 3.5t-3 10.5v65q0 14 14 14h164q14 0 14 -14v-158h56q53 0 90 -7t67 -33q49 -41 49 -117q0 -83 -53 -125q-49 -40 -167 -40h-220q-10 0 -12 3t-2 9v2v65v2q0 4 0.5 6t3.5 4t10 2h51zM235 222v-122h61q74 0 74 61t-65 61h-70zM557 401h-65h-6t-5 3.5
t-3 10.5v65q0 14 14 14h243q10 0 12 -3t2 -9v-2v-65v-2q0 -4 -0.5 -6t-3.5 -4t-10 -2h-51v-308h51q10 0 12 -3t2 -9v-2v-65v-2q0 -4 -0.5 -6t-3.5 -4t-10 -2h-164h-6t-5 3.5t-3 10.5v387zM541 638l-178 -71q-6 -3 -12 -3t-13 14l-17 34q-4 8 -4 12q0 6 13 14l166 98
q6 4 11 4q6 0 13 -12l33 -65q4 -6 4 -12q0 -8 -16 -13z" />
    <glyph glyph-name="afii10095.var.accented" unicode="&#x44d;`" horiz-adv-x="456" 
d="M150 410v-48q0 -14 -14 -14h-67h-6t-5 3.5t-3 10.5v106q0 16 30 27q43 16 105 16q107 0 163 -61q63 -68 63 -213q0 -119 -54 -183q-59 -71 -173 -71q-75 0 -138 40q-16 10 -16 22q0 3 3 9l29 56q3 8 11 8q7 0 14 -5q1 -1 9.5 -6.5t12.5 -7.5t13.5 -6.5t16.5 -6.5t17 -4
t20 -2q43 0 66 22q34 31 34 97h-119q-8 0 -11 3t-3 11v69q0 8 3 11t11 3h119q2 48 -18.5 83t-75.5 35q-15 0 -37 -4zM346 638l-178 -71q-6 -3 -12 -3t-13 14l-17 34q-4 8 -4 12q0 6 13 14l166 98q6 4 11 4q6 0 13 -12l33 -65q4 -6 4 -12q0 -8 -16 -13z" />
    <glyph glyph-name="afii10096.var.accented" unicode="&#x44e;`" horiz-adv-x="739" 
d="M217 314h57q10 66 54 128q56 69 154 69q99 0 156 -69q61 -73 61 -195q0 -132 -63 -198t-153 -66q-117 0 -173 93q-37 61 -37 138h-56v-200v-2q0 -4 -0.5 -6t-3.5 -4t-10 -2h-99q-14 0 -14 14v387h-51h-6t-5 3.5t-3 10.5v65q0 14 14 14h164q10 0 12 -3t2 -9v-2v-166z
M482 83q28 0 45.5 14t25 40.5t9.5 48t2 54.5q0 38 -2.5 63.5t-10 52.5t-25 41t-44.5 14t-44.5 -14t-25 -41t-10 -52t-2.5 -62q0 -33 2 -55.5t9.5 -49t25 -40.5t45.5 -14zM504 638l-178 -71q-6 -3 -12 -3t-13 14l-17 34q-4 8 -4 12q0 6 13 14l166 98q6 4 11 4q6 0 13 -12
l33 -65q4 -6 4 -12q0 -8 -16 -13z" />
    <glyph glyph-name="afii10097.var.accented" unicode="&#x44f;`" horiz-adv-x="533" 
d="M446 93h51q14 0 14 -14v-65q0 -7 -3 -10.5t-5 -3.5h-6h-164q-10 0 -12 3t-2 9v2v167h-48q-29 0 -40.5 -11t-17.5 -38l-12 -57q-9 -41 -27 -57.5t-48 -24.5q-37 -10 -59 -10q-20 0 -24 15l-21 64q-6 19 11 22l22 4q22 3 34 37l13 35q17 47 59 64v3q-41 8 -71 40t-30 82
q0 21 5.5 41t22 46t56 42t97.5 16h191q14 0 14 -14v-387zM319 281v113h-59q-73 0 -73 -56q0 -57 78 -57h54zM424 638l-178 -71q-6 -3 -12 -3t-13 14l-17 34q-4 8 -4 12q0 6 13 14l166 98q6 4 11 4q6 0 13 -12l33 -65q4 -6 4 -12q0 -8 -16 -13z" />
    <glyph glyph-name=".notdef" horiz-adv-x="233" 
 />
    <glyph glyph-name=".notdef" horiz-adv-x="233" 
 />
    <glyph glyph-name=".null" horiz-adv-x="0" 
 />
    <glyph glyph-name="nonmarkingreturn" horiz-adv-x="333" 
 />
    <glyph glyph-name="space" unicode=" " horiz-adv-x="233" 
 />
    <glyph glyph-name="space" unicode="&#xa0;" horiz-adv-x="233" 
 />
    <glyph glyph-name="exclam" unicode="!" horiz-adv-x="352" 
d="M247 669l-22 -391q0 -8 -2 -12.5t-6.5 -6t-5.5 -1.5h-7h-57q-16 0 -19 10q-2 4 -2 10l-22 391q-2 25 2 29q3 4 15 4h107h12.5t4.5 -7.5t2 -25.5zM260 67q0 -38 -26.5 -61t-57.5 -23q-32 0 -58.5 23t-26.5 61q0 37 24.5 61t60.5 24t60 -24.5t24 -60.5z" />
    <glyph glyph-name="quotedbl" unicode="&#x22;" 
d="M221 704l-22 -239q0 -4 -1 -7.5t-1.5 -5.5t-2 -3.5t-2.5 -2t-3 -1t-3 -0.5h-4h-4h-41q-15 0 -18 8q-2 4 -3 12l-22 239q-1 7 4.5 10t15.5 3h87q10 0 15.5 -3t4.5 -10zM406 704l-22 -239q0 -4 -1 -7.5t-1.5 -5.5t-2 -3.5t-2.5 -2t-3 -1t-3 -0.5h-4h-4h-41q-15 0 -18 8
q-2 4 -3 12l-22 239q-1 7 4.5 10t15.5 3h87q10 0 15.5 -3t4.5 -10z" />
    <glyph glyph-name="numbersign" unicode="#" horiz-adv-x="556" 
d="M394 144l-18 -177q-1 -10 -5.5 -14.5t-7.5 -4.5h-11h-47q-11 0 -16 3t-4 11l19 182h-100l-17 -177q-2 -19 -25 -19h-45q-11 0 -16 3t-4 11l17 182h-39q-11 0 -16 4t-5 6v11v55v4v4t0.5 3.5t2 3.5t4 2.5t6 2t8.5 0.5h49l17 167h-39q-11 0 -16 4t-5 6v11v54q0 11 4 16t6 5
h11h49l17 163q1 10 5.5 14.5t7.5 4.5h11h45q17 0 20 -8t0 -13l-16 -161h99l17 163q1 10 6 14.5t7.5 4.5h9.5h47q11 0 16 -4t4 -8.5t-1 -8.5l-16 -161h51h3h5t3.5 -0.5t3.5 -2t2.5 -4t2 -6t0.5 -8.5v-54q0 -11 -4 -16t-6 -5h-10h-60l-18 -167h51q10 0 15 -4t5 -6.5v-9.5v-55
q0 -16 -8 -19q-4 -2 -12 -2h-60zM313 240l18 167h-100l-17 -167h99z" />
    <glyph glyph-name="dollar" unicode="$" horiz-adv-x="556" 
d="M309 -11v-45v-4v-4t-0.5 -3.5t-2 -3.5t-4 -2.5t-6 -2t-8.5 -0.5h-20q-11 0 -16 4t-5 6v10v45q-80 4 -142 28q-32 13 -32 25q0 3 2 9l29 84q3 8 9 8q2 0 20 -8q63 -30 114 -38v196q-93 40 -134.5 80t-41.5 115q0 27 7.5 53.5t25 56t54.5 51t89 29.5v49v3v5t0.5 3.5t2 3.5
t4 2.5t6 2t8.5 0.5h20q11 0 16 -4t5 -6v-10v-49q79 -5 128 -30q29 -14 29 -28q0 -4 -3 -11l-31 -68q-3 -8 -9 -8q-5 0 -21 9q-47 26 -93 31v-185q88 -39 131.5 -85t43.5 -121q0 -73 -47 -127t-128 -66zM308 270l1 -173q60 27 60 81q0 25 -5.5 38.5t-13 18t-20 13.5t-22.5 22
zM247 410v163q-24 -8 -42.5 -28t-18.5 -50t14.5 -48t46.5 -37z" />
    <glyph glyph-name="percent" unicode="%" horiz-adv-x="833" 
d="M348 492q0 -87 -42.5 -131.5t-106.5 -44.5t-106.5 44t-42.5 132q0 86 43 131t106 45t106 -45t43 -131zM199 391q30 0 39.5 25t9.5 76q0 22 -1.5 36.5t-6 31t-15 25t-26.5 8.5t-26.5 -8.5t-15 -25t-6 -31t-1.5 -36.5q0 -51 9.5 -76t39.5 -25zM781 159q0 -87 -42.5 -131.5
t-106.5 -44.5t-106.5 44t-42.5 132q0 86 43 131t106 45t106 -45t43 -131zM632 58q30 0 39.5 25t9.5 76q0 22 -1.5 36.5t-6 31t-15 25t-26.5 8.5t-26.5 -8.5t-15 -25t-6 -31t-1.5 -36.5q0 -51 9.5 -76t39.5 -25zM586 659l-236 -659q-6 -17 -23 -17h-51q-21 0 -21 11q0 1 3 10
l238 665q5 16 23 16h51q19 0 19 -12q0 -7 -3 -14z" />
    <glyph glyph-name="ampersand" unicode="&#x26;" horiz-adv-x="611" 
d="M518 -9l-58 66q-71 -74 -193 -74q-114 0 -171 55t-57 132q0 70 37.5 116t108.5 88q-1 1 -15 15.5t-15.5 17t-13 15.5t-14 17t-11 15.5t-10.5 18.5t-6.5 18t-5.5 21t-1 21q0 27 10 54.5t30.5 54.5t59.5 43.5t90 16.5q89 0 137 -46.5t48 -111.5q0 -55 -34.5 -98t-92.5 -84
l107 -126q26 51 31 110q1 17 5 21.5t14 1.5l75 -21q12 -3 12 -19q0 -48 -32 -123q-14 -33 -28 -57l71 -86q9 -11 9 -14q0 -5 -10 -15l-50 -45q-6 -6 -14 -6q-7 0 -13 8zM280 431q27 24 36.5 33.5t20.5 29t11 41.5q0 33 -18.5 52t-48.5 19q-33 0 -50.5 -22t-17.5 -49
q0 -19 12.5 -40.5t23 -32zM385 143l-136 160q-37 -25 -56 -50.5t-19 -61.5q0 -41 26.5 -72t74.5 -31q64 0 110 55z" />
    <glyph glyph-name="quotesingle" unicode="'" horiz-adv-x="204" 
d="M165 704l-22 -239q0 -4 -1 -7.5t-1.5 -5.5t-2 -3.5t-2.5 -2t-3 -1t-3 -0.5h-4h-4h-41q-15 0 -18 8q-2 4 -3 12l-22 239q-1 7 4.5 10t15.5 3h87q10 0 15.5 -3t4.5 -10z" />
    <glyph glyph-name="parenleft" unicode="(" horiz-adv-x="444" 
d="M248 245q0 -87 16 -157.5t34.5 -107t54 -96t53.5 -95.5q2 -4 -12.5 -16t-32.5 -22.5t-26 -10.5q-10 0 -40 36.5t-44 58.5q-59 86 -96 194.5t-37 215.5t37 215.5t96 194.5q14 22 44 58.5t40 36.5q8 0 26 -10.5t32.5 -22.5t12.5 -16q-13 -24 -48.5 -77t-54.5 -89t-37 -114
t-18 -176z" />
    <glyph glyph-name="parenright" unicode=")" horiz-adv-x="449" 
d="M196 245q0 97 -18.5 174.5t-40 115.5t-54 88t-45.5 78q-2 4 12.5 16t32.5 22.5t26 10.5q10 0 40 -36.5t44 -58.5q59 -86 96 -194.5t37 -215.5t-37 -215.5t-96 -194.5q-14 -22 -44 -58.5t-40 -36.5q-8 0 -26 10.5t-32.5 22.5t-12.5 16q11 22 45 79.5t54.5 98t39.5 117
t19 161.5z" />
    <glyph glyph-name="asterisk" unicode="*" horiz-adv-x="556" 
d="M415 367l-52 -37q-13 -8 -18 -8q-4 0 -11 14l-57 112l-56 -112q-7 -14 -11 -14q-7 0 -18 8l-52 37q-11 8 -11 15q0 6 9 15l90 86l-123 19q-19 2 -19 12q0 3 2 9l21 65q4 16 13 16q4 0 12 -4l113 -60l-21 123q-1 3 -1 11q0 11 20 11h65q20 0 20 -10q0 -9 -1 -12l-21 -123
l113 60q6 4 12 4q8 0 13 -16l20 -61q3 -6 3 -13q0 -10 -19 -12l-123 -19l90 -86q9 -9 9 -15t-11 -15z" />
    <glyph glyph-name="plus" unicode="+" horiz-adv-x="556" 
d="M328 207v-160q0 -8 -2 -12t-4.5 -4.5t-7.5 -0.5h-3h-66q-8 0 -12 2t-4.5 4.5t-0.5 7.5v3v160h-160q-8 0 -12 2t-4.5 4.5t-0.5 7.5v3v66q0 8 3 12t5.5 4.5t6.5 0.5h2h160v160q0 8 2 12t4.5 4.5t7.5 0.5h3h66h3.5h3.5t3 -0.5t3 -1.5t2 -3t1.5 -5t0.5 -7v-160h160h3.5h3.5
t3 -0.5t3 -1.5t2 -3t1.5 -5t0.5 -7v-66v-3.5v-3.5t-0.5 -3t-1.5 -3t-3 -2t-5 -1.5t-7 -0.5h-160z" />
    <glyph glyph-name="comma" unicode="," horiz-adv-x="222" 
d="M85 173h97q20 0 20 -11q0 -5 -5 -15l-120 -225q-7 -12 -13 -12q-2 0 -8 2l-42 14q-16 5 -16 13q0 2 2 10l63 207q6 17 22 17z" />
    <glyph glyph-name="hyphen" unicode="-" horiz-adv-x="370" 
d="M328 292v-73v-4v-4.5t-0.5 -3.5t-2 -4t-4 -2.5t-6 -2t-8.5 -0.5h-244q-11 0 -16 4t-5 6v11v73v4v4.5t0.5 3.5t2 4t4 2.5t6 2t8.5 0.5h244q11 0 16 -4t5 -6v-11z" />
    <glyph glyph-name="hyphen" unicode="&#x2010;" horiz-adv-x="370" 
d="M328 292v-73v-4v-4.5t-0.5 -3.5t-2 -4t-4 -2.5t-6 -2t-8.5 -0.5h-244q-11 0 -16 4t-5 6v11v73v4v4.5t0.5 3.5t2 4t4 2.5t6 2t8.5 0.5h244q11 0 16 -4t5 -6v-11z" />
    <glyph glyph-name="hyphen" unicode="&#xad;" horiz-adv-x="370" 
d="M328 292v-73v-4v-4.5t-0.5 -3.5t-2 -4t-4 -2.5t-6 -2t-8.5 -0.5h-244q-11 0 -16 4t-5 6v11v73v4v4.5t0.5 3.5t2 4t4 2.5t6 2t8.5 0.5h244q11 0 16 -4t5 -6v-11z" />
    <glyph glyph-name="period" unicode="." horiz-adv-x="296" 
d="M243 78q0 -39 -28.5 -67t-66.5 -28t-66.5 28t-28.5 67t28.5 67t66.5 28t66.5 -28t28.5 -67z" />
    <glyph glyph-name="slash" unicode="/" horiz-adv-x="445" 
d="M336 724h59q19 0 19 -13q0 -3 -4 -15l-325 -889q-6 -19 -27 -19h-58h-3q-16 0 -17 12v5v1q1 1 1.5 3.5t1.5 5.5l326 891q6 18 27 18z" />
    <glyph glyph-name="zero" unicode="0" horiz-adv-x="556" 
d="M278 -17q-109 0 -169 81q-68 91 -68 270q0 185 70 274q61 77 167 77q103 0 165 -77q42 -53 57 -118.5t15 -155.5q0 -182 -70 -273q-60 -78 -167 -78zM278 91q23 0 47.5 14.5t38.5 46.5q24 53 24 182q0 131 -26 185q-27 58 -84 58q-60 0 -86 -64q-24 -60 -24 -179t24 -179
q26 -64 86 -64z" />
    <glyph glyph-name="one" unicode="1" horiz-adv-x="556" 
d="M456 79v-65v-2q0 -4 -0.5 -6t-3.5 -4t-10 -2h-307h-6t-5 3.5t-3 10.5v65q0 14 14 14h101v424l-78 -47q-7 -5 -12 -5t-14 13l-26 45q0 1 -1 2q-3 5 -3 6v5q2 9 12 16l159 116h70q10 0 14.5 -3t5 -5.5t0.5 -11.5v-555h79q10 0 12 -3t2 -9v-2z" />
    <glyph glyph-name="two" unicode="2" horiz-adv-x="556" 
d="M473 94v-73q0 -11 -4 -16t-6 -5h-10h-361h-6.5t-4.5 4t-3 13v52q0 71 40 133q29 45 70 81q9 8 50 39t62 51q59 55 59 120q0 41 -22 62.5t-56 21.5q-23 0 -41 -7.5t-30 -22t-16.5 -23t-11.5 -22.5q-1 -2 -3.5 -7.5t-3.5 -8t-3.5 -6t-5 -5t-5.5 -1.5q-2 0 -6 1.5t-5 1.5
l-64 24q-11 4 -11 15q0 18 12 44q23 51 74 88t129 37q88 0 138.5 -49.5t50.5 -140.5q0 -44 -10.5 -79t-35 -64.5t-44 -47t-57.5 -46.5l-43 -33q-70 -54 -71 -110h235q6 0 10 -1t6 -2t3 -4t1 -4v-5v-5z" />
    <glyph glyph-name="three" unicode="3" horiz-adv-x="556" 
d="M167 316v67q0 11 4 16t6 5h10h33q109 0 109 91q0 35 -20 59q-23 26 -59 26q-38 0 -73 -30l-11 -10q-10 -9 -12 -12q-6 -9 -11 -9q-4 0 -9 5l-55 49q-5 5 -5 10q0 8 12 25q21 31 68 54t99 23q87 0 141.5 -48.5t54.5 -130.5q0 -106 -94 -147q57 -17 87 -62t30 -103
q0 -84 -50 -141q-63 -70 -179 -70q-49 0 -100.5 12.5t-74.5 26.5q-16 10 -13 23l21 74q3 10 12 10l19 -8q73 -33 126 -33q57 0 84 31q25 28 25 77q0 55 -42 82q-28 18 -82 18h-31h-9.5t-6.5 5t-4 15z" />
    <glyph glyph-name="four" unicode="4" horiz-adv-x="556" 
d="M437 132v-129q0 -10 -4 -15t-6.5 -5h-9.5h-87q-10 0 -15 4t-5 6.5v9.5v129h-244q-11 0 -16 4t-5 6v10v105l249 415q9 12 13 13h4q2 0 4.5 -1.5t3.5 -1.5l62 -26q14 -5 14 -14q0 -4 -4 -12l-234 -398h153l16 161q1 8 1.5 11t5.5 6t14 3h70q20 0 20 -21v-160h56h6h5.5t4 -1
t3 -3.5l1.5 -7.5t1 -12v-56v-4v-4t-0.5 -3.5t-2 -3.5t-4 -2.5t-6 -2t-8.5 -0.5h-56z" />
    <glyph glyph-name="five" unicode="5" horiz-adv-x="556" 
d="M217 563l-17 -159l5 3q47 27 93 27q85 0 140 -56t55 -151q0 -107 -69 -175.5t-184 -68.5q-48 0 -92 8.5t-62 17.5q-19 8 -15 30l13 73q0 9 9 9q4 0 16 -4q69 -26 125 -26q67 0 105.5 37t38.5 97q0 52 -28 78t-77 26t-87 -35q-4 -3 -7 -7l-4.5 -6t-3 -3.5t-3.5 -1.5
q-8 0 -15 2l-60 19q-7 2 -12 5t-4 8l32 339q1 7 2 11t3.5 6t4 2h7.5h297q11 0 16 -4t5 -6v-10v-64v-4v-4.5t-0.5 -3.5t-2 -4t-4 -2.5t-6 -2t-8.5 -0.5h-206z" />
    <glyph glyph-name="six" unicode="6" horiz-adv-x="556" 
d="M193 410l2 -2q4 -4 15 10t37.5 31.5t62.5 17.5q72 0 122 -48q63 -61 63 -182q0 -67 -18.5 -117.5t-49.5 -79.5t-68.5 -43t-80.5 -14q-94 0 -149 66q-63 76 -63 228q0 141 44 236q80 172 255 172q36 0 68.5 -10.5t26.5 -30.5l-21 -70q-5 -15 -23 -6q-26 12 -55 12
q-49 0 -95.5 -34t-69.5 -124zM284 91q36 0 63.5 30.5t27.5 106.5t-26.5 105t-62.5 29t-63 -28.5t-27 -105.5q0 -80 27 -108.5t61 -28.5z" />
    <glyph glyph-name="seven" unicode="7" horiz-adv-x="556" 
d="M484 609l-223 -611q-3 -7 -4 -9t-7 -5.5t-14 0.5l-83 16q-18 3 -20.5 10t3.5 16l212 527h-245q-11 0 -16 4t-5 6v11v74v4v4t0.5 3.5t2 3.5t4 2.5t6 2t8.5 0.5h361h9.5t6.5 -5t4 -15v-39z" />
    <glyph glyph-name="eight" unicode="8" horiz-adv-x="556" 
d="M374 354q139 -57 139 -177q0 -80 -63.5 -137t-172.5 -57q-106 0 -169 51q-65 53 -65 135q0 123 143 182q-117 53 -117 153q0 80 60.5 130.5t149.5 50.5q95 0 151.5 -52.5t56.5 -121.5q0 -99 -113 -157zM283 399l11 5q66 29 66 93q0 39 -25 61t-58 22q-38 0 -59.5 -25
t-21.5 -55q0 -25 18 -51.5t58 -44.5zM272 304l-8 -4q-94 -48 -94 -118q0 -42 28.5 -68t78.5 -26q51 0 80 27.5t29 62.5q0 77 -100 120z" />
    <glyph glyph-name="nine" unicode="9" horiz-adv-x="556" 
d="M92 24l21 70q5 15 23 6q24 -12 57 -12q20 0 40 6t44.5 21t45.5 49t33 82l3 12l-2 2q-42 -59 -112 -59q-32 0 -62.5 10.5t-60 34.5t-47.5 72t-18 113q0 122 61 190q57 64 154 64q92 0 148 -64q66 -75 66 -231q0 -199 -91 -310q-79 -97 -208 -97q-57 0 -87 20q-12 8 -8 21z
M268 577q-36 0 -63.5 -30.5t-27.5 -106.5t26.5 -105t62.5 -29t63 28.5t27 105.5q0 80 -27 108.5t-61 28.5z" />
    <glyph glyph-name="colon" unicode=":" horiz-adv-x="296" 
d="M243 78q0 -39 -28.5 -67t-66.5 -28t-66.5 28t-28.5 67t28.5 67t66.5 28t66.5 -28t28.5 -67zM243 399q0 -39 -28.5 -67t-66.5 -28t-66.5 28t-28.5 67t28.5 67t66.5 28t66.5 -28t28.5 -67z" />
    <glyph glyph-name="semicolon" unicode=";" horiz-adv-x="296" 
d="M243 399q0 -39 -28.5 -67t-66.5 -28t-66.5 28t-28.5 67t28.5 67t66.5 28t66.5 -28t28.5 -67zM119 173h97q20 0 20 -11q0 -5 -5 -15l-120 -225q-7 -12 -13 -12q-2 0 -8 2l-42 14q-16 5 -16 13q0 2 2 10l63 207q6 17 22 17z" />
    <glyph glyph-name="semicolon" unicode="&#x37e;" horiz-adv-x="296" 
d="M243 399q0 -39 -28.5 -67t-66.5 -28t-66.5 28t-28.5 67t28.5 67t66.5 28t66.5 -28t28.5 -67zM119 173h97q20 0 20 -11q0 -5 -5 -15l-120 -225q-7 -12 -13 -12q-2 0 -8 2l-42 14q-16 5 -16 13q0 2 2 10l63 207q6 17 22 17z" />
    <glyph glyph-name="less" unicode="&#x3c;" horiz-adv-x="557" 
d="M468 75l-407 135q-11 6 -11 14v68q0 10 11 14l407 135l8 2q6 0 9 -10l17 -60q2 -7 2 -9q0 -9 -9 -11l-296 -94v-2l296 -94q10 -3 7 -20l-17 -60q-3 -10 -11 -10q-2 0 -6 2z" />
    <glyph glyph-name="equal" unicode="=" horiz-adv-x="556" 
d="M505 210v-66v-3.5v-3.5t-0.5 -3t-1.5 -3t-3 -2t-5 -1.5t-7 -0.5h-420q-8 0 -12 2t-4.5 4.5t-0.5 7.5v3v66q0 8 3 12t5.5 4.5t6.5 0.5h2h420h3.5h3.5t3 -0.5t3 -1.5t2 -3t1.5 -5t0.5 -7zM505 369v-66v-3.5v-3.5t-0.5 -3t-1.5 -3t-3 -2t-5 -1.5t-7 -0.5h-420q-8 0 -12 2
t-4.5 4.5t-0.5 7.5v3v66q0 8 3 12t5.5 4.5t6.5 0.5h2h420q8 0 12 -2t4.5 -4.5t0.5 -7.5v-3z" />
    <glyph glyph-name="greater" unicode="&#x3e;" horiz-adv-x="557" 
d="M494 210l-407 -135q-4 -2 -6 -2q-8 0 -11 10l-17 60q-3 17 7 20l296 94v2l-296 94q-9 2 -9 11q0 2 2 9l17 60q3 10 9 10l8 -2l407 -135q11 -4 11 -14v-68q0 -8 -11 -14z" />
    <glyph glyph-name="question" unicode="?" 
d="M258 243h-73q-11 0 -16 4t-5 6v11v125q0 16 23 25q5 2 13 4.5t13 3.5q17 5 22 7q71 25 71 87q0 35 -21 52q-24 19 -62 19q-48 0 -106 -26q-16 -7 -18 -7q-8 0 -12 10l-26 68q-2 8 -2 11q0 9 15 19q25 15 78 27.5t94 12.5q88 0 142 -53q53 -51 53 -130q0 -91 -71 -144
q-37 -28 -91 -43v-68v-4v-4.5t-0.5 -3.5t-2 -4t-4 -2.5t-6 -2t-8.5 -0.5zM309 67q0 -38 -26.5 -61t-57.5 -23q-32 0 -58.5 23t-26.5 61q0 37 24.5 61t60.5 24t60 -24.5t24 -60.5z" />
    <glyph glyph-name="at" unicode="@" horiz-adv-x="1000" 
d="M801 -30l16 -41q3 -9 3 -12q0 -9 -17 -17q-46 -24 -134 -47t-178 -23q-194 0 -299.5 95.5t-105.5 267.5q0 134 64 243.5t174 170.5t243 61q160 0 254 -84t94 -222q0 -135 -84 -221t-194 -86q-81 0 -92 69q-8 -13 -20.5 -26t-40 -28t-56.5 -15q-93 0 -93 122
q0 109 55.5 184.5t124.5 75.5q46 0 80 -34l5 11q4 10 16 10h66q16 0 11 -20l-45 -213q-3 -21 -3 -24q0 -30 30 -30q58 0 104 59.5t46 157.5q0 109 -68.5 174t-191.5 65q-173 0 -281 -114t-108 -288q0 -56 14 -102t35 -75t51.5 -50.5t58 -32.5t60 -17t52 -7.5t39.5 -1.5
q127 0 278 63q3 1 9.5 4t9.5 4t7 1.5t6.5 -1.5t4.5 -6zM549 228l24 112q-19 22 -45 22q-38 0 -60 -56q-25 -64 -25 -132q0 -37 28 -37q26 0 47.5 23.5t30.5 67.5z" />
    <glyph glyph-name="A" unicode="A" horiz-adv-x="630" 
d="M615 75v-54q0 -6 -1 -10t-2.5 -6.5t-4.5 -3.5t-4 -1h-5h-4h-208h-4h-5t-4 1t-4.5 3.5t-2.5 6.5t-1 10v54q0 6 1 10t2.5 6.5t4.5 3.5t4 1h5h4h32l-23 87h-172l-22 -87h33h4h5t4 -1t4.5 -3.5t2.5 -6.5t1 -10v-54q0 -6 -1 -10t-2.5 -6.5t-4.5 -3.5t-4 -1h-5h-4h-198h-4h-5
t-4 1t-4.5 3.5t-2.5 6.5t-1 10v54q0 6 1 10t2.5 6.5t4.5 3.5t4 1h5h4h30l175 573q0 1 1 4.5t1.5 4.5t2 3t3.5 3t5.5 1.5t8.5 0.5h104q6 0 10 -0.5t6 -3t3 -3t2 -5t1 -5.5l171 -573h34h4h5t4 -1t4.5 -3.5t2.5 -6.5t1 -10zM370 273l-41 172q-14 56 -22 140h-2
q-10 -90 -23 -140l-44 -172h132z" />
    <glyph glyph-name="B" unicode="B" horiz-adv-x="593" 
d="M61 685h247q214 0 214 -175q0 -108 -102 -151q57 -14 91 -56t34 -114q0 -97 -64 -145q-60 -44 -172 -44h-248q-13 0 -17 4t-4 17v54q0 6 1 10t2.5 6.5t4.5 3.5t4 1h5h4h51v493h-51h-4h-5t-4 1t-4.5 3.5t-2.5 6.5t-1 10v54q0 6 1 10t2.5 6.5t4.5 3.5t4 1h5h4zM247 402h41
q53 0 80 32q19 21 19 62t-23 62q-24 22 -75 22h-42v-178zM247 105h50q62 0 91 32q22 26 22 67q0 52 -36 75q-26 18 -77 18h-50v-192z" />
    <glyph glyph-name="C" unicode="C" horiz-adv-x="528" 
d="M488 186v-145q0 -19 -40 -35q-60 -23 -136 -23q-133 0 -201 86q-40 52 -54 117t-14 149q0 178 69 273q69 94 200 94q55 0 111.5 -19.5t56.5 -46.5v-134q0 -8 -3 -12t-5.5 -4.5t-6.5 -0.5h-2h-74q-8 0 -12 2t-4.5 4.5t-0.5 7.5v3v83q-28 9 -53 9q-56 0 -87 -32
q-47 -48 -47 -204q0 -180 50 -232q33 -35 92 -35q19 0 53 6v89q0 14 8 16q4 1 9 1h74q8 0 12 -3t4.5 -5.5t0.5 -6.5v-2z" />
    <glyph glyph-name="D" unicode="D" horiz-adv-x="621" 
d="M62 685h229q140 0 202 -52q89 -73 89 -287q0 -218 -96 -295q-65 -51 -198 -51h-227q-13 0 -17 4t-4 17v54q0 6 1 10t2.5 6.5t4.5 3.5t4 1h5h4h51v493h-51h-4h-5t-4 1t-4.5 3.5t-2.5 6.5t-1 10v54q0 6 1 10t2.5 6.5t4.5 3.5t4 1h6h4zM247 108h38q76 0 112 38q27 28 35 76
t8 126q0 146 -43 191q-37 38 -112 38h-38v-469z" />
    <glyph glyph-name="E" unicode="E" horiz-adv-x="537" 
d="M481 178v-157q0 -11 -4 -16t-6 -5h-10h-401h-4h-5t-4 1t-4.5 3.5t-2.5 6.5t-1 10v54q0 6 1 10t2.5 6.5t4.5 3.5t4 1h5h4h51v493h-51h-4h-5t-4 1t-4.5 3.5t-2.5 6.5t-1 10v54q0 6 1 10t2.5 6.5t4.5 3.5t4 1h5h4h400q17 0 19 -7q2 -4 2 -10v-152q0 -11 -3.5 -15.5t-6.5 -5
t-11 -0.5h-66h-4h-5t-4 1t-4.5 3.5t-2.5 6.5t-1 10v61h-127v-165h170h4h4.5t3.5 -0.5t4 -2t2.5 -4t2 -6t0.5 -8.5v-66q0 -6 -1 -10t-2.5 -6.5t-4.5 -3.5t-4 -1h-5h-4h-170v-196h127v70v5v5t0.5 4t2 3t4 1.5t6 2t8.5 0.5h66h4h4.5t3.5 -0.5t4 -2t2.5 -4t2 -6t0.5 -8.5z" />
    <glyph glyph-name="F" unicode="F" 
d="M333 75v-54q0 -6 -1 -10t-2.5 -6.5t-4.5 -3.5t-4 -1h-5h-4h-252h-4h-5t-4 1t-4.5 3.5t-2.5 6.5t-1 10v54q0 6 1 10t2.5 6.5t4.5 3.5t4 1h5h4h51v493h-51h-4h-5t-4 1t-4.5 3.5t-2.5 6.5t-1 10v54q0 6 1 10t2.5 6.5t4.5 3.5t4 1h5h4h400q17 0 19 -7q2 -4 2 -10v-152
q0 -11 -3.5 -15.5t-6.5 -5t-11 -0.5h-66h-4h-5t-4 1t-4.5 3.5t-2.5 6.5t-1 10v61h-127v-165h170h4h4.5t3.5 -0.5t4 -2t2.5 -4t2 -6t0.5 -8.5v-66q0 -6 -1 -10t-2.5 -6.5t-4.5 -3.5t-4 -1h-5h-4h-170v-208h66h4h5t4 -1t4.5 -3.5t2.5 -6.5t1 -10z" />
    <glyph glyph-name="G" unicode="G" horiz-adv-x="606" 
d="M516 264v-203q0 -30 -72 -56q-64 -22 -128 -22q-126 0 -192 78q-76 92 -76 278q0 204 87 293q68 70 181 70q68 0 129 -22q56 -20 56 -47v-129v-3.5v-3.5t-0.5 -3t-1.5 -3t-3 -2t-5 -1.5t-7 -0.5h-74q-8 0 -12 2t-4.5 4.5t-0.5 7.5v3v76q-42 14 -68 14q-63 0 -96 -49
q-39 -57 -39 -203q0 -138 34 -197q32 -54 99 -54q32 0 68 14l5 2v157h-75h-4h-5t-4 1t-4.5 3.5t-2.5 6.5t-1 10v54q0 6 1 10t2.5 6.5t4.5 3.5t4 1h5h4h244h4h5t4 -1t4.5 -3.5t2.5 -6.5t1 -10v-54q0 -6 -1 -10t-2.5 -6.5t-4.5 -3.5t-4 -1h-5h-4h-49z" />
    <glyph glyph-name="H" unicode="H" horiz-adv-x="685" 
d="M645 75v-54q0 -6 -1 -10t-2.5 -6.5t-4.5 -3.5t-4 -1h-5h-4h-234h-4h-5t-4 1t-4.5 3.5t-2.5 6.5t-1 10v54q0 6 1 10t2.5 6.5t4.5 3.5t4 1h5h4h48v204h-191v-204h48h4h5t4 -1t4.5 -3.5t2.5 -6.5t1 -10v-54q0 -6 -1 -10t-2.5 -6.5t-4.5 -3.5t-4 -1h-5h-4h-234h-4h-5t-4 1
t-4.5 3.5t-2.5 6.5t-1 10v54q0 6 1 10t2.5 6.5t4.5 3.5t4 1h5h4h51v493h-51h-4h-5t-4 1t-4.5 3.5t-2.5 6.5t-1 10v54q0 6 1 10t2.5 6.5t4.5 3.5t4 1h5h4h234h4h5t4 -1t4.5 -3.5t2.5 -6.5t1 -10v-54q0 -6 -1 -10t-2.5 -6.5t-4.5 -3.5t-4 -1h-5h-4h-48v-181h191v181h-48h-4h-5
t-4 1t-4.5 3.5t-2.5 6.5t-1 10v54q0 6 1 10t2.5 6.5t4.5 3.5t4 1h5h4h234h4h5t4 -1t4.5 -3.5t2.5 -6.5t1 -10v-54q0 -6 -1 -10t-2.5 -6.5t-4.5 -3.5t-4 -1h-5h-4h-51v-493h51h4h5t4 -1t4.5 -3.5t2.5 -6.5t1 -10z" />
    <glyph glyph-name="I" unicode="I" horiz-adv-x="370" 
d="M324 75v-54q0 -6 -1 -10t-2.5 -6.5t-4.5 -3.5t-4 -1h-5h-4h-237h-4h-5t-4 1t-4.5 3.5t-2.5 6.5t-1 10v54q0 6 1 10t2.5 6.5t4.5 3.5t4 1h5h4h51v493h-51h-4h-5t-4 1t-4.5 3.5t-2.5 6.5t-1 10v54q0 6 1 10t2.5 6.5t4.5 3.5t4 1h5h4h237h4h5t4 -1t4.5 -3.5t2.5 -6.5t1 -10
v-54q0 -6 -1 -10t-2.5 -6.5t-4.5 -3.5t-4 -1h-5h-4h-51v-493h51h4h5t4 -1t4.5 -3.5t2.5 -6.5t1 -10z" />
    <glyph glyph-name="J" unicode="J" horiz-adv-x="457" 
d="M387 664v-453q0 -117 -44 -170q-48 -58 -144 -58q-103 0 -150 69q-34 50 -34 119v20q0 11 9 11h99h4.5t4.5 -3.5t3 -10.5v-6v-14q0 -34 13 -53q16 -24 48 -24t46 25q10 18 10 76v397h-137h-4h-5t-4 1t-4.5 3.5t-2.5 6.5t-1 10v54q0 6 1 10t2.5 6.5t4.5 3.5t4 1h5h4h251h4
h5t4 -1t4.5 -3.5t2.5 -6.5t1 -10z" />
    <glyph glyph-name="K" unicode="K" horiz-adv-x="630" 
d="M621 75v-54q0 -6 -1 -10t-2.5 -6.5t-4.5 -3.5t-4 -1h-5h-4h-109q-14 0 -22 12l-221 290h-2v-206h48h4h5t4 -1t4.5 -3.5t2.5 -6.5t1 -10v-54q0 -6 -1 -10t-2.5 -6.5t-4.5 -3.5t-4 -1h-5h-4h-234h-4h-5t-4 1t-4.5 3.5t-2.5 6.5t-1 10v54q0 6 1 10t2.5 6.5t4.5 3.5t4 1h5h4
h51v493h-51h-4h-5t-4 1t-4.5 3.5t-2.5 6.5t-1 10v54q0 6 1 10t2.5 6.5t4.5 3.5t4 1h5h4h234h4h5t4 -1t4.5 -3.5t2.5 -6.5t1 -10v-54q0 -6 -1 -10t-2.5 -6.5t-4.5 -3.5t-4 -1h-5h-4h-48v-205h2l212 291q9 10 21 10h107h4h5t4 -1t4.5 -3.5t2.5 -6.5t1 -10v-54q0 -6 -1 -10
t-2.5 -6.5t-4.5 -3.5t-4 -1h-5h-4h-43l-181 -238l206 -255h30h2q7 0 10 -0.5t6 -5.5t3 -15z" />
    <glyph glyph-name="L" unicode="L" horiz-adv-x="537" 
d="M246 108h146l18 78q2 9 4.5 13.5t7.5 3.5l81 -17q17 -3 18 -10v-3l-2 -13l-32 -142q-2 -10 -7 -14t-6 -4h-9h-405h-4h-5t-4 1t-4.5 3.5t-2.5 6.5t-1 10v54q0 6 1 10t2.5 6.5t4.5 3.5t4 1h5h4h51v493h-51h-4h-5t-4 1t-4.5 3.5t-2.5 6.5t-1 10v54q0 6 1 10t2.5 6.5t4.5 3.5
t4 1h5h4h240h4h5t4 -1t4.5 -3.5t2.5 -6.5t1 -10v-54q0 -6 -1 -10t-2.5 -6.5t-4.5 -3.5t-4 -1h-5h-4h-54v-481z" />
    <glyph glyph-name="M" unicode="M" horiz-adv-x="758" 
d="M653 96h46h4h5t4 -1t4.5 -3.5t2.5 -6.5t1 -10v-54q0 -6 -1 -10t-2.5 -6.5t-4.5 -3.5t-4 -1h-5h-4h-205h-4h-5t-4 1t-4.5 3.5t-2.5 6.5t-1 10v54q0 6 1 10t2.5 6.5t4.5 3.5t4 1h5h4h44l-9 424h-2q-12 -81 -35 -157l-58 -195q-5 -18 -17 -17h-5h-66h-5h-4t-3.5 0.5
t-3.5 2.5t-3 5.5t-3 8.5l-58 195q-23 76 -35 157h-2l-9 -424h44h4h5t4 -1t4.5 -3.5t2.5 -6.5t1 -10v-54q0 -6 -1 -10t-2.5 -6.5t-4.5 -3.5t-4 -1h-5h-4h-205h-4h-5t-4 1t-4.5 3.5t-2.5 6.5t-1 10v54q0 6 1 10t2.5 6.5t4.5 3.5t4 1h5h4h46l21 493h-48h-4h-5t-4 1t-4.5 3.5
t-2.5 6.5t-1 10v54q0 6 1 10t2.5 6.5t4.5 3.5t4 1h5h4h169h3h5t3.5 -1t4 -2.5t3.5 -4.5t3 -8l81 -252q20 -67 28 -120h2q8 53 28 120l81 252q1 5 3 8t3.5 4.5t4 2.5t3.5 1h5h3h169h4h5t4 -1t4.5 -3.5t2.5 -6.5t1 -10v-54q0 -6 -1 -10t-2.5 -6.5t-4.5 -3.5t-4 -1h-5h-4h-48z
" />
    <glyph glyph-name="N" unicode="N" horiz-adv-x="671" 
d="M577 589v-568v-4v-4.5t-0.5 -3.5t-2 -4t-4 -2.5t-6 -2t-8.5 -0.5h-66q-19 0 -23 14l-184 341q-32 60 -59 136h-2q1 -29 2.5 -54t2 -36t0.5 -20v-285h50h4h5t4 -1t4.5 -3.5t2.5 -6.5t1 -10v-54q0 -6 -1 -10t-2.5 -6.5t-4.5 -3.5t-4 -1h-5h-4h-216h-4h-5t-4 1t-4.5 3.5
t-2.5 6.5t-1 10v54q0 6 1 10t2.5 6.5t4.5 3.5t4 1h5h4h51v493h-51h-4h-5t-4 1t-4.5 3.5t-2.5 6.5t-1 10v54q0 6 1 10t2.5 6.5t4.5 3.5t4 1h5h4h154q5 0 8.5 -0.5t5.5 -1t3.5 -2t2 -2.5t2 -3.5t1.5 -3.5l166 -310q36 -66 60 -145h2q-4 113 -4 130v242h-50h-4h-5t-4 1
t-4.5 3.5t-2.5 6.5t-1 10v54q0 6 1 10t2.5 6.5t4.5 3.5t4 1h5h4h216h4h5t4 -1t4.5 -3.5t2.5 -6.5t1 -10v-54q0 -6 -1 -10t-2.5 -6.5t-4.5 -3.5t-4 -1h-5h-4h-51z" />
    <glyph glyph-name="O" unicode="O" horiz-adv-x="593" 
d="M296 -17q-50 0 -90.5 16.5t-66 41.5t-44 61.5t-27.5 67.5t-14 70t-6 59t-1 43t1 43.5t6 59.5t14 70t27.5 67.5t44 61.5t66 41.5t90.5 16.5t90.5 -17t66 -41.5t44 -61.5t27.5 -68.5t14 -70t6 -59t1 -42.5q0 -23 -1 -43t-6 -59t-14 -70t-27.5 -67.5t-44 -61.5t-66 -41.5
t-90.5 -16.5zM296 88q107 0 107 254q0 255 -107 255t-107 -255q0 -254 107 -254z" />
    <glyph glyph-name="P" unicode="P" horiz-adv-x="556" 
d="M334 75v-54q0 -6 -1 -10t-2.5 -6.5t-4.5 -3.5t-4 -1h-5h-4h-252h-4h-5t-4 1t-4.5 3.5t-2.5 6.5t-1 10v54q0 6 1 10t2.5 6.5t4.5 3.5t4 1h5h4h51v493h-51h-4h-5t-4 1t-4.5 3.5t-2.5 6.5t-1 10v54q0 6 1 10t2.5 6.5t4.5 3.5t4 1h5h4h234q25 0 37.5 -0.5t41.5 -3.5
t45.5 -9.5t40 -20.5t36.5 -33.5t22.5 -50.5t9.5 -70q0 -101 -62.5 -162t-165.5 -61h-53v-178h66h4h5t4 -1t4.5 -3.5t2.5 -6.5t1 -10zM247 379h31q25 0 41.5 3t35.5 13.5t28.5 34t9.5 60.5q0 31 -8 50.5t-26 27.5t-32 10t-39 2h-41v-201z" />
    <glyph glyph-name="Q" unicode="Q" horiz-adv-x="593" 
d="M472 64l40 -30q58 -43 61 -51q2 -5 -3 -9l-77 -55q-20 -15 -105 71l-7 7q-35 -14 -81 -14q-119 0 -185 88q-68 90 -68 271q0 93 17 164t66 126q63 70 166 70q108 0 170 -73q79 -92 79 -287q0 -110 -24 -185q-15 -50 -49 -93zM296 88q9 0 20 2.5t30 18t31 42.5
q26 64 26 191q0 132 -28 194q-27 61 -79 61q-23 0 -44 -15.5t-34 -43.5q-29 -63 -29 -196q0 -143 32 -204q26 -50 75 -50z" />
    <glyph glyph-name="R" unicode="R" horiz-adv-x="605" 
d="M603 75v-54q0 -6 -1 -10t-2.5 -6.5t-4.5 -3.5t-4 -1h-5h-4h-128q-16 0 -22 13l-136 270h-48v-187h47h4h5t4 -1t4.5 -3.5t2.5 -6.5t1 -10v-54q0 -6 -1 -10t-2.5 -6.5t-4.5 -3.5t-4 -1h-5h-4h-233h-4h-5t-4 1t-4.5 3.5t-2.5 6.5t-1 10v54q0 6 1 10t2.5 6.5t4.5 3.5t4 1h5h4
h51v493h-51h-4h-5t-4 1t-4.5 3.5t-2.5 6.5t-1 10v54q0 6 1 10t2.5 6.5t4.5 3.5t4 1h5h4h234q63 0 103.5 -10.5t73.5 -39.5q56 -50 56 -143q0 -77 -31 -121q-29 -43 -73 -60l-10 -4l121 -211h46h4h5t4 -1t4.5 -3.5t2.5 -6.5t1 -10zM248 388h26q68 0 95 26q25 25 25 76
q0 46 -24 69q-23 21 -85 21h-37v-192z" />
    <glyph glyph-name="S" unicode="S" 
d="M339 501v80l-8 3q-26 10 -59 10q-50 0 -72 -22.5t-22 -55.5q0 -9 1.5 -17t6 -15t7.5 -12t11.5 -11.5t12 -9.5t15.5 -9.5t16 -8.5t18.5 -8.5t18.5 -8.5q68 -32 98 -55q86 -63 86 -167q0 -90 -57 -149q-60 -62 -165 -62q-54 0 -127 18t-73 50v151q0 14 8 16q4 1 9 1h74
q8 0 12 -2t4.5 -4.5t0.5 -7.5v-3v-91l12 -5q35 -15 82 -15q90 0 90 92q0 41 -25 64t-91 52q-105 48 -136 82q-39 42 -39 117q0 95 58.5 149.5t161.5 54.5q69 0 124 -20.5t55 -45.5v-135q0 -8 -3 -12t-5.5 -4.5t-6.5 -0.5h-2h-74q-8 0 -12 2t-4.5 4.5t-0.5 7.5v3z" />
    <glyph glyph-name="T" unicode="T" horiz-adv-x="519" 
d="M414 75v-54q0 -6 -1 -10t-2.5 -6.5t-4.5 -3.5t-4 -1h-5h-4h-267h-4h-5t-4 1t-4.5 3.5t-2.5 6.5t-1 10v54q0 6 1 10t2.5 6.5t4.5 3.5t4 1h5h4h66v481h-73v-96q0 -8 -3 -12t-5.5 -4.5t-6.5 -0.5h-2h-59q-8 0 -12 2t-4.5 4.5t-0.5 7.5v3v187v3.5v3.5t0.5 3t1.5 3t3 2t5 1.5
t7 0.5h433q14 0 16 -8q1 -4 1 -9v-187q0 -8 -3 -12t-5.5 -4.5t-6.5 -0.5h-2h-59q-8 0 -12 2t-4.5 4.5t-0.5 7.5v3v96h-73v-481h66h4h5t4 -1t4.5 -3.5t2.5 -6.5t1 -10z" />
    <glyph glyph-name="U" unicode="U" horiz-adv-x="685" 
d="M584 589v-357q0 -142 -75 -204q-56 -45 -166 -45t-166 45q-75 61 -75 204v357h-51h-4h-5t-4 1t-4.5 3.5t-2.5 6.5t-1 10v54q0 6 1 10t2.5 6.5t4.5 3.5t4 1h5h4h236h4h5t4 -1t4.5 -3.5t2.5 -6.5t1 -10v-54q0 -6 -1 -10t-2.5 -6.5t-4.5 -3.5t-4 -1h-5h-4h-50v-357
q0 -89 31 -118q25 -23 75 -23q36 0 59 12.5t32.5 36.5t12 43t2.5 49v357h-50h-4h-5t-4 1t-4.5 3.5t-2.5 6.5t-1 10v54q0 6 1 10t2.5 6.5t4.5 3.5t4 1h5h4h236h4h5t4 -1t4.5 -3.5t2.5 -6.5t1 -10v-54q0 -6 -1 -10t-2.5 -6.5t-4.5 -3.5t-4 -1h-5h-4h-51z" />
    <glyph glyph-name="V" unicode="V" horiz-adv-x="601" 
d="M542 589l-165 -589q-5 -18 -17 -17h-5h-114h-5h-4t-3.5 0.5t-3.5 2.5t-3 5.5t-3 8.5l-160 589h-39h-3.5h-3.5t-3 0.5t-3 1.5t-2 3t-1.5 5t-0.5 7v62v3.5v3.5t0.5 3t1.5 3t3 2t5 1.5t7 0.5h146q12 0 14 -4q2 -3 4 -10l88 -399q15 -76 25 -153h2q16 95 30 153l98 399
q1 5 2.5 8t3 4.5t3.5 1.5h5h4h136h3.5h3.5t3 -0.5t3 -1.5t2 -3t1.5 -5t0.5 -7v-62q0 -8 -2 -12t-4.5 -4.5t-7.5 -0.5h-3h-39z" />
    <glyph glyph-name="W" unicode="W" horiz-adv-x="852" 
d="M781 589l-134 -588q-4 -18 -22 -18h-86h-5.5h-4.5t-3.5 1t-3.5 2.5t-2.5 5.5t-2.5 9l-66 344q-14 73 -23 173h-2q-7 -94 -25 -173l-81 -344q-1 -6 -2.5 -9t-2 -5t-3 -3t-3.5 -1h-5h-6h-86q-18 0 -22 18l-119 588h-37h-3.5h-3.5t-3 0.5t-3 1.5t-2 3t-1.5 5t-0.5 7v62
q0 8 3 12t5.5 4.5t6.5 0.5h2h131q6 0 9 -0.5t5 -2.5t2.5 -3t1 -4.5t0.5 -4.5l60 -320q9 -52 22 -189h2q10 89 32 189l72 317q1 7 3 11t6 5.5t6.5 1.5h10.5h72q7 0 9.5 -0.5t6.5 -5t6 -15.5l70 -314q13 -59 28 -189h2q11 127 23 189l60 320v2q1 3 1 4t1.5 3t3 3t5 2t7.5 1
h126q14 0 16 -8q1 -4 1 -9v-62q0 -8 -2 -12t-4.5 -4.5t-7.5 -0.5h-3h-37z" />
    <glyph glyph-name="X" unicode="X" horiz-adv-x="611" 
d="M597 79v-62v-3.5v-3.5t-0.5 -3t-1.5 -3t-3 -2t-5 -1.5t-7 -0.5h-135q-2 0 -5.5 -0.5t-5 0t-4.5 3.5t-7 10l-90 167q-18 34 -28 70h-2q-7 -31 -28 -70l-90 -167q-7 -13 -22 -13h-135q-8 0 -12 2t-4.5 4.5t-0.5 7.5v3v62v3.5v3.5t0.5 3t1.5 3t3 2t5 1.5t7 0.5h53l152 267
l-134 226h-55h-3.5h-3.5t-3 0.5t-3 1.5t-2 3t-1.5 5t-0.5 7v62v3.5v3.5t0.5 3t1.5 3t3 2t5 1.5t7 0.5h138h4q10 1 18 -14l71 -137q4 -7 28 -78h2q14 52 28 78l71 137q2 4 3.5 6.5t3 4t2.5 2t2.5 1t2.5 0.5h3.5h4.5h138h3.5h3.5t3 -0.5t3 -1.5t2 -3t1.5 -5t0.5 -7v-62
q0 -8 -2 -12t-4.5 -4.5t-7.5 -0.5h-3h-55l-134 -226l152 -267h53h3.5h3.5t3 -0.5t3 -1.5t2 -3t1.5 -5t0.5 -7z" />
    <glyph glyph-name="Y" unicode="Y" horiz-adv-x="547" 
d="M430 75v-54q0 -6 -1 -10t-2.5 -6.5t-4.5 -3.5t-4 -1h-5h-4h-271h-4h-5t-4 1t-4.5 3.5t-2.5 6.5t-1 10v54q0 6 1 10t2.5 6.5t4.5 3.5t4 1h5h4h68v185l-159 308h-26h-3.5h-3.5t-3 0.5t-3 1.5t-2 3t-1.5 5t-0.5 7v62v3.5v3.5t0.5 3t1.5 3t3 2t5 1.5t7 0.5h114q15 0 22 -13
l78 -162q26 -51 41 -114h2l5 17q22 74 34 97l78 162l3.5 7t3 4t3.5 1.5t3 0.5h4h5h109h3.5h3.5t3 -0.5t3 -1.5t2 -3t1.5 -5t0.5 -7v-62q0 -8 -2 -12t-4.5 -4.5t-7.5 -0.5h-3h-32l-153 -308v-185h68h4h5t4 -1t4.5 -3.5t2.5 -6.5t1 -10z" />
    <glyph glyph-name="Z" unicode="Z" horiz-adv-x="519" 
d="M187 108h179l18 80q3 14 10 15.5t13 -2.5l73 -16q17 -3 12 -24l-32 -143q-2 -10 -6 -14t-5 -4h-11h-377q-8 0 -12 2t-4.5 4.5t-0.5 7.5v3v83l279 477h-161v-80q0 -8 -3 -12t-5.5 -4.5t-6.5 -0.5h-2h-74q-8 0 -12 2t-4.5 4.5t-0.5 7.5v3v171q0 8 2 12t4.5 4.5t7.5 0.5h3
h370q11 0 16 -4t5 -6v-10v-90z" />
    <glyph glyph-name="bracketleft" unicode="[" horiz-adv-x="444" 
d="M387 -118v-63v-4v-4.5t-0.5 -3.5t-2 -4t-4 -2.5t-6 -2t-8.5 -0.5h-195h-4h-4.5t-3.5 0.5t-4 2t-2.5 4t-2 6t-0.5 8.5v877q0 11 4 16t6 5h11h195h4h4.5t3.5 -0.5t4 -2t2.5 -4t2 -6t0.5 -8.5v-63v-4v-4.5t-0.5 -3.5t-2 -4t-4 -2.5t-6 -2t-8.5 -0.5h-89v-709h89q11 0 16 -4
t5 -6v-11z" />
    <glyph glyph-name="backslash" unicode="\" horiz-adv-x="444" 
d="M143 706l326 -891q3 -7 3 -15q0 -9 -4.5 -10.5t-15.5 -1.5h-58q-21 0 -27 19l-325 889q-3 9 -3 16q0 12 18 12h59q21 0 27 -18z" />
    <glyph glyph-name="bracketright" unicode="]" horiz-adv-x="444" 
d="M294 696v-877v-4v-4.5t-0.5 -3.5t-2 -4t-4 -2.5t-6 -2t-8.5 -0.5h-195h-4h-4.5t-3.5 0.5t-4 2t-2.5 4t-2 6t-0.5 8.5v63v4v4.5t0.5 3.5t2 4t4 2.5t6 2t8.5 0.5h89v709h-89h-4h-4.5t-3.5 0.5t-4 2t-2.5 4t-2 6t-0.5 8.5v63q0 11 4 16t6 5h11h195q11 0 16 -4t5 -6v-11z" />
    <glyph glyph-name="asciicircum" unicode="^" horiz-adv-x="554" 
d="M452 336l-60 -13q-3 -1 -9 -1q-9 0 -12 7l-94 237l-94 -237q-5 -9 -21 -6l-60 13q-8 2 -9 7v3q0 2 4 11l131 319q4 9 13 9h72q9 0 13 -9l131 -319q4 -9 4 -13q0 -6 -9 -8z" />
    <glyph glyph-name="underscore" unicode="_" 
d="M500 -75v-50h-500v50h500z" />
    <glyph glyph-name="grave" unicode="`" horiz-adv-x="335" 
d="M213 567l-178 71q-16 5 -16 13q0 6 4 12l33 65q7 12 13 12q5 0 11 -4l166 -98q13 -8 13 -14q0 -4 -4 -12l-17 -34q-6 -13 -13 -14h-4q-2 0 -4.5 1.5t-3.5 1.5z" />
    <glyph glyph-name="a" unicode="a" 
d="M488 79v-65v-2q0 -4 -0.5 -6t-3.5 -4t-10 -2h-125q-22 0 -29 37q0 1 -0.5 3t-0.5 3q-31 -32 -60.5 -46t-68.5 -14q-62 0 -106 38.5t-44 115.5q0 90 64 129.5t183 39.5h14v31q0 12 -0.5 18.5t-3.5 19t-9 19t-19 12t-31 5.5q-47 0 -101 -20q-28 -10 -31 -10q-8 0 -10 10
l-20 61q-5 5 -2.5 15t22.5 17q71 27 164 27q161 0 161 -161v-173q0 -44 9 -80l1 -4h43q14 0 14 -14zM301 114v110h-6q-69 0 -99 -17q-36 -22 -36 -63q0 -30 18.5 -49t47.5 -19q35 0 75 38z" />
    <glyph glyph-name="b" unicode="b" horiz-adv-x="551" 
d="M211 703v-236l13 9q50 35 109 35q176 0 176 -253q0 -78 -19.5 -135t-52 -86t-65.5 -41.5t-69 -12.5q-64 0 -103 39l-5 5l-3 -8q-11 -29 -20 -34.5t-20 0.5l-80 20q-10 3 -10 8v2q1 5 7 14t10.5 32t4.5 66v497h-50h-6t-5 3.5t-3 10.5v65q0 7 3 10.5t5 3.5h6h163
q10 0 12 -3t2 -9v-2zM211 377v-273q28 -21 63 -21q108 0 108 170q0 31 -2.5 54t-11 49t-28 40.5t-49.5 14.5q-38 0 -75 -30z" />
    <glyph glyph-name="c" unicode="c" horiz-adv-x="426" 
d="M373 100l26 -66q0 -1 1.5 -4.5t1.5 -5.5q0 -16 -47.5 -28.5t-92.5 -12.5q-51 0 -90 14t-62 38.5t-38.5 50.5t-21.5 58t-8 52t-2 41q0 65 16 115.5t40.5 79.5t57 47.5t62 25t60.5 6.5q39 0 81 -11.5t42 -31.5v-135q0 -7 -3 -10.5t-5 -3.5h-6h-72h-6t-5 3.5t-3 10.5v74
q-13 4 -28 4q-96 0 -96 -167q0 -25 0.5 -39t6 -40.5t15.5 -41.5t30.5 -27.5t50.5 -12.5q32 0 73 17q13 5 15 5q7 0 7 -5z" />
    <glyph glyph-name="d" unicode="d" horiz-adv-x="556" 
d="M531 79v-65v-2q0 -4 -0.5 -6t-3.5 -4t-10 -2h-134q-19 0 -25 21l-4 16l-7 -6q-56 -48 -134 -48q-45 0 -79 19.5t-51 45.5t-27 63t-12 62.5t-2 53.5q0 151 58 223q49 61 134 61q43 0 97 -27l5 -3v143h-51h-6t-5 3.5t-3 10.5v65q0 7 3 10.5t5 3.5h6h164q10 0 12 -3t2 -9v-2
v-526q0 -59 10 -84h44q10 0 12 -3t2 -9v-2zM336 118v273l-4 2q-39 18 -70 18q-49 0 -71 -39t-22 -128q0 -105 26 -137q21 -24 58 -24q46 0 83 35z" />
    <glyph glyph-name="e" unicode="e" 
d="M439 213h-269q0 -125 110 -125q51 0 100 23q2 1 5.5 2.5t5.5 2.5q12 5 16 5q8 0 11 -8l25 -59q3 -9 3 -11q0 -9 -16 -20q-62 -40 -160 -40q-105 0 -162 58q-65 67 -65 193q0 132 66 208q60 69 153 69q27 0 51 -5t52.5 -22t49 -45t34 -78t13.5 -116q0 -20 -4 -26t-19 -6z
M170 306h157v10q0 24 -4 41q-6 27 -22 43q-20 18 -48 18q-35 0 -57 -27q-21 -27 -26 -85z" />
    <glyph glyph-name="f" unicode="f" horiz-adv-x="376" 
d="M246 401v-308h75q10 0 12 -3t2 -9v-2v-65v-2q0 -4 -0.5 -6t-3.5 -4t-10 -2h-270h-6t-5 3.5t-3 10.5v65q0 14 14 14h68v308h-78h-6t-5 3.5t-3 10.5v65q0 14 14 14h78v41q0 93 40 141q38 48 120 48q55 0 100 -18q25 -10 20 -27l-18 -70q-3 -10 -9 -10q-4 0 -13 4
q-34 13 -59 13q-31 0 -44 -21q-10 -15 -10 -60v-41h114q10 0 14 -3t3 -7l-1 -7l-1 -3l-14 -59q-4 -14 -19 -14h-96z" />
    <glyph glyph-name="g" unicode="g" horiz-adv-x="532" 
d="M462 343v-149l5 -225q1 -36 -9 -69q-11 -33 -34 -59q-47 -53 -148 -53q-96 0 -179 32q-27 10 -30 21v7q1 4 4 13l19 61q3 10 12 10q5 0 15 -5q60 -34 142 -34q17 0 28 2t25 9.5t20.5 26t5.5 47.5l-2 42l-1 24q-47 -38 -114 -38q-82 0 -130.5 62.5t-48.5 181.5
q0 73 18.5 127t49.5 81.5t63 40t66 12.5q40 0 62 -10t57 -37q8 24 18 35.5t16 10.5t11 -1l78 -29q9 -3 9 -9q0 -1 -6 -17q-22 -63 -22 -111zM335 140v236q-18 14 -24 18t-19 8t-29 4q-86 0 -86 -152q0 -148 80 -148q18 0 40.5 9t37.5 25z" />
    <glyph glyph-name="h" unicode="h" horiz-adv-x="593" 
d="M559 79v-65v-2q0 -4 -0.5 -6t-3.5 -4t-10 -2h-164h-6t-5 3.5t-3 10.5v308q0 41 -10 58q-14 26 -47 26q-41 0 -85 -42v-271h51q10 0 12 -3t2 -9v-2v-65v-2q0 -4 -0.5 -6t-3.5 -4t-10 -2h-229h-6t-5 3.5t-3 10.5v65q0 14 14 14h51v531h-50h-6t-5 3.5t-3 10.5v65q0 7 3 10.5
t5 3.5h6h163q10 0 12 -3t2 -9v-2v-249q63 57 139 57q43 0 71.5 -15.5t40 -43t15 -49t3.5 -50.5v-260h51q10 0 12 -3t2 -9v-2z" />
    <glyph glyph-name="i" unicode="i" horiz-adv-x="333" 
d="M313 79v-65v-2q0 -4 -0.5 -6t-3.5 -4t-10 -2h-255h-6t-5 3.5t-3 10.5v65q0 14 14 14h64v308h-65h-6t-5 3.5t-3 10.5v65q0 14 14 14h178q10 0 12 -3t2 -9v-2v-387h64q10 0 12 -3t2 -9v-2zM253 642q0 -35 -24 -59t-58 -24q-35 0 -59 24.5t-24 58.5t24 58t59 24t58.5 -24
t23.5 -58z" />
    <glyph glyph-name="j" unicode="j" horiz-adv-x="288" 
d="M226 480v-486q0 -118 -30 -166q-38 -63 -141 -63q-46 0 -91 14q-22 6 -17 24l22 75q3 10 20 3q27 -11 51 -11q40 0 51 36q8 24 8 68v427h-78h-6t-5 3.5t-3 10.5v65q0 7 3 10.5t5 3.5h6h191q10 0 12 -3t2 -9v-2zM243 642q0 -35 -24 -59t-58 -24q-35 0 -59 24.5t-24 58.5
t24 58t59 24t58.5 -24t23.5 -58z" />
    <glyph glyph-name="k" unicode="k" horiz-adv-x="578" 
d="M560 79v-65v-2q0 -4 -0.5 -6t-3.5 -4t-10 -2h-124q-11 0 -14 4q-2 2 -5 6l-174 234v-151h51q10 0 12 -3t2 -9v-2v-65v-2q0 -4 -0.5 -6t-3.5 -4t-10 -2h-229h-6t-5 3.5t-3 10.5v65q0 14 14 14h51v531h-50h-6t-5 3.5t-3 10.5v65q0 7 3 10.5t5 3.5h6h163q10 0 12 -3t2 -9v-2
v-406l125 104h-41h-6t-5 3.5t-3 10.5v65q0 7 3 10.5t5 3.5h6h221q10 0 12 -3t2 -9v-2v-65v-2q0 -4 -0.5 -6t-3.5 -4t-10 -2h-52l-141 -120l156 -188h49q10 0 12 -3t2 -9v-2z" />
    <glyph glyph-name="l" unicode="l" horiz-adv-x="305" 
d="M284 101l20 -82q1 -3 1 -8q0 -13 -35 -20.5t-62 -7.5q-26 0 -46.5 6t-33.5 14.5t-22.5 25t-14 29.5t-6.5 37.5t-2.5 38.5t-0.5 42v448h-50h-6t-5 3.5t-3 10.5v65q0 7 3 10.5t5 3.5h6h163q10 0 12 -3t2 -9v-2v-545q0 -17 0.5 -22t2.5 -17t8 -16.5t17 -4.5q14 0 30 6
q15 7 17 -3z" />
    <glyph glyph-name="m" unicode="m" horiz-adv-x="840" 
d="M235 93h51q10 0 12 -3t2 -9v-2v-65v-2q0 -4 -0.5 -6t-3.5 -4t-10 -2h-229h-6t-5 3.5t-3 10.5v65q0 14 14 14h51v223q0 57 -10 85h-48q-14 0 -14 14v65q0 14 14 14h139q13 0 19 -11.5t13 -40.5q48 39 71 50q40 19 79 19q38 0 66 -18.5t39 -50.5q66 69 153 69
q31 0 53.5 -11t34.5 -26.5t18.5 -39.5t8 -41t1.5 -40v-260h51q10 0 12 -3t2 -9v-2v-65v-2q0 -4 -0.5 -6t-3.5 -4t-10 -2h-164h-6t-5 3.5t-3 10.5v308q0 50 -14 69q-12 15 -33 15q-34 0 -81 -41v-272h51q10 0 12 -3t2 -9v-2v-65v-2q0 -4 -0.5 -6t-3.5 -4t-10 -2h-164h-6
t-5 3.5t-3 10.5v308q0 50 -14 69q-12 15 -33 15q-34 0 -81 -41v-272z" />
    <glyph glyph-name="n" unicode="n" horiz-adv-x="599" 
d="M569 79v-65v-2q0 -4 -0.5 -6t-3.5 -4t-10 -2h-164h-6t-5 3.5t-3 10.5v308q0 43 -12 61q-15 23 -44 23q-45 0 -86 -41v-272h51q10 0 12 -3t2 -9v-2v-65v-2q0 -4 -0.5 -6t-3.5 -4t-10 -2h-229h-6t-5 3.5t-3 10.5v65q0 14 14 14h51v223q0 60 -10 85h-48q-14 0 -14 14v65
q0 14 14 14h139q17 0 26 -33q1 -3 2 -5l4 -14l6 5q25 21 37.5 30.5t43.5 21.5t66 12q69 0 102 -43q28 -38 28 -115v-260h51q10 0 12 -3t2 -9v-2z" />
    <glyph glyph-name="o" unicode="o" horiz-adv-x="519" 
d="M259 -17q-91 0 -154 66t-63 198t63 198t154 66t154 -66t63 -198t-63 -198t-154 -66zM259 83q44 0 64 38q18 36 18 120q0 98 -21 135q-20 35 -61 35q-42 0 -64 -41q-18 -35 -18 -126q0 -93 20 -127t62 -34z" />
    <glyph glyph-name="p" unicode="p" horiz-adv-x="556" 
d="M290 -123v-65v-2q0 -4 -0.5 -6t-3.5 -4t-10 -2h-229q-14 0 -14 14v65q0 14 14 14h51v423v29q0 46 -10 58h-47h-6t-5 3.5t-3 10.5v65q0 14 14 14h139q3 0 6 -0.5t5 -1.5t4 -2.5t3 -3t2 -4t1.5 -4t1.5 -5t1 -4.5l3 -9l7 5q65 46 128 46q31 0 58 -10.5t54 -36.5t43 -79.5
t16 -128.5q0 -155 -56 -220q-46 -53 -132 -53q-51 0 -100 26v-118h51q10 0 12 -3t2 -9v-2zM225 373v-271q0 -7 26.5 -13t46.5 -6q40 0 61 25q27 32 27 141q0 31 -2 52.5t-8.5 50t-24.5 44t-46 15.5q-33 0 -80 -38z" />
    <glyph glyph-name="q" unicode="q" horiz-adv-x="543" 
d="M523 -123v-65v-2q0 -4 -0.5 -6t-3.5 -4t-10 -2h-229q-14 0 -14 14v65q0 14 14 14h51v118l-8 -5q-31 -21 -96 -21q-46 0 -80 16t-53.5 41.5t-31.5 63t-15.5 73t-3.5 79.5q0 142 58 206q45 49 115 49q54 0 98 -25q18 -10 35 -26q6 23 17 37t20 14q3 0 15 -3l74 -25
q12 -4 12 -15q0 -3 -2 -7t-5.5 -10.5t-5.5 -12.5q-16 -38 -16 -124v-423h51q10 0 12 -3t2 -9v-2zM331 102v271q-34 33 -78 33q-40 0 -60 -32q-23 -34 -23 -123q0 -99 20 -133.5t68 -34.5q43 0 73 19z" />
    <glyph glyph-name="r" unicode="r" horiz-adv-x="401" 
d="M303 79v-65v-2q0 -4 -0.5 -6t-3.5 -4t-10 -2h-232h-6t-5 3.5t-3 10.5v65q0 14 14 14h51v223q0 50 -8 78l-2 7h-48h-6t-5 3.5t-3 10.5v65q0 14 14 14h130q23 0 34 -49l3 -13l6 8q53 71 118 71q25 0 43.5 -8t12.5 -25l-31 -84q-3 -9 -6 -9q-4 0 -10 3q-15 8 -37 8
q-32 0 -78 -48v-255h54q10 0 12 -3t2 -9v-2z" />
    <glyph glyph-name="s" unicode="s" horiz-adv-x="426" 
d="M267 362v49q-22 4 -40 4q-21 0 -35 -6t-19.5 -15t-7.5 -15.5t-2 -13.5q0 -29 35 -45q4 -2 66 -25q65 -23 96 -61q31 -39 31 -90q0 -69 -45 -114q-47 -47 -127 -47q-46 0 -111 16.5t-65 41.5v109q0 7 3 10.5t5 3.5h6h68q14 0 14 -15v-3v-49q44 -14 71 -14q35 0 48 15.5
t13 34.5q0 20 -10 30.5t-29 18.5q-5 2 -72 27q-53 21 -79 48q-33 36 -33 90q0 68 47 115q49 49 140 49q37 0 82.5 -12t45.5 -34v-103q0 -10 -2.5 -12t-8.5 -2h-2h-69h-6t-5 3.5t-3 10.5z" />
    <glyph glyph-name="t" unicode="t" horiz-adv-x="370" 
d="M338 111l20 -82q2 -6 2 -8q0 -10 -18 -17q-52 -21 -116 -21q-40 0 -69.5 11t-48.5 46q-18 34 -18 136v225h-71h-6t-5 3.5t-3 10.5v65q0 7 3 10.5t5 3.5h6h71v126q0 14 9 16q3 2 7 2l88 12q11 3 17 1t6 -17v-140h114q18 0 18 -10q0 -2 -2 -10l-14 -59q-4 -14 -19 -14h-97
v-242q0 -34 7 -46q9 -15 33 -15q17 0 53 13q14 6 20 6t8 -6z" />
    <glyph glyph-name="u" unicode="u" horiz-adv-x="586" 
d="M554 79v-65v-2q0 -4 -0.5 -6t-3.5 -4t-10 -2h-133q-20 0 -29 35l-3 12l-12 -11q-24 -21 -38 -29q-43 -24 -99 -24q-81 0 -113 54q-21 35 -21 104v260h-51h-6t-5 3.5t-3 10.5v65q0 14 14 14h164q10 0 12 -3t2 -9v-2v-308q0 -43 9 -61q13 -28 49 -28q43 0 84 41v277h-51h-6
t-5 3.5t-3 10.5v65q0 14 14 14h164q10 0 12 -3t2 -9v-2v-302q0 -60 10 -85h42h2q4 0 6 -0.5t4 -3.5t2 -10z" />
    <glyph glyph-name="v" unicode="v" horiz-adv-x="496" 
d="M451 401l-142 -405q0 -1 -1 -4t-1.5 -4t-2.5 -2.5t-5.5 -2t-8.5 -0.5h-82q-5 0 -8.5 0.5t-5.5 2t-2.5 2.5t-1.5 4t-1 4l-140 405h-33h-6t-5 3.5t-3 10.5v65q0 7 3 10.5t5 3.5h6h125q14 0 18 -14l62 -222q23 -83 32 -145h2q16 90 34 145l68 222q4 14 18 14h110q10 0 12 -3
t2 -9v-2v-65v-2q0 -4 -0.5 -6t-3.5 -4t-10 -2h-34z" />
    <glyph glyph-name="w" unicode="w" horiz-adv-x="715" 
d="M659 401l-121 -404q-1 -4 -2.5 -7t-2.5 -4.5t-3 -2t-3 -0.5h-4h-4h-78q-15 0 -18 16l-49 262q-2 11 -13 112h-2q-8 -72 -18 -112l-60 -262q-3 -16 -18 -16h-78q-13 0 -16 6q-2 3 -3 8l-105 404h-32h-6t-5 3.5t-3 10.5v65q0 7 3 10.5t5 3.5h6h120h2q5 0 7 -0.5t4.5 -4
t4.5 -10.5l44 -212q13 -65 22 -169h2q2 71 19 156l46 224q1 5 2 8l1.5 4.5t3 2.5t3 1h4.5h5h89h4q5 0 7 -0.5t4 -4t4 -11.5l44 -224q17 -87 19 -156h2q10 118 22 169l49 212q2 7 4.5 10.5t4.5 4t7 0.5h2h110q10 0 12 -3t2 -9v-2v-65v-2q0 -4 -0.5 -6t-3.5 -4t-10 -2h-32z
" />
    <glyph glyph-name="x" unicode="x" horiz-adv-x="519" 
d="M184 249l-109 152h-34h-6t-5 3.5t-3 10.5v65q0 14 14 14h98q16 0 22 -12l58 -84q7 -10 39 -62q12 22 39 62l58 84q6 12 22 12h98q10 0 12 -3t2 -9v-2v-65v-2q0 -4 -0.5 -6t-3.5 -4t-10 -2h-34l-109 -152l109 -156h38q10 0 12 -3t2 -9v-2v-65v-2q0 -4 -0.5 -6t-3.5 -4
t-10 -2h-101q-17 0 -22 12l-98 150l-98 -150q-5 -12 -22 -12h-101h-6t-5 3.5t-3 10.5v65q0 14 14 14h38z" />
    <glyph glyph-name="y" unicode="y" horiz-adv-x="516" 
d="M463 401l-98 -363q-2 -9 -14.5 -51t-13.5 -45q-27 -88 -63 -119q-39 -35 -106 -35q-32 0 -70.5 10t-56.5 24q-4 3 -6.5 6t-2.5 5.5v4t2 4.5t2 4l30 65q4 7 9 7q2 0 4 -0.5t4 -1.5t4.5 -2.5t5.5 -2.5l14 -6q29 -12 53 -12q26 0 43 12.5t23.5 25.5t13.5 36l10 33h-42
q-12 0 -15 7q-2 2 -3 6l-134 388h-32h-6t-5 3.5t-3 10.5v65q0 7 3 10.5t5 3.5h6h126h4h3.5t2.5 -0.5t3 -2.5l2.5 -5t2.5 -7l64 -238q18 -65 38 -173h2q19 113 33 173l54 238q1 4 2.5 7t2.5 4.5t3 2.5t3 1h3.5h3.5h121h2q4 0 6 -0.5t4 -3.5t2 -10v-65v-2q0 -4 -0.5 -6
t-3.5 -4t-10 -2h-35z" />
    <glyph glyph-name="z" unicode="z" horiz-adv-x="462" 
d="M328 105l22 53q2 8 7 8q7 0 14 -3l62 -27q9 -4 9 -11q0 -1 -3 -10l-43 -102q-4 -13 -19 -13h-327q-10 0 -10 10v75l231 304h-110v-40q0 -13 -7 -13h-86q-7 0 -7 13v131q0 14 14 14h317q6 0 11.5 -3.5t5.5 -6.5v-78l-226 -301h145z" />
    <glyph glyph-name="braceleft" unicode="{" horiz-adv-x="444" 
d="M224 257q46 -20 59.5 -48t13.5 -72v-164q0 -38 16 -54q5 -5 10.5 -8.5t12 -5t10.5 -2t12 -0.5h10q20 -1 20 -16v-75q0 -14 -18 -14h-13q-87 0 -137 45q-31 28 -40.5 61t-9.5 78v150q0 44 -18.5 58t-49.5 14h-18q-20 0 -20 15v76q0 15 20 15h18q31 0 49.5 14t18.5 58v150
q0 45 9.5 78t40.5 61q50 45 137 45h13q18 0 18 -14v-75q0 -15 -20 -16h-10t-12 -0.5t-10.5 -2t-12 -5t-10.5 -8.5q-16 -16 -16 -54v-164q0 -44 -13.5 -72t-59.5 -48z" />
    <glyph glyph-name="bar" unicode="|" horiz-adv-x="400" 
d="M250 737v-974q0 -13 -12 -13h-75q-13 0 -13 12v975q3 12 14 13h73q13 0 13 -13z" />
    <glyph glyph-name="braceright" unicode="}" horiz-adv-x="444" 
d="M228 257q-46 20 -59.5 48t-13.5 72v164q0 38 -16 54q-5 5 -10.5 8.5t-12 5t-10.5 2t-12 0.5h-10q-20 1 -20 16v75q0 14 18 14h13q87 0 137 -45q31 -28 40.5 -61t9.5 -78v-150q0 -44 18.5 -58t49.5 -14h18q20 0 20 -15v-76q0 -15 -20 -15h-18q-31 0 -49.5 -14t-18.5 -58
v-150q0 -45 -9.5 -78t-40.5 -61q-50 -45 -137 -45h-13q-18 0 -18 14v75q0 15 20 16h10t12 0.5t10.5 2t12 5t10.5 8.5q16 16 16 54v164q0 44 13.5 72t59.5 48z" />
    <glyph glyph-name="asciitilde" unicode="~" horiz-adv-x="541" 
d="M455 324l48 -22q13 -5 13 -14q0 -2 -2 -6l-4 -11q-14 -40 -36 -66.5t-45 -37t-37.5 -14t-28.5 -3.5q-40 0 -106 34q-6 3 -18 9.5t-18.5 9.5t-15.5 7t-17 5.5t-15 1.5q-35 0 -59 -43l-7 -13q-5 -11 -9 -11q-6 0 -12 2l-48 22q-13 5 -13 14q0 2 2 6l4 11q14 40 36 66.5
t45 37t37.5 14t28.5 3.5q40 0 106 -34q6 -3 18 -9.5t18.5 -9.5t15.5 -7t17 -5.5t15 -1.5q35 0 59 43l7 13q6 11 9 11q6 0 12 -2z" />
    <glyph glyph-name="exclamdown" unicode="&#xa1;" horiz-adv-x="352" 
d="M104 -174l22 391q0 8 2 12.5t6.5 6t5.5 1.5h7h57q16 0 19 -10q2 -4 2 -10l22 -391q2 -25 -2 -29q-3 -4 -15 -4h-107h-12.5t-4.5 7.5t-2 25.5zM91 428q0 38 26.5 61t57.5 23q32 0 58.5 -23t26.5 -61q0 -37 -24.5 -61t-60.5 -24t-60 24.5t-24 60.5z" />
    <glyph glyph-name="cent" unicode="&#xa2;" horiz-adv-x="556" 
d="M297 176v325q-74 -16 -74 -166q0 -64 15 -105.5t59 -53.5zM357 71v-51q0 -20 -13 -20h-32q-15 0 -15 20v51q-38 3 -71.5 17t-64 42.5t-48 79t-17.5 117.5q0 117 52.5 188.5t148.5 81.5v59q0 16 15 16h31q4 0 7 -1t4.5 -2t2 -4t0.5 -4v-5v-59q38 -2 80 -18q33 -13 33 -25
q0 -4 -3 -9l-38 -70q-1 -3 -5 -3q-6 0 -19 9q-24 16 -48 20v-325q18 3 38 10q7 2 12.5 5.5t8.5 5t5 1.5q5 0 7 -5l29 -73q6 -16 -22 -29q-38 -18 -78 -20z" />
    <glyph glyph-name="sterling" unicode="&#xa3;" horiz-adv-x="556" 
d="M517 615l-33 -63q-3 -10 -14 -10q-4 0 -24 10q-49 28 -102 28t-81 -29t-28 -78q0 -41 16 -84h137q4 0 7.5 -0.5t5.5 -1.5t3.5 -2.5t2 -3t1 -3.5t0.5 -3v-3.5v-3.5v-51v-5v-5t-1 -4t-3 -4t-6 -2t-10 -1h-121q14 -57 14 -98q0 -49 -9 -90h263q25 0 18 -23l-17 -68
q-5 -14 -14 -16q-4 -1 -9 -1h-435h-4h-4.5t-3.5 0.5t-4 2t-2.5 4t-2 6t-0.5 8.5v67v4v4t0.5 3.5t2 3.5t4 2.5t6 2t8.5 0.5h70l4 17q9 36 9 70q0 40 -11 87l-3 14h-80h-3h-5t-3.5 0.5t-3.5 2t-2.5 4t-2 6t-0.5 8.5v51q0 16 8 19q4 2 12 2h61q-13 52 -13 93q0 89 59.5 146
t166.5 57q89 0 157 -38q21 -11 21 -23q0 -5 -2 -9z" />
    <glyph glyph-name="currency" unicode="&#xa4;" horiz-adv-x="616" 
d="M166 122l-52 -52q-15 -15 -30 0l-27 27q-15 15 0 30l52 52q-43 59 -43 136t43 136l-52 52q-15 15 0 30l27 27q15 15 30 0l52 -52q61 43 136 43t136 -43l52 52q15 15 30 0l27 -27q15 -15 0 -30l-52 -52q43 -59 43 -136t-43 -136l52 -52q15 -15 0 -30l-27 -27
q-15 -15 -30 0l-52 52q-59 -43 -136 -43t-136 43zM142 315q0 -67 46.5 -113.5t113.5 -46.5t113.5 46.5t46.5 113.5t-46.5 113.5t-113.5 46.5t-113.5 -46.5t-46.5 -113.5z" />
    <glyph glyph-name="yen" unicode="&#xa5;" horiz-adv-x="556" 
d="M429 75v-54q0 -6 -1 -10t-2.5 -6.5t-4.5 -3.5t-4 -1h-5h-4h-251h-4h-5t-4 1t-4.5 3.5t-2.5 6.5t-1 10v54q0 6 1 10t2.5 6.5t4.5 3.5t4 1h5h4h68v150h-174h-9.5t-6.5 5t-4 15v12v9.5t5 6.5t15 4h163l-24 51h-138q-11 0 -15.5 3.5t-5 6t-0.5 10.5v12q0 4 0.5 7.5t1.5 5.5
t2.5 3.5t3 2t3.5 1t3 0.5h3.5h3.5h112l-98 188h-26h-3.5h-3.5t-3 0.5t-3 1.5t-2 3t-1.5 5t-0.5 7v62v3.5v3.5t0.5 3t1.5 3t3 2t5 1.5t7 0.5h104q16 0 22 -14l78 -161q25 -53 38 -114h2q22 83 37 114l78 162l3.5 7t3 4t3.5 1.5t3 0.5h4h5h104h3.5h3.5t3 -0.5t3 -1.5t2 -3
t1.5 -5t0.5 -7v-62q0 -8 -2 -12t-4.5 -4.5t-7.5 -0.5h-3h-26l-102 -188h107h9.5t6.5 -5t4 -15v-12q0 -10 -4 -15t-6.5 -5h-9.5h-131l-24 -51h155h9.5t6.5 -5t4 -15v-12q0 -10 -4 -15t-6.5 -5h-9.5h-164v-150h68h4h5t4 -1t4.5 -3.5t2.5 -6.5t1 -10z" />
    <glyph glyph-name="brokenbar" unicode="&#xa6;" horiz-adv-x="400" 
d="M250 658v-316q0 -8 -2 -12t-4.5 -4.5t-7.5 -0.5h-3h-66q-14 0 -16 8q-1 4 -1 9v316q0 8 3 12t5.5 4.5t6.5 0.5h2h66q14 0 16 -8q1 -4 1 -9zM250 158v-316q0 -8 -2 -12t-4.5 -4.5t-7.5 -0.5h-3h-66q-14 0 -16 8q-1 4 -1 9v316q0 8 3 12t5.5 4.5t6.5 0.5h2h66q14 0 16 -8
q1 -4 1 -9z" />
    <glyph glyph-name="section" unicode="&#xa7;" horiz-adv-x="556" 
d="M444 632l-29 -56q-5 -8 -11 -8q-4 0 -10 3t-17 9.5t-19 10.5q-38 18 -73 18q-34 0 -49 -12t-15 -33q0 -12 9.5 -23t18.5 -16t29.5 -14.5t26.5 -12.5l28 -14q28 -14 40 -20.5t37 -24t36.5 -32t21.5 -38.5t10 -52q0 -41 -20 -74t-39 -47t-40 -24q73 -44 73 -123
q0 -23 -8 -48.5t-26 -54.5t-56.5 -48t-90.5 -19q-31 0 -79.5 11.5t-84 31.5t-25.5 39l32 61q5 8 9 8q3 0 6 -2t15.5 -9t28.5 -16q54 -28 98 -28q33 0 47 16t14 35t-11.5 34t-25.5 23t-38 18l-53 22q-127 52 -127 160q0 52 27.5 90.5t76.5 55.5q-40 24 -57.5 51t-17.5 66
q0 70 53 113t132 43q51 0 102 -20t55 -39v-4q0 -1 -2 -3.5t-2 -3.5zM289 219q69 36 69 83q0 12 -4.5 22.5t-16 19.5t-18 13.5t-25 14t-21.5 11.5q-76 -38 -76 -84q0 -20 16.5 -37t31 -24t44.5 -19z" />
    <glyph glyph-name="dieresis" unicode="&#xa8;" horiz-adv-x="335" 
d="M149 652q0 -28 -20.5 -48.5t-48.5 -20.5t-48.5 20.5t-20.5 48.5t20.5 48.5t48.5 20.5t48.5 -20.5t20.5 -48.5zM326 652q0 -28 -20.5 -48.5t-48.5 -20.5q-29 0 -49 20.5t-20 48.5t20 48.5t49 20.5q28 0 48.5 -21t20.5 -48z" />
    <glyph glyph-name="copyright" unicode="&#xa9;" horiz-adv-x="525" 
d="M64 470q0 85 59.5 144.5t144.5 59.5t144.5 -59.5t59.5 -144.5t-59.5 -144.5t-144.5 -59.5t-144.5 59.5t-59.5 144.5zM116 470q0 -64 44 -108t108 -44t108 44t44 108t-44 108t-108 44t-108 -44t-44 -108zM290 519v16q-6 3 -11 3q-16 0 -22 -14q-6 -12 -6 -59q0 -44 15 -57
q6 -6 17 -6q3 0 9 2v17q0 10 10 10h28q10 0 10 -10v-46q0 -8 -8 -11q-28 -10 -53 -10q-93 0 -93 116q0 72 38 100q21 16 56 16q38 0 54 -16q4 -4 4 -9v-42q0 -10 -10 -10h-28q-10 0 -10 10z" />
    <glyph glyph-name="ordfeminine" unicode="&#xaa;" horiz-adv-x="481" 
d="M404 397v-42q0 -5 -0.5 -7t-4 -4.5t-10.5 -2.5h-89q-18 0 -25 27l-1 4l-3 -3q-36 -36 -80 -36q-47 0 -77 27.5t-30 74.5q0 83 85 106q38 11 92 11h4v17q0 15 -2 23.5t-13 15.5t-32 7q-36 0 -69 -11q-10 -4 -17 -4q-5 0 -8 6l-14 41l-1 3q-1 2 -1 4q0 7 15 13
q44 18 106 18q61 0 91 -22q35 -26 35 -85v-117q0 -28 5 -46l1 -4h28q7 0 10.5 -2.5t4 -4.5t0.5 -7zM265 417v80h-3q-88 0 -88 -56q0 -22 13 -32.5t30 -10.5q24 0 48 19z" />
    <glyph glyph-name="guillemotleft" unicode="&#xab;" horiz-adv-x="605" 
d="M289 37l-53 -33q-8 -4 -11 -4q-4 0 -14 12l-169 224q-6 9 -6 14q0 6 6 14l169 219q9 11 14 11q4 0 14 -6l50 -31q13 -8 13 -15q0 -5 -7 -14l-124 -184l124 -178q6 -9 6 -15q0 -5 -12 -14zM524 37l-53 -33q-8 -4 -11 -4q-4 0 -14 12l-169 224q-6 9 -6 14q0 6 6 14l169 219
q9 11 14 11q4 0 14 -6l50 -31q13 -8 13 -15q0 -5 -7 -14l-124 -184l124 -178q6 -9 6 -15q0 -5 -12 -14z" />
    <glyph glyph-name="logicalnot" unicode="&#xac;" horiz-adv-x="556" 
d="M505 369v-225v-3.5v-3.5t-0.5 -3t-1.5 -3t-3 -2t-5 -1.5t-7 -0.5h-66q-8 0 -12 2t-4.5 4.5t-0.5 7.5v3v142h-338q-8 0 -12 2t-4.5 4.5t-0.5 7.5v3v66q0 8 3 12t5.5 4.5t6.5 0.5h2h421q8 0 12 -2t4.5 -4.5t0.5 -7.5v-3z" />
    <glyph glyph-name="registered" unicode="&#xae;" horiz-adv-x="523" 
d="M61 470q0 85 59.5 144.5t144.5 59.5t144.5 -59.5t59.5 -144.5t-59.5 -144.5t-144.5 -59.5t-144.5 59.5t-59.5 144.5zM113 470q0 -64 44 -108t108 -44t108 44t44 108t-44 108t-108 44t-108 -44t-44 -108zM188 582h95q31 0 50 -17.5t19 -48.5q0 -45 -36 -61l25 -56h11
q8 0 8 -8v-22q0 -8 -8 -8h-35q-9 0 -12 7l-34 81h-17v-50h15q8 0 8 -8v-22q0 -8 -8 -8h-81q-8 0 -8 8v22q0 8 8 8h13v145h-13q-8 0 -8 8v22q0 8 8 8zM254 544v-57h18q27 0 27 30q0 27 -26 27h-19z" />
    <glyph glyph-name="macron" unicode="&#xaf;" horiz-adv-x="335" 
d="M290 673v-42q0 -5 -0.5 -8.5t-2 -5.5t-2 -3.5t-3.5 -2t-3.5 -0.5h-4h-4.5h-205q-7 0 -10 0.5t-6.5 5t-3.5 14.5v42v3q0 6 0.5 9t5 5.5t14.5 2.5h205h3q6 0 9 -0.5t5.5 -5t2.5 -14.5z" />
    <glyph glyph-name="macron" unicode="&#x2c9;" horiz-adv-x="335" 
d="M290 673v-42q0 -5 -0.5 -8.5t-2 -5.5t-2 -3.5t-3.5 -2t-3.5 -0.5h-4h-4.5h-205q-7 0 -10 0.5t-6.5 5t-3.5 14.5v42v3q0 6 0.5 9t5 5.5t14.5 2.5h205h3q6 0 9 -0.5t5.5 -5t2.5 -14.5z" />
    <glyph glyph-name="degree" unicode="&#xb0;" horiz-adv-x="556" 
d="M435 544q0 -65 -46.5 -111t-111.5 -46t-111 46t-46 111q0 66 46.5 112t110.5 46t111 -46.5t47 -111.5zM277 469q32 0 54 21.5t22 53.5t-22 54t-54 22t-53.5 -22t-21.5 -54t21.5 -53.5t53.5 -21.5z" />
    <glyph glyph-name="plusminus" unicode="&#xb1;" horiz-adv-x="556" 
d="M505 23v-66v-3.5v-3.5t-0.5 -3t-1.5 -3t-3 -2t-5 -1.5t-7 -0.5h-420q-8 0 -12 2t-4.5 4.5t-0.5 7.5v3v66q0 8 3 12t5.5 4.5t6.5 0.5h2h420q8 0 12 -2t4.5 -4.5t0.5 -7.5v-3zM328 207v-114q0 -8 -2 -12t-4.5 -4.5t-7.5 -0.5h-3h-66q-8 0 -12 2t-4.5 4.5t-0.5 7.5v3v114
h-160q-8 0 -12 2t-4.5 4.5t-0.5 7.5v3v66q0 8 3 12t5.5 4.5t6.5 0.5h2h160v160q0 8 2 12t4.5 4.5t7.5 0.5h3h66h3.5h3.5t3 -0.5t3 -1.5t2 -3t1.5 -5t0.5 -7v-160h160h3.5h3.5t3 -0.5t3 -1.5t2 -3t1.5 -5t0.5 -7v-66v-3.5v-3.5t-0.5 -3t-1.5 -3t-3 -2t-5 -1.5t-7 -0.5h-160z
" />
    <glyph glyph-name="twosuperior" unicode="&#xb2;" horiz-adv-x="370" 
d="M309 324v-39q0 -9 -3 -13t-5.5 -4.5t-9.5 -0.5h-231q-5 0 -7 0.5t-4.5 5.5t-2.5 15q0 65 27 108q19 31 83 75q24 16 35.5 25t22 26t10.5 37t-11.5 32t-32.5 12q-38 0 -57 -38q-9 -18 -15 -20.5t-16 2.5l-38 13q-16 5 -8 28q15 42 52 66t87 24q58 0 93.5 -29t35.5 -88
q0 -48 -22 -77t-74 -65l-29 -20q-41 -27 -43 -57h145h5.5t4.5 -1t4.5 -2.5t2.5 -5.5t1 -9z" />
    <glyph glyph-name="threesuperior" unicode="&#xb3;" horiz-adv-x="370" 
d="M109 456v43q0 16 16 16h25q61 0 61 46q0 19 -11.5 30.5t-33.5 11.5q-28 0 -52 -24q-10 -10 -15 -10l-10 5l-34 29q-6 6 -6 10q0 9 12 21q44 44 110 44q60 0 95 -31t35 -79q0 -55 -50 -85q63 -23 63 -98q0 -57 -41.5 -92.5t-109.5 -35.5q-55 0 -102 18q-20 7 -24 14t1 13
l13 44q3 10 11 10q2 0 13 -4q50 -20 82 -20q34 0 50.5 16t16.5 39q0 53 -77 53h-22q-16 0 -16 16z" />
    <glyph glyph-name="acute" unicode="&#xb4;" horiz-adv-x="335" 
d="M283 638l-178 -71q-6 -3 -12 -3t-13 14l-17 34q-4 8 -4 12q0 6 13 14l166 98q6 4 11 4q6 0 13 -12l33 -65q4 -6 4 -12q0 -8 -16 -13z" />
    <glyph glyph-name="mu" unicode="&#xb5;" horiz-adv-x="574" 
d="M299 -123v-65v-2q0 -4 -0.5 -6t-3.5 -4t-10 -2h-234q-14 0 -14 14v65q0 14 14 14h51v510h-51h-6t-5 3.5t-3 10.5v65q0 7 3 10.5t5 3.5h6h164q10 0 12 -3t2 -9v-2v-308v-20t3 -22t8 -24t17 -15.5t28 -7.5q21 0 46 13t40 28v277h-51h-6t-5 3.5t-3 10.5v65q0 14 14 14h164
q10 0 12 -3t2 -9v-2v-302q0 -61 10 -85h42h2q4 0 6 -0.5t4 -3.5t2 -10v-65v-2q0 -4 -0.5 -6t-3.5 -4t-10 -2h-133q-20 0 -29 35l-3 12l-7 -10q-38 -54 -91 -54q-27 0 -58 17v-109h56q10 0 12 -3t2 -9v-2z" />
    <glyph glyph-name="mu" unicode="&#x3bc;" horiz-adv-x="574" 
d="M299 -123v-65v-2q0 -4 -0.5 -6t-3.5 -4t-10 -2h-234q-14 0 -14 14v65q0 14 14 14h51v510h-51h-6t-5 3.5t-3 10.5v65q0 7 3 10.5t5 3.5h6h164q10 0 12 -3t2 -9v-2v-308v-20t3 -22t8 -24t17 -15.5t28 -7.5q21 0 46 13t40 28v277h-51h-6t-5 3.5t-3 10.5v65q0 14 14 14h164
q10 0 12 -3t2 -9v-2v-302q0 -61 10 -85h42h2q4 0 6 -0.5t4 -3.5t2 -10v-65v-2q0 -4 -0.5 -6t-3.5 -4t-10 -2h-133q-20 0 -29 35l-3 12l-7 -10q-38 -54 -91 -54q-27 0 -58 17v-109h56q10 0 12 -3t2 -9v-2z" />
    <glyph glyph-name="paragraph" unicode="&#xb6;" horiz-adv-x="704" 
d="M591 595v-761v-9.5t-5 -6.5t-15 -4h-60q-10 0 -15 4t-5 6.5v9.5v761h-68v-761v-9.5t-5 -6.5t-15 -4h-60q-10 0 -15 4t-5 6.5v9.5v327q-37 -8 -61 -8q-30 0 -57.5 6t-58 24t-52 46t-36 76.5t-14.5 111.5q0 56 10.5 99.5t25 71.5t40.5 47.5t46 29t53 14.5t49.5 5.5
t47.5 0.5h332q11 0 16 -4t5 -6v-10v-50q0 -4 -0.5 -7.5t-1.5 -5.5t-2.5 -3.5t-3 -2t-3.5 -1t-3 -0.5h-3.5h-3.5h-57zM323 251v344q-50 2 -82 -10.5t-46.5 -40t-19 -53t-4.5 -62.5q0 -21 0.5 -32.5t3 -37.5t10 -42t19.5 -34.5t32.5 -27.5t48.5 -9q20 0 38 5z" />
    <glyph glyph-name="periodcentered" unicode="&#xb7;" horiz-adv-x="250" 
d="M202 256q0 -32 -22.5 -54t-53.5 -22q-35 0 -56 24t-21 52q0 31 23 54t54 23t53.5 -22.5t22.5 -54.5z" />
    <glyph glyph-name="periodcentered" unicode="&#x22c5;" horiz-adv-x="250" 
d="M202 256q0 -32 -22.5 -54t-53.5 -22q-35 0 -56 24t-21 52q0 31 23 54t54 23t53.5 -22.5t22.5 -54.5z" />
    <glyph glyph-name="periodcentered" unicode="&#x2219;" horiz-adv-x="250" 
d="M202 256q0 -32 -22.5 -54t-53.5 -22q-35 0 -56 24t-21 52q0 31 23 54t54 23t53.5 -22.5t22.5 -54.5z" />
    <glyph glyph-name="cedilla" unicode="&#xb8;" horiz-adv-x="324" 
d="M182 0l-4 -52q25 -2 42 -13q29 -19 29 -59q0 -36 -27 -61q-30 -27 -82 -27q-73 0 -73 20q0 2 2 10l7 35q2 9 14 5q15 -5 34 -5q32 0 32 23t-43 23h-8q-10 0 -10 7q0 8 1 25l5 69h81z" />
    <glyph glyph-name="onesuperior" unicode="&#xb9;" horiz-adv-x="370" 
d="M306 315v-30q0 -9 -3 -13t-5.5 -4.5t-7.5 -0.5h-3h-188q-19 0 -19 13v35q0 8 3 12t5.5 4.5t8.5 0.5h2h56v231l-52 -26q-6 -4 -12 -4t-13 11l-18 27q-4 4 -4 10q0 7 8 11l118 76h45q9 0 13 -3.5t4.5 -6t0.5 -7.5v-319h42h2q6 0 8.5 -0.5t5.5 -4.5t3 -12z" />
    <glyph glyph-name="ordmasculine" unicode="&#xba;" horiz-adv-x="444" 
d="M371 509q0 -80 -37 -125q-41 -51 -112 -51t-112 51q-37 45 -37 125q0 82 41 129t108 47q70 0 111 -50q38 -47 38 -126zM222 408q30 0 39.5 25t9.5 76q0 22 -1.5 36.5t-6 31t-15 25t-26.5 8.5t-26.5 -8.5t-15 -25t-6 -31t-1.5 -36.5q0 -51 9.5 -76t39.5 -25z" />
    <glyph glyph-name="guillemotright" unicode="&#xbb;" horiz-adv-x="605" 
d="M134 4l-53 33q-12 9 -12 14q0 6 6 15l124 178l-124 184q-7 9 -7 14q0 7 13 15l50 31q10 6 14 6q5 0 14 -11l169 -219q6 -8 6 -14q0 -5 -6 -14l-169 -224q-10 -12 -14 -12q-3 0 -11 4zM369 4l-53 33q-12 9 -12 14q0 6 6 15l124 178l-124 184q-7 9 -7 14q0 7 13 15l50 31
q10 6 14 6q5 0 14 -11l169 -219q6 -8 6 -14q0 -5 -6 -14l-169 -224q-10 -12 -14 -12q-3 0 -11 4z" />
    <glyph glyph-name="onequarter" unicode="&#xbc;" horiz-adv-x="870" 
d="M299 315v-30q0 -9 -3 -13t-5.5 -4.5t-7.5 -0.5h-3h-188q-19 0 -19 13v35q0 8 3 12t5.5 4.5t8.5 0.5h2h56v231l-52 -26q-6 -4 -12 -4t-13 11l-18 27q-4 4 -4 10q0 7 8 11l118 76h45q9 0 13 -3.5t4.5 -6t0.5 -7.5v-319h42h2q6 0 8.5 -0.5t5.5 -4.5t3 -12zM617 659
l-236 -659q-6 -17 -23 -17h-54q-18 0 -18 11q0 1 4 13l237 662q5 16 23 16h51q19 0 19 -13q0 -7 -3 -13zM779 77v-69q0 -12 -4 -15t-14 -3h-54q-14 0 -17 10q-1 3 -1 8v69h-151h-2q-6 0 -8.5 0.5t-5.5 4.5t-3 12v63l160 244q9 13 20 8l44 -16q19 -7 9 -21l-146 -225h83
l10 89q1 6 1.5 8t5 5t12.5 3h43q18 0 18 -18v-89h32h3.5h3.5t3.5 -0.5t3.5 -1.5t2.5 -3t2 -5.5t0.5 -7.5v-33q0 -8 -3 -12t-5.5 -4.5t-8.5 -0.5h-2h-32z" />
    <glyph glyph-name="onehalf" unicode="&#xbd;" horiz-adv-x="870" 
d="M291 315v-30q0 -9 -3 -13t-5.5 -4.5t-7.5 -0.5h-3h-188q-19 0 -19 13v35q0 8 3 12t5.5 4.5t8.5 0.5h2h56v231l-52 -26q-6 -4 -12 -4t-13 11l-18 27q-4 4 -4 10q0 7 8 11l118 76h45q9 0 13 -3.5t4.5 -6t0.5 -7.5v-319h42h2q6 0 8.5 -0.5t5.5 -4.5t3 -12zM576 659
l-236 -659q-6 -17 -23 -17h-54q-18 0 -18 11q0 1 4 13l237 662q5 16 23 16h51q19 0 19 -13q0 -7 -3 -13zM802 57v-39q0 -9 -3 -13t-5.5 -4.5t-9.5 -0.5h-231q-5 0 -7 0.5t-4.5 5.5t-2.5 15q0 65 27 108q19 31 83 75q24 16 35.5 25t22 26t10.5 37t-11.5 32t-32.5 12
q-38 0 -57 -38q-9 -18 -15 -20.5t-16 2.5l-38 13q-16 5 -8 28q15 42 52 66t87 24q58 0 93.5 -29t35.5 -88q0 -48 -22 -77t-74 -65l-29 -20q-41 -27 -43 -57h145h5.5t4.5 -1t4.5 -2.5t2.5 -5.5t1 -9z" />
    <glyph glyph-name="threequarters" unicode="&#xbe;" horiz-adv-x="870" 
d="M116 456v43q0 16 16 16h25q61 0 61 46q0 19 -11.5 30.5t-33.5 11.5q-28 0 -52 -24q-10 -10 -15 -10l-10 5l-34 29q-6 6 -6 10q0 9 12 21q44 44 110 44q60 0 95 -31t35 -79q0 -55 -50 -85q63 -23 63 -98q0 -57 -41.5 -92.5t-109.5 -35.5q-55 0 -102 18q-20 7 -24 14t1 13
l13 44q2 10 11 10q2 0 13 -4q50 -20 82 -20q34 0 50.5 16t16.5 39q0 53 -77 53h-22q-16 0 -16 16zM616 659l-236 -659q-6 -17 -23 -17h-56q-16 0 -16 11q0 1 3 10l238 665q5 16 23 16h51q17 0 19 -12v-5q0 -1 -2 -6q-1 -2 -1 -3zM784 77v-69q0 -5 -1 -8q-3 -10 -17 -10h-54
q-7 0 -10 0.5t-5.5 4.5t-2.5 13v69h-151h-2q-6 0 -8.5 0.5t-5.5 4.5t-3 12v63l160 244q9 13 20 8l44 -16q19 -7 9 -21l-146 -225h83l10 89q1 6 1.5 8t5 5t12.5 3h43q18 0 18 -18v-89h32h3.5h3.5t3.5 -0.5t3.5 -1.5t2.5 -3t2 -5.5t0.5 -7.5v-33q0 -8 -3 -12t-5.5 -4.5
t-8.5 -0.5h-2h-32z" />
    <glyph glyph-name="questiondown" unicode="&#xbf;" 
d="M242 252h73h4h4.5t3.5 -0.5t4 -2t2.5 -4t2 -6t0.5 -8.5v-125q0 -16 -23 -25q-5 -1 -13 -3.5t-13 -4.5q-17 -5 -22 -7q-71 -25 -71 -87q0 -35 21 -52q24 -19 62 -19q48 0 106 26q16 7 18 7q8 0 12 -10l26 -68q2 -8 2 -11q0 -9 -15 -19q-25 -15 -78 -27.5t-94 -12.5
q-88 0 -142 53q-53 51 -53 130q0 91 71 144q37 28 91 43v68q0 11 4 16t6 5h11zM191 428q0 38 26.5 61t57.5 23q32 0 58.5 -23t26.5 -61q0 -37 -24.5 -61t-60.5 -24t-60 24.5t-24 60.5z" />
    <glyph glyph-name="Agrave" unicode="&#xc0;" horiz-adv-x="630" 
d="M615 75v-54q0 -6 -1 -10t-2.5 -6.5t-4.5 -3.5t-4 -1h-5h-4h-208h-4h-5t-4 1t-4.5 3.5t-2.5 6.5t-1 10v54q0 6 1 10t2.5 6.5t4.5 3.5t4 1h5h4h32l-23 87h-172l-22 -87h33h4h5t4 -1t4.5 -3.5t2.5 -6.5t1 -10v-54q0 -6 -1 -10t-2.5 -6.5t-4.5 -3.5t-4 -1h-5h-4h-198h-4h-5
t-4 1t-4.5 3.5t-2.5 6.5t-1 10v54q0 6 1 10t2.5 6.5t4.5 3.5t4 1h5h4h30l175 573q0 1 1 4.5t1.5 4.5t2 3t3.5 3t5.5 1.5t8.5 0.5h104q6 0 10 -0.5t6 -3t3 -3t2 -5t1 -5.5l171 -573h34h4h5t4 -1t4.5 -3.5t2.5 -6.5t1 -10zM370 273l-41 172q-14 56 -22 140h-2
q-10 -90 -23 -140l-44 -172h132zM214 900l182 -86q12 -6 12 -14q0 -2 -2 -6l-19 -43q-5 -10 -10 -10q-1 0 -9 2l-198 57l-2 1l-4.5 1.5t-3 2.5t-1.5 4q0 6 1 9l31 75q5 11 11 11q3 0 12 -4z" />
    <glyph glyph-name="Aacute" unicode="&#xc1;" horiz-adv-x="630" 
d="M615 75v-54q0 -6 -1 -10t-2.5 -6.5t-4.5 -3.5t-4 -1h-5h-4h-208h-4h-5t-4 1t-4.5 3.5t-2.5 6.5t-1 10v54q0 6 1 10t2.5 6.5t4.5 3.5t4 1h5h4h32l-23 87h-172l-22 -87h33h4h5t4 -1t4.5 -3.5t2.5 -6.5t1 -10v-54q0 -6 -1 -10t-2.5 -6.5t-4.5 -3.5t-4 -1h-5h-4h-198h-4h-5
t-4 1t-4.5 3.5t-2.5 6.5t-1 10v54q0 6 1 10t2.5 6.5t4.5 3.5t4 1h5h4h30l175 573q0 1 1 4.5t1.5 4.5t2 3t3.5 3t5.5 1.5t8.5 0.5h104q6 0 10 -0.5t6 -3t3 -3t2 -5t1 -5.5l171 -573h34h4h5t4 -1t4.5 -3.5t2.5 -6.5t1 -10zM370 273l-41 172q-14 56 -22 140h-2
q-10 -90 -23 -140l-44 -172h132zM253 813l182 86q9 4 12 4q5 0 11 -11l31 -75q1 -3 1 -9q0 -4 -11 -9l-198 -57q-8 -2 -9 -2q-5 0 -10 10l-19 43q-2 4 -2 6q0 8 12 14z" />
    <glyph glyph-name="Acircumflex" unicode="&#xc2;" horiz-adv-x="630" 
d="M615 75v-54q0 -6 -1 -10t-2.5 -6.5t-4.5 -3.5t-4 -1h-5h-4h-208h-4h-5t-4 1t-4.5 3.5t-2.5 6.5t-1 10v54q0 6 1 10t2.5 6.5t4.5 3.5t4 1h5h4h32l-23 87h-172l-22 -87h33h4h5t4 -1t4.5 -3.5t2.5 -6.5t1 -10v-54q0 -6 -1 -10t-2.5 -6.5t-4.5 -3.5t-4 -1h-5h-4h-198h-4h-5
t-4 1t-4.5 3.5t-2.5 6.5t-1 10v54q0 6 1 10t2.5 6.5t4.5 3.5t4 1h5h4h30l175 573q0 1 1 4.5t1.5 4.5t2 3t3.5 3t5.5 1.5t8.5 0.5h104q6 0 10 -0.5t6 -3t3 -3t2 -5t1 -5.5l171 -573h34h4h5t4 -1t4.5 -3.5t2.5 -6.5t1 -10zM370 273l-41 172q-14 56 -22 140h-2
q-10 -90 -23 -140l-44 -172h132zM315 786l-104 -47q-4 -2 -6 -2q-7 0 -10 7l-27 45q-2 4 -2 7q0 6 9 11l126 87q5 5 14 5t14 -5l126 -87q9 -5 9 -11q0 -3 -2 -7l-27 -45q-3 -7 -10 -7q-2 0 -6 2z" />
    <glyph glyph-name="Atilde" unicode="&#xc3;" horiz-adv-x="630" 
d="M615 75v-54q0 -6 -1 -10t-2.5 -6.5t-4.5 -3.5t-4 -1h-5h-4h-208h-4h-5t-4 1t-4.5 3.5t-2.5 6.5t-1 10v54q0 6 1 10t2.5 6.5t4.5 3.5t4 1h5h4h32l-23 87h-172l-22 -87h33h4h5t4 -1t4.5 -3.5t2.5 -6.5t1 -10v-54q0 -6 -1 -10t-2.5 -6.5t-4.5 -3.5t-4 -1h-5h-4h-198h-4h-5
t-4 1t-4.5 3.5t-2.5 6.5t-1 10v54q0 6 1 10t2.5 6.5t4.5 3.5t4 1h5h4h30l175 573q0 1 1 4.5t1.5 4.5t2 3t3.5 3t5.5 1.5t8.5 0.5h104q6 0 10 -0.5t6 -3t3 -3t2 -5t1 -5.5l171 -573h34h4h5t4 -1t4.5 -3.5t2.5 -6.5t1 -10zM370 273l-41 172q-14 56 -22 140h-2
q-10 -90 -23 -140l-44 -172h132zM211 762l-49 24q-6 3 -6 8q0 2 2 8l7 14q35 73 95 73q37 0 79 -26q17 -10 30 -10q17 0 30 25l3 6q5 10 16 4l49 -25q6 -3 6 -10q0 -5 -5 -13l-11 -19q-11 -19 -29 -37q-24 -24 -61 -24q-27 0 -59 18q-30 18 -41 18q-23 0 -38 -27l-3 -5
q-5 -7 -15 -2z" />
    <glyph glyph-name="Adieresis" unicode="&#xc4;" horiz-adv-x="630" 
d="M615 75v-54q0 -6 -1 -10t-2.5 -6.5t-4.5 -3.5t-4 -1h-5h-4h-208h-4h-5t-4 1t-4.5 3.5t-2.5 6.5t-1 10v54q0 6 1 10t2.5 6.5t4.5 3.5t4 1h5h4h32l-23 87h-172l-22 -87h33h4h5t4 -1t4.5 -3.5t2.5 -6.5t1 -10v-54q0 -6 -1 -10t-2.5 -6.5t-4.5 -3.5t-4 -1h-5h-4h-198h-4h-5
t-4 1t-4.5 3.5t-2.5 6.5t-1 10v54q0 6 1 10t2.5 6.5t4.5 3.5t4 1h5h4h30l175 573q0 1 1 4.5t1.5 4.5t2 3t3.5 3t5.5 1.5t8.5 0.5h104q6 0 10 -0.5t6 -3t3 -3t2 -5t1 -5.5l171 -573h34h4h5t4 -1t4.5 -3.5t2.5 -6.5t1 -10zM370 273l-41 172q-14 56 -22 140h-2
q-10 -90 -23 -140l-44 -172h132zM151 819q0 29 21.5 50.5t50.5 21.5t50.5 -21.5t21.5 -50.5t-21.5 -50.5t-50.5 -21.5t-50.5 21.5t-21.5 50.5zM335 819q0 29 21.5 50.5t50.5 21.5t50.5 -21.5t21.5 -50.5t-21.5 -50.5t-50.5 -21.5t-50.5 21.5t-21.5 50.5z" />
    <glyph glyph-name="Aring" unicode="&#xc5;" horiz-adv-x="630" 
d="M615 75v-54q0 -6 -1 -10t-2.5 -6.5t-4.5 -3.5t-4 -1h-5h-4h-208h-4h-5t-4 1t-4.5 3.5t-2.5 6.5t-1 10v54q0 6 1 10t2.5 6.5t4.5 3.5t4 1h5h4h32l-23 87h-172l-22 -87h33h4h5t4 -1t4.5 -3.5t2.5 -6.5t1 -10v-54q0 -6 -1 -10t-2.5 -6.5t-4.5 -3.5t-4 -1h-5h-4h-198h-4h-5
t-4 1t-4.5 3.5t-2.5 6.5t-1 10v54q0 6 1 10t2.5 6.5t4.5 3.5t4 1h5h4h30l175 573q0 1 1 4.5t1.5 4.5t2 3t3.5 3t5.5 1.5t8.5 0.5h104q6 0 10 -0.5t6 -3t3 -3t2 -5t1 -5.5l171 -573h34h4h5t4 -1t4.5 -3.5t2.5 -6.5t1 -10zM370 273l-41 172q-14 56 -22 140h-2
q-10 -90 -23 -140l-44 -172h132zM423 850q0 -46 -31 -77t-77 -31t-77 31t-31 77t31 77t77 31t77 -31t31 -77zM315 806q18 0 31 13t13 31t-13 31t-31 13t-31 -13t-13 -31t13 -31t31 -13z" />
    <glyph glyph-name="AE" unicode="&#xc6;" horiz-adv-x="815" 
d="M771 178v-157q0 -11 -4 -16t-6 -5h-10h-401h-4h-5t-4 1t-4.5 3.5t-2.5 6.5t-1 10v54q0 6 1 10t2.5 6.5t4.5 3.5t4 1h5h4h51v87h-168l-32 -87h52h4h5t4 -1t4.5 -3.5t2.5 -6.5t1 -10v-54q0 -6 -1 -10t-2.5 -6.5t-4.5 -3.5t-4 -1h-5h-4h-217h-4h-5t-4 1t-4.5 3.5t-2.5 6.5
t-1 10v54q0 6 1 10t2.5 6.5t4.5 3.5t4 1h5h4h30l245 573q1 1 1.5 5t2 6t6 3.5t12.5 1.5h417q17 0 19 -7q2 -4 2 -10v-152q0 -11 -3.5 -15.5t-6.5 -5t-11 -0.5h-66h-4h-5t-4 1t-4.5 3.5t-2.5 6.5t-1 10v61h-127v-165h170h4h4.5t3.5 -0.5t4 -2t2.5 -4t2 -6t0.5 -8.5v-66
q0 -6 -1 -10t-2.5 -6.5t-4.5 -3.5t-4 -1h-5h-4h-170v-196h127v70q0 16 5 18.5t16 2.5h66q11 0 16 -4t5 -6v-11zM401 273v347h-2q-8 -14 -15 -44t-36 -98l-85 -205h138z" />
    <glyph glyph-name="Ccedilla" unicode="&#xc7;" horiz-adv-x="528" 
d="M334 -17l-3 -39q33 -2 54 -21.5t21 -53.5q0 -37 -28.5 -63.5t-85.5 -26.5q-35 0 -63 8q-15 4 -11 20l9 40q1 4 5 4q1 0 15 -3.5t29 -3.5q30 0 30 25q0 24 -42 24h-7q-15 0 -12 16l10 79q-17 2 -32.5 6t-42.5 16t-49 36.5t-43 60.5t-33 95.5t-12 134.5q0 105 23.5 180
t64 113.5t85 55t96.5 16.5q55 0 111.5 -19.5t56.5 -46.5v-134q0 -8 -3 -12t-5.5 -4.5t-6.5 -0.5h-2h-74q-8 0 -12 2t-4.5 4.5t-0.5 7.5v3v83q-28 9 -53 9q-55 0 -87 -32q-47 -47 -47 -211q0 -121 22 -179t80 -75q19 -6 59 -6q5 0 19 2.5t15 2.5v90q0 14 8 16q4 1 9 1h74
q8 0 12 -3t4.5 -5.5t0.5 -6.5v-2v-145q0 -22 -58.5 -39.5t-95.5 -18.5z" />
    <glyph glyph-name="Egrave" unicode="&#xc8;" horiz-adv-x="537" 
d="M481 178v-157q0 -11 -4 -16t-6 -5h-10h-401h-4h-5t-4 1t-4.5 3.5t-2.5 6.5t-1 10v54q0 6 1 10t2.5 6.5t4.5 3.5t4 1h5h4h51v493h-51h-4h-5t-4 1t-4.5 3.5t-2.5 6.5t-1 10v54q0 6 1 10t2.5 6.5t4.5 3.5t4 1h5h4h400q17 0 19 -7q2 -4 2 -10v-152q0 -11 -3.5 -15.5t-6.5 -5
t-11 -0.5h-66h-4h-5t-4 1t-4.5 3.5t-2.5 6.5t-1 10v61h-127v-165h170h4h4.5t3.5 -0.5t4 -2t2.5 -4t2 -6t0.5 -8.5v-66q0 -6 -1 -10t-2.5 -6.5t-4.5 -3.5t-4 -1h-5h-4h-170v-196h127v70v5v5t0.5 4t2 3t4 1.5t6 2t8.5 0.5h66h4h4.5t3.5 -0.5t4 -2t2.5 -4t2 -6t0.5 -8.5z
M144 900l182 -86q12 -6 12 -14q0 -2 -2 -6l-19 -43q-5 -10 -10 -10q-1 0 -9 2l-198 57l-2 1l-4.5 1.5t-3 2.5t-1.5 4q0 6 1 9l31 75q5 11 11 11q3 0 12 -4z" />
    <glyph glyph-name="Eacute" unicode="&#xc9;" horiz-adv-x="537" 
d="M481 178v-157q0 -11 -4 -16t-6 -5h-10h-401h-4h-5t-4 1t-4.5 3.5t-2.5 6.5t-1 10v54q0 6 1 10t2.5 6.5t4.5 3.5t4 1h5h4h51v493h-51h-4h-5t-4 1t-4.5 3.5t-2.5 6.5t-1 10v54q0 6 1 10t2.5 6.5t4.5 3.5t4 1h5h4h400q17 0 19 -7q2 -4 2 -10v-152q0 -11 -3.5 -15.5t-6.5 -5
t-11 -0.5h-66h-4h-5t-4 1t-4.5 3.5t-2.5 6.5t-1 10v61h-127v-165h170h4h4.5t3.5 -0.5t4 -2t2.5 -4t2 -6t0.5 -8.5v-66q0 -6 -1 -10t-2.5 -6.5t-4.5 -3.5t-4 -1h-5h-4h-170v-196h127v70v5v5t0.5 4t2 3t4 1.5t6 2t8.5 0.5h66h4h4.5t3.5 -0.5t4 -2t2.5 -4t2 -6t0.5 -8.5z
M223 814l182 86q9 4 12 4q5 0 11 -11l31 -75q1 -3 1 -9q0 -2 -1.5 -4t-3 -2.5t-3.5 -1.5l-3 -1l-198 -57q-8 -2 -9 -2q-5 0 -10 10l-19 43q-2 4 -2 6q0 8 12 14z" />
    <glyph glyph-name="Ecircumflex" unicode="&#xca;" horiz-adv-x="537" 
d="M481 178v-157q0 -11 -4 -16t-6 -5h-10h-401h-4h-5t-4 1t-4.5 3.5t-2.5 6.5t-1 10v54q0 6 1 10t2.5 6.5t4.5 3.5t4 1h5h4h51v493h-51h-4h-5t-4 1t-4.5 3.5t-2.5 6.5t-1 10v54q0 6 1 10t2.5 6.5t4.5 3.5t4 1h5h4h400q17 0 19 -7q2 -4 2 -10v-152q0 -11 -3.5 -15.5t-6.5 -5
t-11 -0.5h-66h-4h-5t-4 1t-4.5 3.5t-2.5 6.5t-1 10v61h-127v-165h170h4h4.5t3.5 -0.5t4 -2t2.5 -4t2 -6t0.5 -8.5v-66q0 -6 -1 -10t-2.5 -6.5t-4.5 -3.5t-4 -1h-5h-4h-170v-196h127v70v5v5t0.5 4t2 3t4 1.5t6 2t8.5 0.5h66h4h4.5t3.5 -0.5t4 -2t2.5 -4t2 -6t0.5 -8.5z
M268 786l-104 -47q-4 -2 -6 -2q-6 0 -10 7l-27 45q-2 4 -2 7q0 6 9 11l126 87q5 5 14 5t14 -5l126 -87q9 -5 9 -11q0 -3 -2 -7l-27 -45q-4 -7 -10 -7q-2 0 -6 2z" />
    <glyph glyph-name="Edieresis" unicode="&#xcb;" horiz-adv-x="537" 
d="M481 178v-157q0 -11 -4 -16t-6 -5h-10h-401h-4h-5t-4 1t-4.5 3.5t-2.5 6.5t-1 10v54q0 6 1 10t2.5 6.5t4.5 3.5t4 1h5h4h51v493h-51h-4h-5t-4 1t-4.5 3.5t-2.5 6.5t-1 10v54q0 6 1 10t2.5 6.5t4.5 3.5t4 1h5h4h400q17 0 19 -7q2 -4 2 -10v-152q0 -11 -3.5 -15.5t-6.5 -5
t-11 -0.5h-66h-4h-5t-4 1t-4.5 3.5t-2.5 6.5t-1 10v61h-127v-165h170h4h4.5t3.5 -0.5t4 -2t2.5 -4t2 -6t0.5 -8.5v-66q0 -6 -1 -10t-2.5 -6.5t-4.5 -3.5t-4 -1h-5h-4h-170v-196h127v70v5v5t0.5 4t2 3t4 1.5t6 2t8.5 0.5h66h4h4.5t3.5 -0.5t4 -2t2.5 -4t2 -6t0.5 -8.5z
M104 819q0 29 21.5 50.5t50.5 21.5t50.5 -21.5t21.5 -50.5t-21.5 -50.5t-50.5 -21.5t-50.5 21.5t-21.5 50.5zM288 819q0 29 21.5 50.5t50.5 21.5t50.5 -21.5t21.5 -50.5t-21.5 -50.5t-50.5 -21.5t-50.5 21.5t-21.5 50.5z" />
    <glyph glyph-name="Igrave" unicode="&#xcc;" horiz-adv-x="370" 
d="M324 75v-54q0 -6 -1 -10t-2.5 -6.5t-4.5 -3.5t-4 -1h-5h-4h-237h-4h-5t-4 1t-4.5 3.5t-2.5 6.5t-1 10v54q0 6 1 10t2.5 6.5t4.5 3.5t4 1h5h4h51v493h-51h-4h-5t-4 1t-4.5 3.5t-2.5 6.5t-1 10v54q0 6 1 10t2.5 6.5t4.5 3.5t4 1h5h4h237h4h5t4 -1t4.5 -3.5t2.5 -6.5t1 -10
v-54q0 -6 -1 -10t-2.5 -6.5t-4.5 -3.5t-4 -1h-5h-4h-51v-493h51h4h5t4 -1t4.5 -3.5t2.5 -6.5t1 -10zM65 900l182 -86q12 -6 12 -14q0 -2 -2 -6l-19 -43q-5 -10 -10 -10q-1 0 -9 2l-198 57l-3 1q-2 1 -3.5 1.5t-3 2.5t-1.5 4q0 6 1 9l31 75q6 11 11 11q3 0 12 -4z" />
    <glyph glyph-name="Iacute" unicode="&#xcd;" horiz-adv-x="370" 
d="M324 75v-54q0 -6 -1 -10t-2.5 -6.5t-4.5 -3.5t-4 -1h-5h-4h-237h-4h-5t-4 1t-4.5 3.5t-2.5 6.5t-1 10v54q0 6 1 10t2.5 6.5t4.5 3.5t4 1h5h4h51v493h-51h-4h-5t-4 1t-4.5 3.5t-2.5 6.5t-1 10v54q0 6 1 10t2.5 6.5t4.5 3.5t4 1h5h4h237h4h5t4 -1t4.5 -3.5t2.5 -6.5t1 -10
v-54q0 -6 -1 -10t-2.5 -6.5t-4.5 -3.5t-4 -1h-5h-4h-51v-493h51h4h5t4 -1t4.5 -3.5t2.5 -6.5t1 -10zM123 814l182 86q9 4 12 4q5 0 11 -11l31 -75q1 -3 1 -9q0 -2 -1.5 -4t-3 -2.5t-3.5 -1.5l-3 -1l-198 -57q-8 -2 -9 -2q-5 0 -10 10l-19 43q-2 4 -2 6q0 8 12 14z" />
    <glyph glyph-name="Icircumflex" unicode="&#xce;" horiz-adv-x="370" 
d="M324 75v-54q0 -6 -1 -10t-2.5 -6.5t-4.5 -3.5t-4 -1h-5h-4h-237h-4h-5t-4 1t-4.5 3.5t-2.5 6.5t-1 10v54q0 6 1 10t2.5 6.5t4.5 3.5t4 1h5h4h51v493h-51h-4h-5t-4 1t-4.5 3.5t-2.5 6.5t-1 10v54q0 6 1 10t2.5 6.5t4.5 3.5t4 1h5h4h237h4h5t4 -1t4.5 -3.5t2.5 -6.5t1 -10
v-54q0 -6 -1 -10t-2.5 -6.5t-4.5 -3.5t-4 -1h-5h-4h-51v-493h51h4h5t4 -1t4.5 -3.5t2.5 -6.5t1 -10zM185 786l-104 -47q-4 -2 -6 -2q-7 0 -10 7l-27 45q-2 4 -2 7q0 6 9 11l126 87q5 5 14 5t14 -5l126 -87q9 -5 9 -11q0 -3 -2 -7l-27 -45q-3 -7 -10 -7q-2 0 -6 2z" />
    <glyph glyph-name="Idieresis" unicode="&#xcf;" horiz-adv-x="370" 
d="M324 75v-54q0 -6 -1 -10t-2.5 -6.5t-4.5 -3.5t-4 -1h-5h-4h-237h-4h-5t-4 1t-4.5 3.5t-2.5 6.5t-1 10v54q0 6 1 10t2.5 6.5t4.5 3.5t4 1h5h4h51v493h-51h-4h-5t-4 1t-4.5 3.5t-2.5 6.5t-1 10v54q0 6 1 10t2.5 6.5t4.5 3.5t4 1h5h4h237h4h5t4 -1t4.5 -3.5t2.5 -6.5t1 -10
v-54q0 -6 -1 -10t-2.5 -6.5t-4.5 -3.5t-4 -1h-5h-4h-51v-493h51h4h5t4 -1t4.5 -3.5t2.5 -6.5t1 -10zM21 819q0 29 21.5 50.5t50.5 21.5t50.5 -21.5t21.5 -50.5t-21.5 -50.5t-50.5 -21.5t-50.5 21.5t-21.5 50.5zM205 819q0 29 21.5 50.5t50.5 21.5t50.5 -21.5t21.5 -50.5
t-21.5 -50.5t-50.5 -21.5t-50.5 21.5t-21.5 50.5z" />
    <glyph glyph-name="Eth" unicode="&#xd0;" horiz-adv-x="621" 
d="M62 685h229q140 0 202 -52q89 -74 89 -287q0 -218 -96 -295q-65 -51 -198 -51h-227q-13 0 -17 4t-4 17v54q0 6 1 10t2.5 6.5t4.5 3.5t4 1h5h4h51v215h-49h-9.5t-6.5 5t-4 15v50q0 7 0.5 10t5 6.5t14.5 3.5h49v188h-51h-4h-5t-4 1t-4.5 3.5t-2.5 6.5t-1 10v54q0 6 1 10
t2.5 6.5t4.5 3.5t4 1h6h4zM247 311v-203h46q68 0 104 38q43 44 43 202q0 147 -43 191q-36 38 -105 38h-45v-176h103h3q6 0 9 -0.5t5.5 -5t2.5 -14.5v-50q0 -6 -1 -10l-1.5 -6t-3 -3t-3.5 -1h-5.5h-5.5h-103z" />
    <glyph glyph-name="Ntilde" unicode="&#xd1;" horiz-adv-x="671" 
d="M577 589v-568v-4v-4.5t-0.5 -3.5t-2 -4t-4 -2.5t-6 -2t-8.5 -0.5h-66q-19 0 -23 14l-184 341q-32 60 -59 136h-2q1 -29 2.5 -54t2 -36t0.5 -20v-285h50h4h5t4 -1t4.5 -3.5t2.5 -6.5t1 -10v-54q0 -6 -1 -10t-2.5 -6.5t-4.5 -3.5t-4 -1h-5h-4h-216h-4h-5t-4 1t-4.5 3.5
t-2.5 6.5t-1 10v54q0 6 1 10t2.5 6.5t4.5 3.5t4 1h5h4h51v493h-51h-4h-5t-4 1t-4.5 3.5t-2.5 6.5t-1 10v54q0 6 1 10t2.5 6.5t4.5 3.5t4 1h5h4h154q5 0 8.5 -0.5t5.5 -1t3.5 -2t2 -2.5t2 -3.5t1.5 -3.5l166 -310q36 -66 60 -145h2q-4 113 -4 130v242h-50h-4h-5t-4 1
t-4.5 3.5t-2.5 6.5t-1 10v54q0 6 1 10t2.5 6.5t4.5 3.5t4 1h5h4h216h4h5t4 -1t4.5 -3.5t2.5 -6.5t1 -10v-54q0 -6 -1 -10t-2.5 -6.5t-4.5 -3.5t-4 -1h-5h-4h-51zM256 762l-49 24q-6 3 -6 8q0 2 2 8l7 14q35 73 95 73q37 0 79 -26q17 -10 30 -10q17 0 30 25l3 6q5 10 16 4
l49 -25q6 -3 6 -10q0 -5 -5 -13l-11 -19q-11 -19 -29 -37q-24 -24 -61 -24q-27 0 -59 18q-30 18 -41 18q-23 0 -38 -27l-3 -5q-5 -7 -15 -2z" />
    <glyph glyph-name="Ograve" unicode="&#xd2;" horiz-adv-x="593" 
d="M296 -17q-50 0 -90.5 16.5t-66 41.5t-44 61.5t-27.5 67.5t-14 70t-6 59t-1 43t1 43.5t6 59.5t14 70t27.5 67.5t44 61.5t66 41.5t90.5 16.5t90.5 -17t66 -41.5t44 -61.5t27.5 -68.5t14 -70t6 -59t1 -42.5q0 -23 -1 -43t-6 -59t-14 -70t-27.5 -67.5t-44 -61.5t-66 -41.5
t-90.5 -16.5zM296 88q107 0 107 254q0 255 -107 255t-107 -255q0 -254 107 -254zM160 900l182 -86q12 -6 12 -14q0 -2 -2 -6l-19 -43q-5 -10 -10 -10q-1 0 -9 2l-198 57l-2 1l-4.5 1.5t-3 2.5t-1.5 4q0 6 1 9l31 75q5 11 11 11q3 0 12 -4z" />
    <glyph glyph-name="Oacute" unicode="&#xd3;" horiz-adv-x="593" 
d="M296 -17q-50 0 -90.5 16.5t-66 41.5t-44 61.5t-27.5 67.5t-14 70t-6 59t-1 43t1 43.5t6 59.5t14 70t27.5 67.5t44 61.5t66 41.5t90.5 16.5t90.5 -17t66 -41.5t44 -61.5t27.5 -68.5t14 -70t6 -59t1 -42.5q0 -23 -1 -43t-6 -59t-14 -70t-27.5 -67.5t-44 -61.5t-66 -41.5
t-90.5 -16.5zM296 88q107 0 107 254q0 255 -107 255t-107 -255q0 -254 107 -254zM251 814l182 86q9 4 12 4q5 0 11 -11l31 -75q1 -3 1 -9q0 -2 -1.5 -4t-3 -2.5t-3.5 -1.5l-3 -1l-198 -57q-8 -2 -9 -2q-5 0 -10 10l-19 43q-2 4 -2 6q0 8 12 14z" />
    <glyph glyph-name="Ocircumflex" unicode="&#xd4;" horiz-adv-x="593" 
d="M296 -17q-50 0 -90.5 16.5t-66 41.5t-44 61.5t-27.5 67.5t-14 70t-6 59t-1 43t1 43.5t6 59.5t14 70t27.5 67.5t44 61.5t66 41.5t90.5 16.5t90.5 -17t66 -41.5t44 -61.5t27.5 -68.5t14 -70t6 -59t1 -42.5q0 -23 -1 -43t-6 -59t-14 -70t-27.5 -67.5t-44 -61.5t-66 -41.5
t-90.5 -16.5zM296 88q107 0 107 254q0 255 -107 255t-107 -255q0 -254 107 -254zM296 786l-104 -47q-4 -2 -6 -2q-6 0 -10 7l-27 45q-2 4 -2 7q0 6 9 11l126 87q5 5 14 5t14 -5l126 -87q9 -5 9 -11q0 -3 -2 -7l-27 -45q-4 -7 -10 -7q-2 0 -6 2z" />
    <glyph glyph-name="Otilde" unicode="&#xd5;" horiz-adv-x="593" 
d="M296 -17q-50 0 -90.5 16.5t-66 41.5t-44 61.5t-27.5 67.5t-14 70t-6 59t-1 43t1 43.5t6 59.5t14 70t27.5 67.5t44 61.5t66 41.5t90.5 16.5t90.5 -17t66 -41.5t44 -61.5t27.5 -68.5t14 -70t6 -59t1 -42.5q0 -23 -1 -43t-6 -59t-14 -70t-27.5 -67.5t-44 -61.5t-66 -41.5
t-90.5 -16.5zM296 88q107 0 107 254q0 255 -107 255t-107 -255q0 -254 107 -254zM193 762l-49 24q-6 3 -6 8q0 2 2 8l7 14q35 73 95 73q37 0 79 -26q17 -10 30 -10q17 0 30 25l3 6q5 10 16 4l49 -25q6 -3 6 -10q0 -5 -5 -13l-11 -19q-11 -19 -29 -37q-24 -24 -61 -24
q-27 0 -59 18q-30 18 -41 18q-23 0 -38 -27l-3 -5q-5 -7 -15 -2z" />
    <glyph glyph-name="Odieresis" unicode="&#xd6;" horiz-adv-x="593" 
d="M296 -17q-50 0 -90.5 16.5t-66 41.5t-44 61.5t-27.5 67.5t-14 70t-6 59t-1 43t1 43.5t6 59.5t14 70t27.5 67.5t44 61.5t66 41.5t90.5 16.5t90.5 -17t66 -41.5t44 -61.5t27.5 -68.5t14 -70t6 -59t1 -42.5q0 -23 -1 -43t-6 -59t-14 -70t-27.5 -67.5t-44 -61.5t-66 -41.5
t-90.5 -16.5zM296 88q107 0 107 254q0 255 -107 255t-107 -255q0 -254 107 -254zM132 819q0 29 21.5 50.5t50.5 21.5t50.5 -21.5t21.5 -50.5t-21.5 -50.5t-50.5 -21.5t-50.5 21.5t-21.5 50.5zM316 819q0 29 21.5 50.5t50.5 21.5t50.5 -21.5t21.5 -50.5t-21.5 -50.5
t-50.5 -21.5t-50.5 21.5t-21.5 50.5z" />
    <glyph glyph-name="multiply" unicode="&#xd7;" horiz-adv-x="556" 
d="M278 187l-113 -115q-8 -8 -12 -8t-11 7l-49 48q-7 7 -7 12t7 12l115 113l-115 113q-7 7 -7 12t7 12l48 48q7 7 11 7q6 0 13 -7l113 -115l113 115q7 7 12 7t12 -7l47 -47q8 -8 8 -12q0 -5 -8 -13l-114 -113l116 -115q6 -6 6 -9q0 -5 -8 -13l-48 -48q-7 -7 -11 -7
q-6 0 -12 8z" />
    <glyph glyph-name="Oslash" unicode="&#xd8;" horiz-adv-x="593" 
d="M518 697l-42 -83q69 -98 69 -272q0 -195 -79 -286q-63 -73 -174 -73q-78 0 -129 38l-42 -78q-7 -13 -11 -13q-9 0 -15 3l-35 18q-12 6 -12 13q0 6 5 14l54 102q-60 94 -60 262q0 199 81 290q64 70 174 70q60 0 116 -31l33 63q5 11 12 11q4 0 12 -4l39 -20q9 -6 9 -10
q0 -7 -5 -14zM360 560q-20 37 -59 37q-35 0 -58.5 -22t-34 -63t-14.5 -79t-5 -91v-54q1 -56 4 -77zM227 127q23 -39 64 -39q112 0 112 254q0 78 -11 131z" />
    <glyph glyph-name="Ugrave" unicode="&#xd9;" horiz-adv-x="685" 
d="M584 589v-357q0 -142 -75 -204q-56 -45 -166 -45t-166 45q-75 61 -75 204v357h-51h-4h-5t-4 1t-4.5 3.5t-2.5 6.5t-1 10v54q0 6 1 10t2.5 6.5t4.5 3.5t4 1h5h4h236h4h5t4 -1t4.5 -3.5t2.5 -6.5t1 -10v-54q0 -6 -1 -10t-2.5 -6.5t-4.5 -3.5t-4 -1h-5h-4h-50v-357
q0 -89 31 -118q25 -23 75 -23q36 0 59 12.5t32.5 36.5t12 43t2.5 49v357h-50h-4h-5t-4 1t-4.5 3.5t-2.5 6.5t-1 10v54q0 6 1 10t2.5 6.5t4.5 3.5t4 1h5h4h236h4h5t4 -1t4.5 -3.5t2.5 -6.5t1 -10v-54q0 -6 -1 -10t-2.5 -6.5t-4.5 -3.5t-4 -1h-5h-4h-51zM206 900l182 -86
q12 -6 12 -14q0 -2 -2 -6l-19 -43q-5 -10 -10 -10q-1 0 -9 2l-198 57l-2 1l-4.5 1.5t-3 2.5t-1.5 4q0 6 1 9l31 75q5 11 11 11q3 0 12 -4z" />
    <glyph glyph-name="Uacute" unicode="&#xda;" horiz-adv-x="685" 
d="M584 589v-357q0 -142 -75 -204q-56 -45 -166 -45t-166 45q-75 61 -75 204v357h-51h-4h-5t-4 1t-4.5 3.5t-2.5 6.5t-1 10v54q0 6 1 10t2.5 6.5t4.5 3.5t4 1h5h4h236h4h5t4 -1t4.5 -3.5t2.5 -6.5t1 -10v-54q0 -6 -1 -10t-2.5 -6.5t-4.5 -3.5t-4 -1h-5h-4h-50v-357
q0 -89 31 -118q25 -23 75 -23q36 0 59 12.5t32.5 36.5t12 43t2.5 49v357h-50h-4h-5t-4 1t-4.5 3.5t-2.5 6.5t-1 10v54q0 6 1 10t2.5 6.5t4.5 3.5t4 1h5h4h236h4h5t4 -1t4.5 -3.5t2.5 -6.5t1 -10v-54q0 -6 -1 -10t-2.5 -6.5t-4.5 -3.5t-4 -1h-5h-4h-51zM297 814l182 86
q9 4 12 4q5 0 11 -11l31 -75q1 -3 1 -9q0 -2 -1.5 -4t-3 -2.5t-3.5 -1.5l-3 -1l-198 -57q-8 -2 -9 -2q-5 0 -10 10l-19 43q-2 4 -2 6q0 8 12 14z" />
    <glyph glyph-name="Ucircumflex" unicode="&#xdb;" horiz-adv-x="685" 
d="M584 589v-357q0 -142 -75 -204q-56 -45 -166 -45t-166 45q-75 61 -75 204v357h-51h-4h-5t-4 1t-4.5 3.5t-2.5 6.5t-1 10v54q0 6 1 10t2.5 6.5t4.5 3.5t4 1h5h4h236h4h5t4 -1t4.5 -3.5t2.5 -6.5t1 -10v-54q0 -6 -1 -10t-2.5 -6.5t-4.5 -3.5t-4 -1h-5h-4h-50v-357
q0 -89 31 -118q25 -23 75 -23q36 0 59 12.5t32.5 36.5t12 43t2.5 49v357h-50h-4h-5t-4 1t-4.5 3.5t-2.5 6.5t-1 10v54q0 6 1 10t2.5 6.5t4.5 3.5t4 1h5h4h236h4h5t4 -1t4.5 -3.5t2.5 -6.5t1 -10v-54q0 -6 -1 -10t-2.5 -6.5t-4.5 -3.5t-4 -1h-5h-4h-51zM342 786l-104 -47
q-4 -2 -6 -2q-6 0 -10 7l-27 45q-2 4 -2 7q0 6 9 11l126 87q5 5 14 5t14 -5l126 -87q9 -5 9 -11q0 -3 -2 -7l-27 -45q-4 -7 -10 -7q-2 0 -6 2z" />
    <glyph glyph-name="Udieresis" unicode="&#xdc;" horiz-adv-x="685" 
d="M584 589v-357q0 -142 -75 -204q-56 -45 -166 -45t-166 45q-75 61 -75 204v357h-51h-4h-5t-4 1t-4.5 3.5t-2.5 6.5t-1 10v54q0 6 1 10t2.5 6.5t4.5 3.5t4 1h5h4h236h4h5t4 -1t4.5 -3.5t2.5 -6.5t1 -10v-54q0 -6 -1 -10t-2.5 -6.5t-4.5 -3.5t-4 -1h-5h-4h-50v-357
q0 -89 31 -118q25 -23 75 -23q36 0 59 12.5t32.5 36.5t12 43t2.5 49v357h-50h-4h-5t-4 1t-4.5 3.5t-2.5 6.5t-1 10v54q0 6 1 10t2.5 6.5t4.5 3.5t4 1h5h4h236h4h5t4 -1t4.5 -3.5t2.5 -6.5t1 -10v-54q0 -6 -1 -10t-2.5 -6.5t-4.5 -3.5t-4 -1h-5h-4h-51zM178 819
q0 29 21.5 50.5t50.5 21.5t50.5 -21.5t21.5 -50.5t-21.5 -50.5t-50.5 -21.5t-50.5 21.5t-21.5 50.5zM362 819q0 29 21.5 50.5t50.5 21.5t50.5 -21.5t21.5 -50.5t-21.5 -50.5t-50.5 -21.5t-50.5 21.5t-21.5 50.5z" />
    <glyph glyph-name="Yacute" unicode="&#xdd;" horiz-adv-x="547" 
d="M430 75v-54q0 -6 -1 -10t-2.5 -6.5t-4.5 -3.5t-4 -1h-5h-4h-271h-4h-5t-4 1t-4.5 3.5t-2.5 6.5t-1 10v54q0 6 1 10t2.5 6.5t4.5 3.5t4 1h5h4h68v185l-159 308h-26h-3.5h-3.5t-3 0.5t-3 1.5t-2 3t-1.5 5t-0.5 7v62v3.5v3.5t0.5 3t1.5 3t3 2t5 1.5t7 0.5h114q15 0 22 -13
l78 -162q26 -51 41 -114h2l5 17q22 74 34 97l78 162l3.5 7t3 4t3.5 1.5t3 0.5h4h5h109h3.5h3.5t3 -0.5t3 -1.5t2 -3t1.5 -5t0.5 -7v-62q0 -8 -2 -12t-4.5 -4.5t-7.5 -0.5h-3h-32l-153 -308v-185h68h4h5t4 -1t4.5 -3.5t2.5 -6.5t1 -10zM252 814l182 86q9 4 12 4q6 0 11 -11
l31 -75q1 -3 1 -9q0 -2 -1.5 -4t-3 -2.5l-4.5 -1.5l-2 -1l-198 -57q-8 -2 -9 -2q-5 0 -10 10l-19 43q-2 4 -2 6q0 8 12 14z" />
    <glyph glyph-name="Thorn" unicode="&#xde;" horiz-adv-x="556" 
d="M334 75v-54q0 -6 -1 -10t-2.5 -6.5t-4.5 -3.5t-4 -1h-5h-4h-252h-4h-5t-4 1t-4.5 3.5t-2.5 6.5t-1 10v54q0 6 1 10t2.5 6.5t4.5 3.5t4 1h5h4h51v493h-51h-4h-5t-4 1t-4.5 3.5t-2.5 6.5t-1 10v54q0 6 1 10t2.5 6.5t4.5 3.5t4 1h5h4h236h4h5t4 -1t4.5 -3.5t2.5 -6.5t1 -10
v-54q0 -6 -1 -10t-2.5 -6.5t-4.5 -3.5t-4 -1h-5h-4h-50v-52h95q85 0 135.5 -46.5t50.5 -129.5q0 -91 -57.5 -150t-170.5 -59h-53v-56h66h4h5t4 -1t4.5 -3.5t2.5 -6.5t1 -10zM247 248h41q66 0 91 32q19 22 19 65q0 44 -23 68q-27 28 -87 28h-41v-193z" />
    <glyph glyph-name="germandbls" unicode="&#xdf;" horiz-adv-x="630" 
d="M95 93v402q0 125 67 182q55 47 157 47q104 0 151 -44t47 -101q0 -10 -1 -19.5t-4 -18t-5.5 -15t-8 -14.5t-8 -12.5t-9.5 -12t-9 -10t-10 -10t-9 -8.5l-5 -5q-32 -32 -32 -51q0 -7 1.5 -13t5.5 -12t7.5 -10t10.5 -10.5t11 -9.5t13.5 -10t12.5 -10q62 -48 88.5 -85.5
t26.5 -98.5q0 -81 -48.5 -121t-125.5 -40q-71 0 -116 21q-21 9 -16 26l17 65q3 8 9 8q3 0 15 -5q59 -25 88 -25q31 0 46.5 15.5t15.5 40.5q0 23 -13 43.5t-26 32t-41 32.5q-32 24 -49 39t-32.5 42.5t-15.5 58.5q0 50 48 102q1 2 8.5 9.5l9.5 9.5t7.5 9t7.5 10.5t6 9.5t5 11
t2.5 11.5t1.5 12.5q0 27 -20 44.5t-58 17.5q-27 0 -46 -7.5t-29 -18t-15 -28.5t-6 -31t-1 -33v-492q0 -7 -3 -10.5t-5 -3.5h-6h-164q-14 0 -14 14v65q0 14 14 14h51z" />
    <glyph glyph-name="agrave" unicode="&#xe0;" 
d="M488 79v-65v-2q0 -4 -0.5 -6t-3.5 -4t-10 -2h-125q-22 0 -29 37q0 1 -0.5 3t-0.5 3q-31 -32 -60.5 -46t-68.5 -14q-62 0 -106 38.5t-44 115.5q0 90 64 129.5t183 39.5h14v31q0 12 -0.5 18.5t-3.5 19t-9 19t-19 12t-31 5.5q-47 0 -101 -20q-28 -10 -31 -10q-8 0 -10 10
l-20 61q-5 5 -2.5 15t22.5 17q71 27 164 27q161 0 161 -161v-173q0 -44 9 -80l1 -4h43q14 0 14 -14zM301 114v110h-6q-69 0 -99 -17q-36 -22 -36 -63q0 -30 18.5 -49t47.5 -19q35 0 75 38zM304 567l-178 71q-16 5 -16 13q0 6 4 12l33 65q7 12 13 12q5 0 11 -4l166 -98
q13 -8 13 -14q0 -4 -4 -12l-17 -34q-6 -13 -13 -14h-4q-2 0 -4.5 1.5t-3.5 1.5z" />
    <glyph glyph-name="aacute" unicode="&#xe1;" 
d="M488 79v-65v-2q0 -4 -0.5 -6t-3.5 -4t-10 -2h-125q-22 0 -29 37q0 1 -0.5 3t-0.5 3q-31 -32 -60.5 -46t-68.5 -14q-62 0 -106 38.5t-44 115.5q0 90 64 129.5t183 39.5h14v31q0 12 -0.5 18.5t-3.5 19t-9 19t-19 12t-31 5.5q-47 0 -101 -20q-28 -10 -31 -10q-8 0 -10 10
l-20 61q-5 5 -2.5 15t22.5 17q71 27 164 27q161 0 161 -161v-173q0 -44 9 -80l1 -4h43q14 0 14 -14zM301 114v110h-6q-69 0 -99 -17q-36 -22 -36 -63q0 -30 18.5 -49t47.5 -19q35 0 75 38zM423 638l-178 -71q-6 -3 -12 -3t-13 14l-17 34q-4 8 -4 12q0 6 13 14l166 98
q6 4 11 4q6 0 13 -12l33 -65q4 -6 4 -12q0 -8 -16 -13z" />
    <glyph glyph-name="acircumflex" unicode="&#xe2;" 
d="M488 79v-65v-2q0 -4 -0.5 -6t-3.5 -4t-10 -2h-125q-22 0 -29 37q0 1 -0.5 3t-0.5 3q-31 -32 -60.5 -46t-68.5 -14q-62 0 -106 38.5t-44 115.5q0 90 64 129.5t183 39.5h14v31q0 12 -0.5 18.5t-3.5 19t-9 19t-19 12t-31 5.5q-47 0 -101 -20q-28 -10 -31 -10q-8 0 -10 10
l-20 61q-5 5 -2.5 15t22.5 17q71 27 164 27q161 0 161 -161v-173q0 -44 9 -80l1 -4h43q14 0 14 -14zM301 114v110h-6q-69 0 -99 -17q-36 -22 -36 -63q0 -30 18.5 -49t47.5 -19q35 0 75 38zM404 609l-19 -32q-7 -13 -14 -13q-6 0 -14 6l-86 49l-86 -49q-10 -6 -14 -6
q-7 0 -14 13l-19 32q-6 12 -6 14q0 5 9 12l118 93q6 6 12 6t12 -6l118 -93q9 -7 9 -12q0 -6 -6 -14z" />
    <glyph glyph-name="atilde" unicode="&#xe3;" 
d="M488 79v-65v-2q0 -4 -0.5 -6t-3.5 -4t-10 -2h-125q-22 0 -29 37q0 1 -0.5 3t-0.5 3q-31 -32 -60.5 -46t-68.5 -14q-62 0 -106 38.5t-44 115.5q0 90 64 129.5t183 39.5h14v31q0 12 -0.5 18.5t-3.5 19t-9 19t-19 12t-31 5.5q-47 0 -101 -20q-28 -10 -31 -10q-8 0 -10 10
l-20 61q-5 5 -2.5 15t22.5 17q71 27 164 27q161 0 161 -161v-173q0 -44 9 -80l1 -4h43q14 0 14 -14zM301 114v110h-6q-69 0 -99 -17q-36 -22 -36 -63q0 -30 18.5 -49t47.5 -19q35 0 75 38zM167 590l-47 24q-7 2 -7 8q0 7 18 39q35 55 87 55q27 0 63 -21q24 -14 37 -14
q16 0 30 22l5 8q6 8 15 4l47 -24q7 -4 7 -9q0 -7 -22 -44q-35 -50 -82 -50q-29 0 -62 21q-23 14 -35 14q-21 0 -36 -26l-3 -5q-2 -5 -6 -5z" />
    <glyph glyph-name="adieresis" unicode="&#xe4;" 
d="M488 79v-65v-2q0 -4 -0.5 -6t-3.5 -4t-10 -2h-125q-22 0 -29 37q0 1 -0.5 3t-0.5 3q-31 -32 -60.5 -46t-68.5 -14q-62 0 -106 38.5t-44 115.5q0 90 64 129.5t183 39.5h14v31q0 12 -0.5 18.5t-3.5 19t-9 19t-19 12t-31 5.5q-47 0 -101 -20q-28 -10 -31 -10q-8 0 -10 10
l-20 61q-5 5 -2.5 15t22.5 17q71 27 164 27q161 0 161 -161v-173q0 -44 9 -80l1 -4h43q14 0 14 -14zM301 114v110h-6q-69 0 -99 -17q-36 -22 -36 -63q0 -30 18.5 -49t47.5 -19q35 0 75 38zM249 652q0 -28 -20.5 -48.5t-48.5 -20.5t-48.5 20.5t-20.5 48.5t20.5 48.5
t48.5 20.5t48.5 -20.5t20.5 -48.5zM426 652q0 -28 -20.5 -48.5t-48.5 -20.5q-29 0 -49 20.5t-20 48.5t20 48.5t49 20.5q28 0 48.5 -21t20.5 -48z" />
    <glyph glyph-name="aring" unicode="&#xe5;" 
d="M488 79v-65v-2q0 -4 -0.5 -6t-3.5 -4t-10 -2h-125q-22 0 -29 37q0 1 -0.5 3t-0.5 3q-31 -32 -60.5 -46t-68.5 -14q-62 0 -106 38.5t-44 115.5q0 90 64 129.5t183 39.5h14v31q0 12 -0.5 18.5t-3.5 19t-9 19t-19 12t-31 5.5q-47 0 -101 -20q-28 -10 -31 -10q-8 0 -10 10
l-20 61q-5 5 -2.5 15t22.5 17q71 27 164 27q161 0 161 -161v-173q0 -44 9 -80l1 -4h43q14 0 14 -14zM301 114v110h-6q-69 0 -99 -17q-36 -22 -36 -63q0 -30 18.5 -49t47.5 -19q35 0 75 38zM372 668q0 -43 -31 -73.5t-74 -30.5t-73.5 30.5t-30.5 73.5t31 74t73 31
q43 0 74 -31t31 -74zM267 626q16 0 29.5 11.5t13.5 30.5q0 18 -12.5 30.5t-30.5 12.5q-16 0 -29 -11.5t-13 -31.5t14 -31t28 -11z" />
    <glyph glyph-name="ae" unicode="&#xe6;" horiz-adv-x="747" 
d="M664 113l25 -60q7 -17 -8 -28q-23 -16 -71.5 -29t-96.5 -13q-99 0 -157 68q-81 -68 -163 -68q-68 0 -109 41.5t-41 108.5q0 100 79 143q59 33 178 30v31q0 45 -18 61q-14 13 -42 13q-46 0 -104 -22q-20 -8 -27 -8t-10 10l-20 61q-6 10 -2 17.5t28 15.5q73 26 143 26
q89 0 128 -65q56 65 135 65q106 0 156 -84q37 -61 41 -167v-6.5v-8.5v-7q-1 -16 -4.5 -20.5t-18.5 -4.5h-265q-2 -40 13 -71q24 -54 93 -54q57 0 107 26q12 7 19 7q8 0 12 -8zM420 306h153q4 60 -22 91q-19 21 -50 21q-34 0 -54 -23q-20 -22 -26 -79zM300 114v110h-6
q-64 0 -92 -15q-39 -20 -39 -63q0 -28 17.5 -49t47.5 -21q34 0 67 33z" />
    <glyph glyph-name="ccedilla" unicode="&#xe7;" horiz-adv-x="426" 
d="M399 468v-135q0 -7 -3 -10.5t-5 -3.5h-6h-72h-6t-5 3.5t-3 10.5v74q-8 4 -24 4q-56 0 -80 -50q-20 -40 -20 -117q0 -78 20 -115q24 -46 83 -46q34 0 80 20q12 4 15 -3l27 -69q5 -13 -10 -21q-52 -27 -111 -27l-3 -35q32 -1 51.5 -21.5t19.5 -50.5q0 -33 -25.5 -60.5
t-83.5 -27.5q-34 0 -51.5 4.5t-19.5 9t-1 10.5l8 41q1 7 7 7q8 0 18.5 -3.5t22.5 -3.5q32 0 32 23t-43 23h-8q-12 0 -11 18l7 73q-78 17 -118.5 82.5t-40.5 164.5q0 136 70 209q62 65 166 65q47 0 85 -12.5t38 -30.5z" />
    <glyph glyph-name="egrave" unicode="&#xe8;" 
d="M439 213h-269q0 -125 110 -125q51 0 100 23q2 1 5.5 2.5t5.5 2.5q12 5 16 5q8 0 11 -8l25 -59q3 -9 3 -11q0 -9 -16 -20q-62 -40 -160 -40q-105 0 -162 58q-65 67 -65 193q0 132 66 208q60 69 153 69q27 0 51 -5t52.5 -22t49 -45t34 -78t13.5 -116q0 -20 -4 -26t-19 -6z
M170 306h157v10q0 24 -4 41q-6 27 -22 43q-20 18 -48 18q-35 0 -57 -27q-21 -27 -26 -85zM299 567l-178 71q-16 5 -16 13q0 6 4 12l33 65q7 12 13 12q5 0 11 -4l166 -98q13 -8 13 -14q0 -4 -4 -12l-17 -34q-6 -13 -13 -14h-4q-2 0 -4.5 1.5t-3.5 1.5z" />
    <glyph glyph-name="eacute" unicode="&#xe9;" 
d="M439 213h-269q0 -125 110 -125q51 0 100 23q2 1 5.5 2.5t5.5 2.5q12 5 16 5q8 0 11 -8l25 -59q3 -9 3 -11q0 -9 -16 -20q-62 -40 -160 -40q-105 0 -162 58q-65 67 -65 193q0 132 66 208q60 69 153 69q27 0 51 -5t52.5 -22t49 -45t34 -78t13.5 -116q0 -20 -4 -26t-19 -6z
M170 306h157v10q0 24 -4 41q-6 27 -22 43q-20 18 -48 18q-35 0 -57 -27q-21 -27 -26 -85zM431 638l-178 -71q-6 -3 -12 -3t-13 14l-17 34q-4 8 -4 12q0 6 13 14l166 98q6 4 11 4q6 0 13 -12l33 -65q4 -6 4 -12q0 -8 -16 -13z" />
    <glyph glyph-name="ecircumflex" unicode="&#xea;" 
d="M439 213h-269q0 -125 110 -125q51 0 100 23q2 1 5.5 2.5t5.5 2.5q12 5 16 5q8 0 11 -8l25 -59q3 -9 3 -11q0 -9 -16 -20q-62 -40 -160 -40q-105 0 -162 58q-65 67 -65 193q0 132 66 208q60 69 153 69q27 0 51 -5t52.5 -22t49 -45t34 -78t13.5 -116q0 -20 -4 -26t-19 -6z
M170 306h157v10q0 24 -4 41q-6 27 -22 43q-20 18 -48 18q-35 0 -57 -27q-21 -27 -26 -85zM394 609l-19 -32q-7 -13 -14 -13q-6 0 -14 6l-86 49l-86 -49q-10 -6 -14 -6q-7 0 -14 13l-19 32q-6 12 -6 14q0 5 9 12l118 93q6 6 12 6t12 -6l118 -93q9 -7 9 -12q0 -6 -6 -14z" />
    <glyph glyph-name="edieresis" unicode="&#xeb;" 
d="M439 213h-269q0 -125 110 -125q51 0 100 23q2 1 5.5 2.5t5.5 2.5q12 5 16 5q8 0 11 -8l25 -59q3 -9 3 -11q0 -9 -16 -20q-62 -40 -160 -40q-105 0 -162 58q-65 67 -65 193q0 132 66 208q60 69 153 69q27 0 51 -5t52.5 -22t49 -45t34 -78t13.5 -116q0 -20 -4 -26t-19 -6z
M170 306h157v10q0 24 -4 41q-6 27 -22 43q-20 18 -48 18q-35 0 -57 -27q-21 -27 -26 -85zM250 652q0 -28 -20.5 -48.5t-48.5 -20.5t-48.5 20.5t-20.5 48.5t20.5 48.5t48.5 20.5t48.5 -20.5t20.5 -48.5zM427 652q0 -28 -20.5 -48.5t-48.5 -20.5q-29 0 -49 20.5t-20 48.5
t20 48.5t49 20.5q28 0 48.5 -21t20.5 -48z" />
    <glyph glyph-name="igrave" unicode="&#xec;" horiz-adv-x="333" 
d="M313 79v-65v-2q0 -4 -0.5 -6t-3.5 -4t-10 -2h-255h-6t-5 3.5t-3 10.5v65q0 14 14 14h64v308h-65h-6t-5 3.5t-3 10.5v65q0 14 14 14h178q10 0 12 -3t2 -9v-2v-387h64q10 0 12 -3t2 -9v-2zM212 567l-178 71q-16 5 -16 13q0 6 4 12l33 65q7 12 13 12q5 0 11 -4l166 -98
q13 -8 13 -14q0 -4 -4 -12l-17 -34q-6 -13 -13 -14h-4q-2 0 -4.5 1.5t-3.5 1.5z" />
    <glyph glyph-name="iacute" unicode="&#xed;" horiz-adv-x="333" 
d="M313 79v-65v-2q0 -4 -0.5 -6t-3.5 -4t-10 -2h-255h-6t-5 3.5t-3 10.5v65q0 14 14 14h64v308h-65h-6t-5 3.5t-3 10.5v65q0 14 14 14h178q10 0 12 -3t2 -9v-2v-387h64q10 0 12 -3t2 -9v-2zM304 638l-178 -71q-6 -3 -12 -3t-13 14l-17 34q-4 8 -4 12q0 6 13 14l166 98
q6 4 11 4q6 0 13 -12l33 -65q4 -6 4 -12q0 -8 -16 -13z" />
    <glyph glyph-name="icircumflex" unicode="&#xee;" horiz-adv-x="333" 
d="M313 79v-65v-2q0 -4 -0.5 -6t-3.5 -4t-10 -2h-255h-6t-5 3.5t-3 10.5v65q0 14 14 14h64v308h-65h-6t-5 3.5t-3 10.5v65q0 14 14 14h178q10 0 12 -3t2 -9v-2v-387h64q10 0 12 -3t2 -9v-2zM300 609l-19 -32q-7 -13 -14 -13q-6 0 -14 6l-86 49l-86 -49q-10 -6 -14 -6
q-7 0 -14 13l-19 32q-6 12 -6 14q0 5 9 12l118 93q6 6 12 6t12 -6l118 -93q9 -7 9 -12q0 -6 -6 -14z" />
    <glyph glyph-name="idieresis" unicode="&#xef;" horiz-adv-x="333" 
d="M313 79v-65v-2q0 -4 -0.5 -6t-3.5 -4t-10 -2h-255h-6t-5 3.5t-3 10.5v65q0 14 14 14h64v308h-65h-6t-5 3.5t-3 10.5v65q0 14 14 14h178q10 0 12 -3t2 -9v-2v-387h64q10 0 12 -3t2 -9v-2zM148 652q0 -28 -20.5 -48.5t-48.5 -20.5t-48.5 20.5t-20.5 48.5t20.5 48.5
t48.5 20.5t48.5 -20.5t20.5 -48.5zM325 652q0 -28 -20.5 -48.5t-48.5 -20.5q-29 0 -49 20.5t-20 48.5t20 48.5t49 20.5q28 0 48.5 -21t20.5 -48z" />
    <glyph glyph-name="eth" unicode="&#xf0;" horiz-adv-x="519" 
d="M426 728l18 -39q5 -11 -9 -17l-85 -39q127 -192 127 -388q0 -111 -52 -183q-58 -79 -167 -79q-110 0 -166 80q-49 71 -49 185q0 130 71 205q55 58 130 58q30 0 60 -18l2 2q-18 45 -47 95l-92 -43q-4 -2 -9 -2q-3 0 -7 8l-17 37q-3 6 -3 9q0 5 6 7l90 42l-25 37
q-4 6 -10.5 15t-9.5 13.5t-3 7.5q0 11 13 12l70 8q9 1 26 -16t26 -30l4 -6l95 44q4 2 6 2q3 0 7 -7zM261 83q49 0 70 41q19 37 19 123q0 92 -24 129q-22 35 -65 35t-65 -41q-18 -33 -18 -124q0 -84 17 -120q21 -43 66 -43z" />
    <glyph glyph-name="ntilde" unicode="&#xf1;" horiz-adv-x="599" 
d="M569 79v-65v-2q0 -4 -0.5 -6t-3.5 -4t-10 -2h-164h-6t-5 3.5t-3 10.5v308q0 43 -12 61q-15 23 -44 23q-45 0 -86 -41v-272h51q10 0 12 -3t2 -9v-2v-65v-2q0 -4 -0.5 -6t-3.5 -4t-10 -2h-229h-6t-5 3.5t-3 10.5v65q0 14 14 14h51v223q0 60 -10 85h-48q-14 0 -14 14v65
q0 14 14 14h139q17 0 26 -33q1 -3 2 -5l4 -14l6 5q25 21 37.5 30.5t43.5 21.5t66 12q69 0 102 -43q28 -38 28 -115v-260h51q10 0 12 -3t2 -9v-2zM219 591l-47 24q-7 2 -7 8q0 7 18 39q35 55 87 55q27 0 63 -21q24 -14 37 -14q16 0 30 22l5 8q6 8 15 4l47 -24q7 -4 7 -9
q0 -7 -22 -44q-35 -50 -82 -50q-29 0 -62 21q-23 14 -35 14q-21 0 -36 -26l-3 -5q-2 -5 -6 -5z" />
    <glyph glyph-name="ograve" unicode="&#xf2;" horiz-adv-x="519" 
d="M259 -17q-91 0 -154 66t-63 198t63 198t154 66t154 -66t63 -198t-63 -198t-154 -66zM259 83q44 0 64 38q18 36 18 120q0 98 -21 135q-20 35 -61 35q-42 0 -64 -41q-18 -35 -18 -126q0 -93 20 -127t62 -34zM280 567l-178 71q-16 5 -16 13q0 6 4 12l33 65q7 12 13 12
q5 0 11 -4l166 -98q13 -8 13 -14q0 -4 -4 -12l-17 -34q-6 -13 -13 -14h-4q-2 0 -4.5 1.5t-3.5 1.5z" />
    <glyph glyph-name="oacute" unicode="&#xf3;" horiz-adv-x="519" 
d="M259 -17q-91 0 -154 66t-63 198t63 198t154 66t154 -66t63 -198t-63 -198t-154 -66zM259 83q44 0 64 38q18 36 18 120q0 98 -21 135q-20 35 -61 35q-42 0 -64 -41q-18 -35 -18 -126q0 -93 20 -127t62 -34zM423 638l-178 -71q-6 -3 -12 -3t-13 14l-17 34q-4 8 -4 12
q0 6 13 14l166 98q6 4 11 4q6 0 13 -12l33 -65q4 -6 4 -12q0 -8 -16 -13z" />
    <glyph glyph-name="ocircumflex" unicode="&#xf4;" horiz-adv-x="519" 
d="M259 -17q-91 0 -154 66t-63 198t63 198t154 66t154 -66t63 -198t-63 -198t-154 -66zM259 83q44 0 64 38q18 36 18 120q0 98 -21 135q-20 35 -61 35q-42 0 -64 -41q-18 -35 -18 -126q0 -93 20 -127t62 -34zM393 609l-19 -32q-7 -13 -14 -13q-6 0 -14 6l-86 49l-86 -49
q-10 -6 -14 -6q-7 0 -14 13l-19 32q-6 12 -6 14q0 5 9 12l118 93q6 6 12 6t12 -6l118 -93q9 -7 9 -12q0 -6 -6 -14z" />
    <glyph glyph-name="otilde" unicode="&#xf5;" horiz-adv-x="519" 
d="M259 -17q-91 0 -154 66t-63 198t63 198t154 66t154 -66t63 -198t-63 -198t-154 -66zM259 83q44 0 64 38q18 36 18 120q0 98 -21 135q-20 35 -61 35q-42 0 -64 -41q-18 -35 -18 -126q0 -93 20 -127t62 -34zM159 590l-47 24q-7 2 -7 8q0 7 18 39q35 55 87 55q27 0 63 -21
q24 -14 37 -14q16 0 30 22l5 8q6 8 15 4l47 -24q7 -4 7 -9q0 -7 -22 -44q-35 -50 -82 -50q-29 0 -62 21q-23 14 -35 14q-21 0 -36 -26l-3 -5q-2 -5 -6 -5z" />
    <glyph glyph-name="odieresis" unicode="&#xf6;" horiz-adv-x="519" 
d="M259 -17q-91 0 -154 66t-63 198t63 198t154 66t154 -66t63 -198t-63 -198t-154 -66zM259 83q44 0 64 38q18 36 18 120q0 98 -21 135q-20 35 -61 35q-42 0 -64 -41q-18 -35 -18 -126q0 -93 20 -127t62 -34zM241 652q0 -28 -20.5 -48.5t-48.5 -20.5t-48.5 20.5t-20.5 48.5
t20.5 48.5t48.5 20.5t48.5 -20.5t20.5 -48.5zM418 652q0 -28 -20.5 -48.5t-48.5 -20.5q-29 0 -49 20.5t-20 48.5t20 48.5t49 20.5q28 0 48.5 -21t20.5 -48z" />
    <glyph glyph-name="divide" unicode="&#xf7;" horiz-adv-x="556" 
d="M349 85q0 -29 -21 -50t-50 -21t-50 21t-21 50t21 50t50 21t50 -21t21 -50zM505 290v-66v-3.5v-3.5t-0.5 -3t-1.5 -3t-3 -2t-5 -1.5t-7 -0.5h-420q-8 0 -12 2t-4.5 4.5t-0.5 7.5v3v66q0 8 3 12t5.5 4.5t6.5 0.5h2h420h3.5h3.5t3 -0.5t3 -1.5t2 -3t1.5 -5t0.5 -7zM349 429
q0 -29 -21 -50t-50 -21t-50 21t-21 50t21 50t50 21t50 -21t21 -50z" />
    <glyph glyph-name="oslash" unicode="&#xf8;" horiz-adv-x="519" 
d="M408 540l25 -14q12 -7 12 -12q0 -1 -5 -11l-30 -55q66 -70 66 -201q0 -118 -56 -190q-58 -74 -161 -74q-58 0 -100 23l-29 -50q-6 -10 -10 -10q-5 0 -12 4l-29 16q-7 4 -7 10t4 12l31 56q-65 67 -65 203q0 124 60 195q60 69 157 69q64 0 100 -23l27 46q7 10 10 10
q5 0 12 -4zM344 351l-132 -253q18 -15 47 -15q57 0 79 45q18 38 18 119q0 58 -12 104zM173 139l133 255q-14 17 -47 17q-53 0 -78 -47q-19 -36 -19 -117q0 -69 11 -108z" />
    <glyph glyph-name="ugrave" unicode="&#xf9;" horiz-adv-x="586" 
d="M554 79v-65v-2q0 -4 -0.5 -6t-3.5 -4t-10 -2h-133q-20 0 -29 35l-3 12l-12 -11q-24 -21 -38 -29q-43 -24 -99 -24q-81 0 -113 54q-21 35 -21 104v260h-51h-6t-5 3.5t-3 10.5v65q0 14 14 14h164q10 0 12 -3t2 -9v-2v-308q0 -43 9 -61q13 -28 49 -28q43 0 84 41v277h-51h-6
t-5 3.5t-3 10.5v65q0 14 14 14h164q10 0 12 -3t2 -9v-2v-302q0 -60 10 -85h42h2q4 0 6 -0.5t4 -3.5t2 -10zM299 567l-178 71q-16 5 -16 13q0 6 4 12l33 65q7 12 13 12q5 0 11 -4l166 -98q13 -8 13 -14q0 -4 -4 -12l-17 -34q-6 -13 -13 -14h-4q-2 0 -4.5 1.5t-3.5 1.5z" />
    <glyph glyph-name="uacute" unicode="&#xfa;" horiz-adv-x="586" 
d="M554 79v-65v-2q0 -4 -0.5 -6t-3.5 -4t-10 -2h-133q-20 0 -29 35l-3 12l-12 -11q-24 -21 -38 -29q-43 -24 -99 -24q-81 0 -113 54q-21 35 -21 104v260h-51h-6t-5 3.5t-3 10.5v65q0 14 14 14h164q10 0 12 -3t2 -9v-2v-308q0 -43 9 -61q13 -28 49 -28q43 0 84 41v277h-51h-6
t-5 3.5t-3 10.5v65q0 14 14 14h164q10 0 12 -3t2 -9v-2v-302q0 -60 10 -85h42h2q4 0 6 -0.5t4 -3.5t2 -10zM472 638l-178 -71q-6 -3 -12 -3t-13 14l-17 34q-4 8 -4 12q0 6 13 14l166 98q6 4 11 4q6 0 13 -12l33 -65q4 -6 4 -12q0 -8 -16 -13z" />
    <glyph glyph-name="ucircumflex" unicode="&#xfb;" horiz-adv-x="586" 
d="M554 79v-65v-2q0 -4 -0.5 -6t-3.5 -4t-10 -2h-133q-20 0 -29 35l-3 12l-12 -11q-24 -21 -38 -29q-43 -24 -99 -24q-81 0 -113 54q-21 35 -21 104v260h-51h-6t-5 3.5t-3 10.5v65q0 14 14 14h164q10 0 12 -3t2 -9v-2v-308q0 -43 9 -61q13 -28 49 -28q43 0 84 41v277h-51h-6
t-5 3.5t-3 10.5v65q0 14 14 14h164q10 0 12 -3t2 -9v-2v-302q0 -60 10 -85h42h2q4 0 6 -0.5t4 -3.5t2 -10zM426 609l-19 -32q-7 -13 -14 -13q-6 0 -14 6l-86 49l-86 -49q-10 -6 -14 -6q-7 0 -14 13l-19 32q-6 12 -6 14q0 5 9 12l118 93q6 6 12 6t12 -6l118 -93q9 -7 9 -12
q0 -6 -6 -14z" />
    <glyph glyph-name="udieresis" unicode="&#xfc;" horiz-adv-x="586" 
d="M554 79v-65v-2q0 -4 -0.5 -6t-3.5 -4t-10 -2h-133q-20 0 -29 35l-3 12l-12 -11q-24 -21 -38 -29q-43 -24 -99 -24q-81 0 -113 54q-21 35 -21 104v260h-51h-6t-5 3.5t-3 10.5v65q0 14 14 14h164q10 0 12 -3t2 -9v-2v-308q0 -43 9 -61q13 -28 49 -28q43 0 84 41v277h-51h-6
t-5 3.5t-3 10.5v65q0 14 14 14h164q10 0 12 -3t2 -9v-2v-302q0 -60 10 -85h42h2q4 0 6 -0.5t4 -3.5t2 -10zM274 652q0 -28 -20.5 -48.5t-48.5 -20.5t-48.5 20.5t-20.5 48.5t20.5 48.5t48.5 20.5t48.5 -20.5t20.5 -48.5zM451 652q0 -28 -20.5 -48.5t-48.5 -20.5
q-29 0 -49 20.5t-20 48.5t20 48.5t49 20.5q28 0 48.5 -21t20.5 -48z" />
    <glyph glyph-name="yacute" unicode="&#xfd;" horiz-adv-x="516" 
d="M463 401l-98 -363q-2 -9 -14.5 -51t-13.5 -45q-27 -88 -63 -119q-39 -35 -106 -35q-32 0 -70.5 10t-56.5 24q-4 3 -6.5 6t-2.5 5.5v4t2 4.5t2 4l30 65q4 7 9 7q2 0 4 -0.5t4 -1.5t4.5 -2.5t5.5 -2.5l14 -6q29 -12 53 -12q26 0 43 12.5t23.5 25.5t13.5 36l10 33h-42
q-12 0 -15 7q-2 2 -3 6l-134 388h-32h-6t-5 3.5t-3 10.5v65q0 7 3 10.5t5 3.5h6h126h4h3.5t2.5 -0.5t3 -2.5l2.5 -5t2.5 -7l64 -238q18 -65 38 -173h2q19 113 33 173l54 238q1 4 2.5 7t2.5 4.5t3 2.5t3 1h3.5h3.5h121h2q4 0 6 -0.5t4 -3.5t2 -10v-65v-2q0 -4 -0.5 -6
t-3.5 -4t-10 -2h-35zM462 638l-178 -71q-6 -3 -12 -3t-13 14l-17 34q-4 8 -4 12q0 6 13 14l166 98q6 4 11 4q6 0 13 -12l33 -65q4 -6 4 -12q0 -8 -16 -13z" />
    <glyph glyph-name="thorn" unicode="&#xfe;" horiz-adv-x="556" 
d="M280 -123v-65v-2q0 -4 -0.5 -6t-3.5 -4t-10 -2h-229q-14 0 -14 14v65q0 14 14 14h51v646q0 63 -10 87h-47h-6t-5 3.5t-3 10.5v65q0 7 3 10.5t5 3.5h6h170q10 0 12 -3t2 -9v-2v-233q47 41 115 41q32 0 60.5 -10t58 -35t47 -79t17.5 -131q0 -273 -194 -273q-56 0 -91 19
l-13 7v-118h51q10 0 12 -3t2 -9v-2zM215 374v-272q27 -19 73 -19q50 0 74 32t24 136q0 32 -2.5 55.5t-11 50t-28 40.5t-49.5 14q-43 0 -78 -35z" />
    <glyph glyph-name="ydieresis" unicode="&#xff;" horiz-adv-x="516" 
d="M463 401l-98 -363q-2 -9 -14.5 -51t-13.5 -45q-27 -88 -63 -119q-39 -35 -106 -35q-32 0 -70.5 10t-56.5 24q-4 3 -6.5 6t-2.5 5.5v4t2 4.5t2 4l30 65q4 7 9 7q2 0 4 -0.5t4 -1.5t4.5 -2.5t5.5 -2.5l14 -6q29 -12 53 -12q26 0 43 12.5t23.5 25.5t13.5 36l10 33h-42
q-12 0 -15 7q-2 2 -3 6l-134 388h-32h-6t-5 3.5t-3 10.5v65q0 7 3 10.5t5 3.5h6h126h4h3.5t2.5 -0.5t3 -2.5l2.5 -5t2.5 -7l64 -238q18 -65 38 -173h2q19 113 33 173l54 238q1 4 2.5 7t2.5 4.5t3 2.5t3 1h3.5h3.5h121h2q4 0 6 -0.5t4 -3.5t2 -10v-65v-2q0 -4 -0.5 -6
t-3.5 -4t-10 -2h-35zM249 652q0 -28 -20.5 -48.5t-48.5 -20.5t-48.5 20.5t-20.5 48.5t20.5 48.5t48.5 20.5t48.5 -20.5t20.5 -48.5zM426 652q0 -28 -20.5 -48.5t-48.5 -20.5q-29 0 -49 20.5t-20 48.5t20 48.5t49 20.5q28 0 48.5 -21t20.5 -48z" />
    <glyph glyph-name="Amacron" unicode="&#x100;" horiz-adv-x="630" 
d="M615 75v-54q0 -6 -1 -10t-2.5 -6.5t-4.5 -3.5t-4 -1h-5h-4h-208h-4h-5t-4 1t-4.5 3.5t-2.5 6.5t-1 10v54q0 6 1 10t2.5 6.5t4.5 3.5t4 1h5h4h32l-23 87h-172l-22 -87h33h4h5t4 -1t4.5 -3.5t2.5 -6.5t1 -10v-54q0 -6 -1 -10t-2.5 -6.5t-4.5 -3.5t-4 -1h-5h-4h-198h-4h-5
t-4 1t-4.5 3.5t-2.5 6.5t-1 10v54q0 6 1 10t2.5 6.5t4.5 3.5t4 1h5h4h30l175 573q0 1 1 4.5t1.5 4.5t2 3t3.5 3t5.5 1.5t8.5 0.5h104q6 0 10 -0.5t6 -3t3 -3t2 -5t1 -5.5l171 -573h34h4h5t4 -1t4.5 -3.5t2.5 -6.5t1 -10zM370 273l-41 172q-14 56 -22 140h-2
q-10 -90 -23 -140l-44 -172h132zM203 869h223q15 0 15 -15v-57q0 -15 -15 -15h-223q-15 0 -15 15v57q0 15 15 15z" />
    <glyph glyph-name="amacron" unicode="&#x101;" 
d="M488 79v-65v-2q0 -4 -0.5 -6t-3.5 -4t-10 -2h-125q-22 0 -29 37q0 1 -0.5 3t-0.5 3q-31 -32 -60.5 -46t-68.5 -14q-62 0 -106 38.5t-44 115.5q0 90 64 129.5t183 39.5h14v31q0 12 -0.5 18.5t-3.5 19t-9 19t-19 12t-31 5.5q-47 0 -101 -20q-28 -10 -31 -10q-8 0 -10 10
l-20 61q-5 5 -2.5 15t22.5 17q71 27 164 27q161 0 161 -161v-173q0 -44 9 -80l1 -4h43q14 0 14 -14zM301 114v110h-6q-69 0 -99 -17q-36 -22 -36 -63q0 -30 18.5 -49t47.5 -19q35 0 75 38zM404 673v-42q0 -5 -0.5 -8.5t-2 -5.5t-2 -3.5t-3.5 -2t-3.5 -0.5h-4h-4.5h-205
q-7 0 -10 0.5t-6.5 5t-3.5 14.5v42v3q0 6 0.5 9t5 5.5t14.5 2.5h205h3q6 0 9 -0.5t5.5 -5t2.5 -14.5z" />
    <glyph glyph-name="Abreve" unicode="&#x102;" horiz-adv-x="630" 
d="M615 75v-54q0 -6 -1 -10t-2.5 -6.5t-4.5 -3.5t-4 -1h-5h-4h-208h-4h-5t-4 1t-4.5 3.5t-2.5 6.5t-1 10v54q0 6 1 10t2.5 6.5t4.5 3.5t4 1h5h4h32l-23 87h-172l-22 -87h33h4h5t4 -1t4.5 -3.5t2.5 -6.5t1 -10v-54q0 -6 -1 -10t-2.5 -6.5t-4.5 -3.5t-4 -1h-5h-4h-198h-4h-5
t-4 1t-4.5 3.5t-2.5 6.5t-1 10v54q0 6 1 10t2.5 6.5t4.5 3.5t4 1h5h4h30l175 573q0 1 1 4.5t1.5 4.5t2 3t3.5 3t5.5 1.5t8.5 0.5h104q6 0 10 -0.5t6 -3t3 -3t2 -5t1 -5.5l171 -573h34h4h5t4 -1t4.5 -3.5t2.5 -6.5t1 -10zM370 273l-41 172q-14 56 -22 140h-2
q-10 -90 -23 -140l-44 -172h132zM381 887l67 -7q11 -1 11 -15q0 -1 -0.5 -4t-0.5 -4q-19 -105 -143 -105t-143 105q0 1 -0.5 4t-0.5 4q0 14 11 15l67 7h7q6 -1 8 -11l2 -8q10 -36 50 -36q17 0 31 10.5t18 28.5l1 5q2 10 7 11h8z" />
    <glyph glyph-name="abreve" unicode="&#x103;" 
d="M488 79v-65v-2q0 -4 -0.5 -6t-3.5 -4t-10 -2h-125q-22 0 -29 37q0 1 -0.5 3t-0.5 3q-31 -32 -60.5 -46t-68.5 -14q-62 0 -106 38.5t-44 115.5q0 90 64 129.5t183 39.5h14v31q0 12 -0.5 18.5t-3.5 19t-9 19t-19 12t-31 5.5q-47 0 -101 -20q-28 -10 -31 -10q-8 0 -10 10
l-20 61q-5 5 -2.5 15t22.5 17q71 27 164 27q161 0 161 -161v-173q0 -44 9 -80l1 -4h43q14 0 14 -14zM301 114v110h-6q-69 0 -99 -17q-36 -22 -36 -63q0 -30 18.5 -49t47.5 -19q35 0 75 38zM333 722l64 -8q11 -2 11 -13v-5q-2 -30 -18 -54q-39 -62 -122 -62t-122 62
q-16 24 -18 54v5q0 11 11 13l64 8q2 0 4 0.5t4 0.5q5 0 7 -11l2 -9q4 -20 18 -30.5t30 -10.5q39 0 48 43l2 8q1 4 2 6.5t2.5 3t2.5 0.5t4 -0.5t4 -0.5z" />
    <glyph glyph-name="Aogonek" unicode="&#x104;" horiz-adv-x="630" 
d="M615 75v-54q0 -11 -10 -21l-10 -10q-46 -46 -46 -77q0 -24 29 -24q23 0 45 13q10 5 12 5q4 0 7 -8l15 -50q3 -11 -9 -18q-40 -22 -86 -22q-45 0 -73 23.5t-28 63.5q0 51 51 104h-126h-4h-5t-4 1t-4.5 3.5t-2.5 6.5t-1 10v54q0 6 1 10t2.5 6.5t4.5 3.5t4 1h5h4h32l-23 87
h-172l-22 -87h33h4h5t4 -1t4.5 -3.5t2.5 -6.5t1 -10v-54q0 -6 -1 -10t-2.5 -6.5t-4.5 -3.5t-4 -1h-5h-4h-198h-4h-5t-4 1t-4.5 3.5t-2.5 6.5t-1 10v54q0 6 1 10t2.5 6.5t4.5 3.5t4 1h5h4h30l175 573q0 1 1 4q1 5 2 7t5.5 3.5t13.5 1.5h104q4 0 7.5 -0.5t5.5 -1t3.5 -1.5
t2.5 -2.5t1 -2.5t1 -4t1 -4l171 -573h34h4h5t4 -1t4.5 -3.5t2.5 -6.5t1 -10zM370 273l-41 172q-8 34 -20 125l-2 15h-2q-10 -90 -23 -140l-44 -172h132z" />
    <glyph glyph-name="aogonek" unicode="&#x105;" 
d="M488 79v-65q0 -8 -5 -13l-5 -5q-31 -31 -38 -40q-24 -30 -24 -54q0 -23 28 -23q21 0 43 14q8 5 10 5q4 0 7 -6l14 -45q1 -3 1.5 -5.5t1 -3.5t0.5 -2q0 -6 -11 -12q-40 -20 -79 -20q-41 0 -70 21.5t-29 61.5q0 35 19 64q14 24 39 43l8 6h-49q-24 0 -29 37l-1 6l-4 -4
q-56 -56 -125 -56q-62 0 -106 38.5t-44 115.5q0 93 75 136q66 36 186 33v31q0 16 -1.5 26t-7.5 22.5t-20 19t-37 6.5q-45 0 -98 -20q-28 -10 -31 -10q-8 0 -10 10l-20 61q0 1 -1 3q-5 13 7 22q7 5 24 11q60 23 149 23q166 0 166 -161v-173q0 -38 9 -80l1 -4h43q14 0 14 -14z
M301 114v110h-6q-70 0 -99 -17q-36 -22 -36 -65q0 -31 19 -48.5t46 -17.5q36 0 76 38z" />
    <glyph glyph-name="Cacute" unicode="&#x106;" horiz-adv-x="528" 
d="M488 186v-145q0 -19 -40 -35q-60 -23 -136 -23q-133 0 -201 86q-40 52 -54 117t-14 149q0 178 69 273q69 94 200 94q55 0 111.5 -19.5t56.5 -46.5v-134q0 -8 -3 -12t-5.5 -4.5t-6.5 -0.5h-2h-74q-8 0 -12 2t-4.5 4.5t-0.5 7.5v3v83q-28 9 -53 9q-56 0 -87 -32
q-47 -48 -47 -204q0 -180 50 -232q33 -35 92 -35q19 0 53 6v89q0 14 8 16q4 1 9 1h74q8 0 12 -3t4.5 -5.5t0.5 -6.5v-2zM271 814l182 86q9 4 12 4q5 0 11 -11l31 -75q1 -3 1 -9q0 -2 -1.5 -4t-3 -2.5t-3.5 -1.5l-3 -1l-198 -57q-8 -2 -9 -2q-5 0 -10 10l-19 43q-2 4 -2 6
q0 8 12 14z" />
    <glyph glyph-name="cacute" unicode="&#x107;" horiz-adv-x="426" 
d="M373 100l26 -66q0 -1 1.5 -4.5t1.5 -5.5q0 -16 -47.5 -28.5t-92.5 -12.5q-51 0 -90 14t-62 38.5t-38.5 50.5t-21.5 58t-8 52t-2 41q0 65 16 115.5t40.5 79.5t57 47.5t62 25t60.5 6.5q39 0 81 -11.5t42 -31.5v-135q0 -7 -3 -10.5t-5 -3.5h-6h-72h-6t-5 3.5t-3 10.5v74
q-13 4 -28 4q-96 0 -96 -167q0 -25 0.5 -39t6 -40.5t15.5 -41.5t30.5 -27.5t50.5 -12.5q32 0 73 17q13 5 15 5q7 0 7 -5zM405 638l-178 -71q-6 -3 -12 -3t-13 14l-17 34q-4 8 -4 12q0 6 13 14l166 98q6 4 11 4q6 0 13 -12l33 -65q4 -6 4 -12q0 -8 -16 -13z" />
    <glyph glyph-name="Ccircumflex" unicode="&#x108;" horiz-adv-x="528" 
d="M488 186v-145q0 -19 -40 -35q-60 -23 -136 -23q-133 0 -201 86q-40 52 -54 117t-14 149q0 178 69 273q69 94 200 94q55 0 111.5 -19.5t56.5 -46.5v-134q0 -8 -3 -12t-5.5 -4.5t-6.5 -0.5h-2h-74q-8 0 -12 2t-4.5 4.5t-0.5 7.5v3v83q-28 9 -53 9q-56 0 -87 -32
q-47 -48 -47 -204q0 -180 50 -232q33 -35 92 -35q19 0 53 6v89q0 14 8 16q4 1 9 1h74q8 0 12 -3t4.5 -5.5t0.5 -6.5v-2zM304 787l-104 -47q-4 -2 -6 -2q-6 0 -10 7l-27 45q-2 4 -2 7q0 7 9 11l126 87q5 5 14 5t14 -5l126 -87q9 -4 9 -11q0 -3 -2 -7l-27 -45q-4 -7 -10 -7
q-2 0 -6 2z" />
    <glyph glyph-name="ccircumflex" unicode="&#x109;" horiz-adv-x="426" 
d="M373 100l26 -66q0 -1 1.5 -4.5t1.5 -5.5q0 -16 -47.5 -28.5t-92.5 -12.5q-51 0 -90 14t-62 38.5t-38.5 50.5t-21.5 58t-8 52t-2 41q0 65 16 115.5t40.5 79.5t57 47.5t62 25t60.5 6.5q39 0 81 -11.5t42 -31.5v-135q0 -7 -3 -10.5t-5 -3.5h-6h-72h-6t-5 3.5t-3 10.5v74
q-13 4 -28 4q-96 0 -96 -167q0 -25 0.5 -39t6 -40.5t15.5 -41.5t30.5 -27.5t50.5 -12.5q32 0 73 17q13 5 15 5q7 0 7 -5zM389 609l-19 -32q-7 -13 -14 -13q-6 0 -14 6l-86 49l-86 -49q-10 -6 -14 -6q-7 0 -14 13l-19 32q-6 12 -6 14q0 5 9 12l118 93q6 6 12 6t12 -6l118 -93
q9 -7 9 -12q0 -6 -6 -14z" />
    <glyph glyph-name="Ccaron" unicode="&#x10c;" horiz-adv-x="528" 
d="M488 186v-145q0 -19 -40 -35q-60 -23 -136 -23q-133 0 -201 86q-40 52 -54 117t-14 149q0 178 69 273q69 94 200 94q55 0 111.5 -19.5t56.5 -46.5v-134q0 -8 -3 -12t-5.5 -4.5t-6.5 -0.5h-2h-74q-8 0 -12 2t-4.5 4.5t-0.5 7.5v3v83q-28 9 -53 9q-56 0 -87 -32
q-47 -48 -47 -204q0 -180 50 -232q33 -35 92 -35q19 0 53 6v89q0 14 8 16q4 1 9 1h74q8 0 12 -3t4.5 -5.5t0.5 -6.5v-2zM309 850l104 47q4 2 6 2q7 0 10 -7l27 -45q2 -4 2 -7q0 -6 -9 -11l-126 -87q-5 -5 -14 -5t-14 5l-126 87q-9 5 -9 11q0 3 2 7l27 45q3 7 10 7q2 0 6 -2z
" />
    <glyph glyph-name="ccaron" unicode="&#x10d;" horiz-adv-x="426" 
d="M373 100l26 -66q0 -1 1.5 -4.5t1.5 -5.5q0 -16 -47.5 -28.5t-92.5 -12.5q-51 0 -90 14t-62 38.5t-38.5 50.5t-21.5 58t-8 52t-2 41q0 65 16 115.5t40.5 79.5t57 47.5t62 25t60.5 6.5q39 0 81 -11.5t42 -31.5v-135q0 -7 -3 -10.5t-5 -3.5h-6h-72h-6t-5 3.5t-3 10.5v74
q-13 4 -28 4q-96 0 -96 -167q0 -25 0.5 -39t6 -40.5t15.5 -41.5t30.5 -27.5t50.5 -12.5q32 0 73 17q13 5 15 5q7 0 7 -5zM385 721l19 -32q6 -8 6 -14q0 -5 -9 -12l-118 -93q-6 -6 -12 -6t-12 6l-118 93q-9 7 -9 12q0 2 6 14l19 32q7 13 14 13q4 0 14 -6l86 -49l86 49
q8 6 14 6q7 0 14 -13z" />
    <glyph glyph-name="Dcaron" unicode="&#x10e;" horiz-adv-x="621" 
d="M62 685h229q140 0 202 -52q89 -73 89 -287q0 -218 -96 -295q-65 -51 -198 -51h-227q-13 0 -17 4t-4 17v54q0 6 1 10t2.5 6.5t4.5 3.5t4 1h5h4h51v493h-51h-4h-5t-4 1t-4.5 3.5t-2.5 6.5t-1 10v54q0 6 1 10t2.5 6.5t4.5 3.5t4 1h6h4zM247 108h38q76 0 112 38q27 28 35 76
t8 126q0 146 -43 191q-37 38 -112 38h-38v-469zM310 850l104 47q4 2 6 2q6 0 10 -7l27 -45q2 -4 2 -7q0 -6 -9 -11l-126 -87q-5 -5 -14 -5t-14 5l-126 87q-9 5 -9 11q0 3 2 7l27 45q4 7 10 7q2 0 6 -2z" />
    <glyph glyph-name="dcaron" unicode="&#x10f;" horiz-adv-x="666" 
d="M531 79v-65v-2q0 -4 -0.5 -6t-3.5 -4t-10 -2h-134q-19 0 -25 21l-4 16l-7 -6q-56 -48 -134 -48q-45 0 -79 19.5t-51 45.5t-27 63t-12 62.5t-2 53.5q0 151 58 223q49 61 134 61q43 0 97 -27l5 -3v143h-51h-6t-5 3.5t-3 10.5v65q0 7 3 10.5t5 3.5h6h164q10 0 12 -3t2 -9v-2
v-526q0 -59 10 -84h44q10 0 12 -3t2 -9v-2zM336 118v273l-4 2q-39 18 -70 18q-49 0 -71 -39t-22 -128q0 -105 26 -137q21 -24 58 -24q46 0 83 35zM571 716h80q15 0 15 -10q0 -3 -4 -11l-98 -182q-5 -10 -12 -10q-2 0 -8 2l-32 11q-12 5 -12 11q0 2 2 8l51 167q5 12 12 13
q2 1 6 1z" />
    <glyph glyph-name="Dcroat" unicode="&#x110;" horiz-adv-x="621" 
d="M62 685h229q140 0 202 -52q89 -74 89 -287q0 -218 -96 -295q-65 -51 -198 -51h-227q-13 0 -17 4t-4 17v54q0 6 1 10t2.5 6.5t4.5 3.5t4 1h5h4h51v215h-49h-9.5t-6.5 5t-4 15v50q0 7 0.5 10t5 6.5t14.5 3.5h49v188h-51h-4h-5t-4 1t-4.5 3.5t-2.5 6.5t-1 10v54q0 6 1 10
t2.5 6.5t4.5 3.5t4 1h6h4zM247 311v-203h46q68 0 104 38q43 44 43 202q0 147 -43 191q-36 38 -105 38h-45v-176h103h3q6 0 9 -0.5t5.5 -5t2.5 -14.5v-50q0 -6 -1 -10l-1.5 -6t-3 -3t-3.5 -1h-5.5h-5.5h-103z" />
    <glyph glyph-name="dcroat" unicode="&#x111;" horiz-adv-x="556" 
d="M531 79v-65v-2q0 -4 -0.5 -6t-3.5 -4t-10 -2h-134q-20 0 -27 28l-2 9l-7 -6q-11 -10 -40 -27q-41 -21 -92 -21q-173 0 -173 253q0 72 15.5 126t36.5 81.5t50 44t49 20t41 3.5q49 0 90 -23l12 -7v77h-109q-8 0 -11.5 4t-3.5 6v11v26q0 15 15 15h109v66q0 6 0.5 8t4.5 5
t14 5l92 19q8 3 13 -1q3 -2 3 -19v-83h61q15 0 15 -15v-32q0 -15 -15 -15h-61v-381q0 -59 10 -84h44q10 0 12 -3t2 -9v-2zM336 118v273l-13 7q-26 13 -62 13q-53 0 -72.5 -42t-19.5 -129q0 -23 0.5 -36.5t2.5 -35t7.5 -34t14 -26t23 -19.5t34.5 -6q48 0 85 35z" />
    <glyph glyph-name="Emacron" unicode="&#x112;" horiz-adv-x="537" 
d="M481 178v-157q0 -11 -4 -16t-6 -5h-10h-401h-4h-5t-4 1t-4.5 3.5t-2.5 6.5t-1 10v54q0 6 1 10t2.5 6.5t4.5 3.5t4 1h5h4h51v493h-51h-4h-5t-4 1t-4.5 3.5t-2.5 6.5t-1 10v54q0 6 1 10t2.5 6.5t4.5 3.5t4 1h5h4h400q17 0 19 -7q2 -4 2 -10v-152q0 -11 -3.5 -15.5t-6.5 -5
t-11 -0.5h-66h-4h-5t-4 1t-4.5 3.5t-2.5 6.5t-1 10v61h-127v-165h170h4h4.5t3.5 -0.5t4 -2t2.5 -4t2 -6t0.5 -8.5v-66q0 -6 -1 -10t-2.5 -6.5t-4.5 -3.5t-4 -1h-5h-4h-170v-196h127v70v5v5t0.5 4t2 3t4 1.5t6 2t8.5 0.5h66h4h4.5t3.5 -0.5t4 -2t2.5 -4t2 -6t0.5 -8.5z
M157 869h223q15 0 15 -15v-57q0 -15 -15 -15h-223q-15 0 -15 15v57q0 15 15 15z" />
    <glyph glyph-name="emacron" unicode="&#x113;" 
d="M439 213h-269q0 -125 110 -125q51 0 100 23q2 1 5.5 2.5t5.5 2.5q12 5 16 5q8 0 11 -8l25 -59q3 -9 3 -11q0 -9 -16 -20q-62 -40 -160 -40q-105 0 -162 58q-65 67 -65 193q0 132 66 208q60 69 153 69q27 0 51 -5t52.5 -22t49 -45t34 -78t13.5 -116q0 -20 -4 -26t-19 -6z
M170 306h157v10q0 24 -4 41q-6 27 -22 43q-20 18 -48 18q-35 0 -57 -27q-21 -27 -26 -85zM387 673v-42q0 -5 -0.5 -8.5t-2 -5.5t-2 -3.5t-3.5 -2t-3.5 -0.5h-4h-4.5h-205q-7 0 -10 0.5t-6.5 5t-3.5 14.5v42v3q0 6 0.5 9t5 5.5t14.5 2.5h205h3q6 0 9 -0.5t5.5 -5t2.5 -14.5z
" />
    <glyph glyph-name="Edotaccent" unicode="&#x116;" horiz-adv-x="537" 
d="M481 178v-157q0 -11 -4 -16t-6 -5h-10h-401h-4h-5t-4 1t-4.5 3.5t-2.5 6.5t-1 10v54q0 6 1 10t2.5 6.5t4.5 3.5t4 1h5h4h51v493h-51h-4h-5t-4 1t-4.5 3.5t-2.5 6.5t-1 10v54q0 6 1 10t2.5 6.5t4.5 3.5t4 1h5h4h400q17 0 19 -7q2 -4 2 -10v-152q0 -11 -3.5 -15.5t-6.5 -5
t-11 -0.5h-66h-4h-5t-4 1t-4.5 3.5t-2.5 6.5t-1 10v61h-127v-165h170h4h4.5t3.5 -0.5t4 -2t2.5 -4t2 -6t0.5 -8.5v-66q0 -6 -1 -10t-2.5 -6.5t-4.5 -3.5t-4 -1h-5h-4h-170v-196h127v70v5v5t0.5 4t2 3t4 1.5t6 2t8.5 0.5h66h4h4.5t3.5 -0.5t4 -2t2.5 -4t2 -6t0.5 -8.5z
M188 820q0 33 23.5 56.5t56.5 23.5t56.5 -23.5t23.5 -56.5t-23.5 -56.5t-56.5 -23.5t-56.5 23.5t-23.5 56.5z" />
    <glyph glyph-name="edotaccent" unicode="&#x117;" 
d="M439 213h-269q0 -125 110 -125q51 0 100 23q2 1 5.5 2.5t5.5 2.5q12 5 16 5q8 0 11 -8l25 -59q3 -9 3 -11q0 -9 -16 -20q-62 -40 -160 -40q-105 0 -162 58q-65 67 -65 193q0 132 66 208q60 69 153 69q27 0 51 -5t52.5 -22t49 -45t34 -78t13.5 -116q0 -20 -4 -26t-19 -6z
M170 306h157v10q0 24 -4 41q-6 27 -22 43q-20 18 -48 18q-35 0 -57 -27q-21 -27 -26 -85zM340 651q0 -31 -23 -54t-55 -23q-31 0 -54 22.5t-23 54.5t23 55t54 23q32 0 55 -23.5t23 -54.5z" />
    <glyph glyph-name="Eogonek" unicode="&#x118;" horiz-adv-x="537" 
d="M481 178v-157q0 -10 -2 -14q-1 -2 -5 -6l-9 -10q-47 -51 -47 -78q0 -24 29 -24q23 0 45 13q10 5 12 5q4 0 7 -8l15 -50q3 -11 -9 -18q-40 -22 -86 -22q-50 0 -75.5 25.5t-25.5 61.5q0 55 52 104h-322h-4h-5t-4 1t-4.5 3.5t-2.5 6.5t-1 10v54q0 6 1 10t2.5 6.5t4.5 3.5
t4 1h5h4h51v493h-51h-4h-5t-4 1t-4.5 3.5t-2.5 6.5t-1 10v54q0 6 1 10t2.5 6.5t4.5 3.5t4 1h5h4h400q17 0 19 -7q2 -4 2 -10v-152q0 -11 -3.5 -15.5t-6.5 -5t-11 -0.5h-66h-4h-5t-4 1t-4.5 3.5t-2.5 6.5t-1 10v61h-127v-165h170h4h4.5t3.5 -0.5t4 -2t2.5 -4t2 -6t0.5 -8.5
v-66q0 -6 -1 -10t-2.5 -6.5t-4.5 -3.5t-4 -1h-5h-4h-170v-196h127v70v5v5t0.5 4t2 3t4 1.5t6 2t8.5 0.5h66h4h4.5t3.5 -0.5t4 -2t2.5 -4t2 -6t0.5 -8.5z" />
    <glyph glyph-name="eogonek" unicode="&#x119;" 
d="M439 213h-269q0 -72 37 -103q26 -22 76 -22q46 0 108 28q12 5 16 5q8 0 11 -8l25 -59q3 -9 3 -13q0 -5 -8 -13q-29 -29 -42.5 -43t-26 -33t-12.5 -34q0 -25 29 -25q20 0 43 13q15 8 19 -8l12 -41q3 -7 0.5 -12t-6 -7.5t-12.5 -6.5q-32 -16 -70 -16q-44 0 -71 22.5
t-27 58.5q0 44 46 85l9 8q-36 -6 -60 -6q-101 0 -163.5 61.5t-62.5 190.5q0 135 68 211q59 65 152 65q81 0 131 -48q68 -66 68 -218q0 -20 -4 -26t-19 -6zM170 306h157q1 30 -4 51q-15 61 -68 61q-48 0 -69 -42q-12 -27 -16 -70z" />
    <glyph glyph-name="Ecaron" unicode="&#x11a;" horiz-adv-x="537" 
d="M481 178v-157q0 -11 -4 -16t-6 -5h-10h-401h-4h-5t-4 1t-4.5 3.5t-2.5 6.5t-1 10v54q0 6 1 10t2.5 6.5t4.5 3.5t4 1h5h4h51v493h-51h-4h-5t-4 1t-4.5 3.5t-2.5 6.5t-1 10v54q0 6 1 10t2.5 6.5t4.5 3.5t4 1h5h4h400q17 0 19 -7q2 -4 2 -10v-152q0 -11 -3.5 -15.5t-6.5 -5
t-11 -0.5h-66h-4h-5t-4 1t-4.5 3.5t-2.5 6.5t-1 10v61h-127v-165h170h4h4.5t3.5 -0.5t4 -2t2.5 -4t2 -6t0.5 -8.5v-66q0 -6 -1 -10t-2.5 -6.5t-4.5 -3.5t-4 -1h-5h-4h-170v-196h127v70v5v5t0.5 4t2 3t4 1.5t6 2t8.5 0.5h66h4h4.5t3.5 -0.5t4 -2t2.5 -4t2 -6t0.5 -8.5z
M268 850l104 47q4 2 6 2q6 0 10 -7l27 -45q2 -4 2 -7q0 -6 -9 -11l-126 -87q-5 -5 -14 -5t-14 5l-126 87q-9 5 -9 11q0 3 2 7l27 45q4 7 10 7q2 0 6 -2z" />
    <glyph glyph-name="ecaron" unicode="&#x11b;" 
d="M439 213h-269q0 -125 110 -125q51 0 100 23q2 1 5.5 2.5t5.5 2.5q12 5 16 5q8 0 11 -8l25 -59q3 -9 3 -11q0 -9 -16 -20q-62 -40 -160 -40q-105 0 -162 58q-65 67 -65 193q0 132 66 208q60 69 153 69q27 0 51 -5t52.5 -22t49 -45t34 -78t13.5 -116q0 -20 -4 -26t-19 -6z
M170 306h157v10q0 24 -4 41q-6 27 -22 43q-20 18 -48 18q-35 0 -57 -27q-21 -27 -26 -85zM377 721l19 -32q6 -8 6 -14q0 -5 -9 -12l-118 -93q-6 -6 -12 -6t-12 6l-118 93q-9 7 -9 12q0 2 6 14l19 32q7 13 14 13q4 0 14 -6l86 -49l86 49q8 6 14 6q7 0 14 -13z" />
    <glyph glyph-name="Gcircumflex" unicode="&#x11c;" horiz-adv-x="606" 
d="M516 264v-203q0 -30 -72 -56q-64 -22 -128 -22q-126 0 -192 78q-76 92 -76 278q0 204 87 293q68 70 181 70q68 0 129 -22q56 -20 56 -47v-129v-3.5v-3.5t-0.5 -3t-1.5 -3t-3 -2t-5 -1.5t-7 -0.5h-74q-8 0 -12 2t-4.5 4.5t-0.5 7.5v3v76q-42 14 -68 14q-63 0 -96 -49
q-39 -57 -39 -203q0 -138 34 -197q32 -54 99 -54q32 0 68 14l5 2v157h-75h-4h-5t-4 1t-4.5 3.5t-2.5 6.5t-1 10v54q0 6 1 10t2.5 6.5t4.5 3.5t4 1h5h4h244h4h5t4 -1t4.5 -3.5t2.5 -6.5t1 -10v-54q0 -6 -1 -10t-2.5 -6.5t-4.5 -3.5t-4 -1h-5h-4h-49zM303 786l-104 -47
q-4 -2 -6 -2q-7 0 -10 7l-27 45q-2 4 -2 7q0 6 9 11l126 87q5 5 14 5t14 -5l126 -87q9 -5 9 -11q0 -3 -2 -7l-27 -45q-3 -7 -10 -7q-2 0 -6 2z" />
    <glyph glyph-name="gcircumflex" unicode="&#x11d;" horiz-adv-x="532" 
d="M462 343v-149l5 -225q1 -36 -9 -69q-11 -33 -34 -59q-47 -53 -148 -53q-96 0 -179 32q-27 10 -30 21v7q1 4 4 13l19 61q3 10 12 10q5 0 15 -5q60 -34 142 -34q17 0 28 2t25 9.5t20.5 26t5.5 47.5l-2 42l-1 24q-47 -38 -114 -38q-82 0 -130.5 62.5t-48.5 181.5
q0 73 18.5 127t49.5 81.5t63 40t66 12.5q40 0 62 -10t57 -37q8 24 18 35.5t16 10.5t11 -1l78 -29q9 -3 9 -9q0 -1 -6 -17q-22 -63 -22 -111zM335 140v236q-18 14 -24 18t-19 8t-29 4q-86 0 -86 -152q0 -148 80 -148q18 0 40.5 9t37.5 25zM411 609l-19 -32q-7 -13 -14 -13
q-6 0 -14 6l-86 49l-86 -49q-10 -6 -14 -6q-7 0 -14 13l-19 32q-6 12 -6 14q0 5 9 12l118 93q6 6 12 6t12 -6l118 -93q9 -7 9 -12q0 -6 -6 -14z" />
    <glyph glyph-name="Gbreve" unicode="&#x11e;" horiz-adv-x="606" 
d="M516 264v-203q0 -30 -72 -56q-64 -22 -128 -22q-126 0 -192 78q-76 92 -76 278q0 204 87 293q68 70 181 70q68 0 129 -22q56 -20 56 -47v-129v-3.5v-3.5t-0.5 -3t-1.5 -3t-3 -2t-5 -1.5t-7 -0.5h-74q-8 0 -12 2t-4.5 4.5t-0.5 7.5v3v76q-42 14 -68 14q-63 0 -96 -49
q-39 -57 -39 -203q0 -138 34 -197q32 -54 99 -54q32 0 68 14l5 2v157h-75h-4h-5t-4 1t-4.5 3.5t-2.5 6.5t-1 10v54q0 6 1 10t2.5 6.5t4.5 3.5t4 1h5h4h244h4h5t4 -1t4.5 -3.5t2.5 -6.5t1 -10v-54q0 -6 -1 -10t-2.5 -6.5t-4.5 -3.5t-4 -1h-5h-4h-49zM369 887l67 -7
q11 -1 11 -15q0 -1 -0.5 -4t-0.5 -4q-19 -105 -143 -105t-143 105q0 1 -0.5 4t-0.5 4q0 14 11 15l67 7h7q6 -1 8 -11l2 -8q10 -36 50 -36q17 0 31 10.5t18 28.5l1 5q2 10 7 11h8z" />
    <glyph glyph-name="gbreve" unicode="&#x11f;" horiz-adv-x="532" 
d="M462 343v-149l5 -225q1 -36 -9 -69q-11 -33 -34 -59q-47 -53 -148 -53q-96 0 -179 32q-27 10 -30 21v7q1 4 4 13l19 61q3 10 12 10q5 0 15 -5q60 -34 142 -34q17 0 28 2t25 9.5t20.5 26t5.5 47.5l-2 42l-1 24q-47 -38 -114 -38q-82 0 -130.5 62.5t-48.5 181.5
q0 73 18.5 127t49.5 81.5t63 40t66 12.5q40 0 62 -10t57 -37q8 24 18 35.5t16 10.5t11 -1l78 -29q9 -3 9 -9q0 -1 -6 -17q-22 -63 -22 -111zM335 140v236q-18 14 -24 18t-19 8t-29 4q-86 0 -86 -152q0 -148 80 -148q18 0 40.5 9t37.5 25zM356 722l64 -8q11 -2 11 -13v-5
q-2 -30 -18 -54q-39 -62 -122 -62t-122 62q-16 24 -18 54v5q0 11 11 13l64 8q2 0 4 0.5t4 0.5q5 0 7 -11l2 -9q4 -20 18 -30.5t30 -10.5q39 0 48 43l2 8q1 4 2 6.5t2.5 3t2.5 0.5t4 -0.5t4 -0.5z" />
    <glyph glyph-name="Gcommaaccent" unicode="&#x122;" horiz-adv-x="606" 
d="M516 264v-203q0 -30 -72 -56q-64 -22 -128 -22q-126 0 -192 78q-76 92 -76 278q0 204 87 293q68 70 181 70q68 0 129 -22q56 -20 56 -47v-129v-3.5v-3.5t-0.5 -3t-1.5 -3t-3 -2t-5 -1.5t-7 -0.5h-74q-8 0 -12 2t-4.5 4.5t-0.5 7.5v3v76q-42 14 -68 14q-63 0 -96 -49
q-39 -57 -39 -203q0 -138 34 -197q32 -54 99 -54q32 0 68 14l5 2v157h-75h-4h-5t-4 1t-4.5 3.5t-2.5 6.5t-1 10v54q0 6 1 10t2.5 6.5t4.5 3.5t4 1h5h4h244h4h5t4 -1t4.5 -3.5t2.5 -6.5t1 -10v-54q0 -6 -1 -10t-2.5 -6.5t-4.5 -3.5t-4 -1h-5h-4h-49zM292 -37h80q15 0 15 -10
q0 -3 -4 -11l-98 -182q-5 -10 -12 -10q-2 0 -8 2l-32 11q-12 5 -12 11q0 2 2 8l51 167q5 12 12 13q2 1 6 1z" />
    <glyph glyph-name="gcommaaccent" unicode="&#x123;" horiz-adv-x="532" 
d="M462 343v-149l5 -225q1 -36 -9 -69q-11 -33 -34 -59q-47 -53 -148 -53q-96 0 -179 32q-27 10 -30 21v7q1 4 4 13l19 61q3 10 12 10q5 0 15 -5q60 -34 142 -34q17 0 28 2t25 9.5t20.5 26t5.5 47.5l-2 42l-1 24q-47 -38 -114 -38q-82 0 -130.5 62.5t-48.5 181.5
q0 73 18.5 127t49.5 81.5t63 40t66 12.5q40 0 62 -10t57 -37q8 24 18 35.5t16 10.5t11 -1l78 -29q9 -3 9 -9q0 -1 -6 -17q-22 -63 -22 -111zM335 140v236q-18 14 -24 18t-19 8t-29 4q-86 0 -86 -152q0 -148 80 -148q18 0 40.5 9t37.5 25zM304 557h-80q-15 0 -15 10q0 3 4 11
l98 182q7 13 20 8l32 -11q14 -5 10 -19l-51 -167q-5 -12 -12 -13q-2 -1 -6 -1z" />
    <glyph glyph-name="Hcircumflex" unicode="&#x124;" horiz-adv-x="685" 
d="M645 75v-54q0 -6 -1 -10t-2.5 -6.5t-4.5 -3.5t-4 -1h-5h-4h-234h-4h-5t-4 1t-4.5 3.5t-2.5 6.5t-1 10v54q0 6 1 10t2.5 6.5t4.5 3.5t4 1h5h4h48v204h-191v-204h48h4h5t4 -1t4.5 -3.5t2.5 -6.5t1 -10v-54q0 -6 -1 -10t-2.5 -6.5t-4.5 -3.5t-4 -1h-5h-4h-234h-4h-5t-4 1
t-4.5 3.5t-2.5 6.5t-1 10v54q0 6 1 10t2.5 6.5t4.5 3.5t4 1h5h4h51v493h-51h-4h-5t-4 1t-4.5 3.5t-2.5 6.5t-1 10v54q0 6 1 10t2.5 6.5t4.5 3.5t4 1h5h4h234h4h5t4 -1t4.5 -3.5t2.5 -6.5t1 -10v-54q0 -6 -1 -10t-2.5 -6.5t-4.5 -3.5t-4 -1h-5h-4h-48v-181h191v181h-48h-4h-5
t-4 1t-4.5 3.5t-2.5 6.5t-1 10v54q0 6 1 10t2.5 6.5t4.5 3.5t4 1h5h4h234h4h5t4 -1t4.5 -3.5t2.5 -6.5t1 -10v-54q0 -6 -1 -10t-2.5 -6.5t-4.5 -3.5t-4 -1h-5h-4h-51v-493h51h4h5t4 -1t4.5 -3.5t2.5 -6.5t1 -10zM342 786l-104 -47q-4 -2 -6 -2q-6 0 -10 7l-27 45q-2 4 -2 7
q0 6 9 11l126 87q5 5 14 5t14 -5l126 -87q9 -5 9 -11q0 -3 -2 -7l-27 -45q-4 -7 -10 -7q-2 0 -6 2z" />
    <glyph glyph-name="hcircumflex" unicode="&#x125;" horiz-adv-x="593" 
d="M559 79v-65v-2q0 -4 -0.5 -6t-3.5 -4t-10 -2h-164h-6t-5 3.5t-3 10.5v308q0 41 -10 58q-14 26 -47 26q-41 0 -85 -42v-271h51q10 0 12 -3t2 -9v-2v-65v-2q0 -4 -0.5 -6t-3.5 -4t-10 -2h-229h-6t-5 3.5t-3 10.5v65q0 14 14 14h51v531h-50h-6t-5 3.5t-3 10.5v65q0 7 3 10.5
t5 3.5h6h163q10 0 12 -3t2 -9v-2v-249q63 57 139 57q43 0 71.5 -15.5t40 -43t15 -49t3.5 -50.5v-260h51q10 0 12 -3t2 -9v-2zM293 815l-19 -32q-7 -13 -14 -13q-6 0 -14 6l-86 49l-86 -49q-10 -6 -14 -6q-7 0 -14 13l-19 32q-6 12 -6 14q0 5 9 12l118 93q6 6 12 6t12 -6
l118 -93q9 -7 9 -12q0 -6 -6 -14z" />
    <glyph glyph-name="Imacron" unicode="&#x12a;" horiz-adv-x="370" 
d="M324 75v-54q0 -6 -1 -10t-2.5 -6.5t-4.5 -3.5t-4 -1h-5h-4h-237h-4h-5t-4 1t-4.5 3.5t-2.5 6.5t-1 10v54q0 6 1 10t2.5 6.5t4.5 3.5t4 1h5h4h51v493h-51h-4h-5t-4 1t-4.5 3.5t-2.5 6.5t-1 10v54q0 6 1 10t2.5 6.5t4.5 3.5t4 1h5h4h237h4h5t4 -1t4.5 -3.5t2.5 -6.5t1 -10
v-54q0 -6 -1 -10t-2.5 -6.5t-4.5 -3.5t-4 -1h-5h-4h-51v-493h51h4h5t4 -1t4.5 -3.5t2.5 -6.5t1 -10zM74 869h223q15 0 15 -15v-57q0 -15 -15 -15h-223q-15 0 -15 15v57q0 15 15 15z" />
    <glyph glyph-name="imacron" unicode="&#x12b;" horiz-adv-x="333" 
d="M313 79v-65v-2q0 -4 -0.5 -6t-3.5 -4t-10 -2h-255h-6t-5 3.5t-3 10.5v65q0 14 14 14h64v308h-65h-6t-5 3.5t-3 10.5v65q0 14 14 14h178q10 0 12 -3t2 -9v-2v-387h64q10 0 12 -3t2 -9v-2zM281 673v-42q0 -5 -0.5 -8.5t-2 -5.5t-2 -3.5t-3.5 -2t-3.5 -0.5h-4h-4.5h-205
q-7 0 -10 0.5t-6.5 5t-3.5 14.5v42v3q0 6 0.5 9t5 5.5t14.5 2.5h205h3q6 0 9 -0.5t5.5 -5t2.5 -14.5z" />
    <glyph glyph-name="Iogonek" unicode="&#x12e;" horiz-adv-x="370" 
d="M324 75v-54q0 -13 -7 -20l-9 -10q-47 -51 -47 -78q0 -24 29 -24q23 0 45 13q10 5 12 5q4 0 7 -8l15 -50q3 -11 -9 -18q-40 -22 -86 -22q-50 0 -75.5 25.5t-25.5 61.5q0 55 52 104h-159h-4h-5t-4 1t-4.5 3.5t-2.5 6.5t-1 10v54q0 6 1 10t2.5 6.5t4.5 3.5t4 1h5h4h51v493
h-51h-4h-5t-4 1t-4.5 3.5t-2.5 6.5t-1 10v54q0 6 1 10t2.5 6.5t4.5 3.5t4 1h5h4h237h4h5t4 -1t4.5 -3.5t2.5 -6.5t1 -10v-54q0 -6 -1 -10t-2.5 -6.5t-4.5 -3.5t-4 -1h-5h-4h-51v-493h51h4h5t4 -1t4.5 -3.5t2.5 -6.5t1 -10z" />
    <glyph glyph-name="iogonek" unicode="&#x12f;" horiz-adv-x="333" 
d="M313 79v-65q0 -8 -5 -13l-5 -5q-31 -31 -38 -40q-24 -30 -24 -54q0 -23 28 -23q21 0 43 14q8 5 10 5q4 0 7 -6l14 -45q1 -3 1.5 -5.5t1 -3.5t0.5 -2q0 -6 -11 -12q-40 -20 -79 -20q-41 0 -70 21.5t-29 61.5q0 35 19 64q14 24 39 43l8 6h-179h-6t-5 3.5t-3 10.5v65
q0 14 14 14h64v308h-65h-6t-5 3.5t-3 10.5v65q0 14 14 14h178q10 0 12 -3t2 -9v-2v-387h64q10 0 12 -3t2 -9v-2zM253 642q0 -35 -24 -59t-58 -24q-35 0 -59 24.5t-24 58.5t24 58t59 24t58.5 -24t23.5 -58z" />
    <glyph glyph-name="Idotaccent" unicode="&#x130;" horiz-adv-x="370" 
d="M324 75v-54q0 -6 -1 -10t-2.5 -6.5t-4.5 -3.5t-4 -1h-5h-4h-237h-4h-5t-4 1t-4.5 3.5t-2.5 6.5t-1 10v54q0 6 1 10t2.5 6.5t4.5 3.5t4 1h5h4h51v493h-51h-4h-5t-4 1t-4.5 3.5t-2.5 6.5t-1 10v54q0 6 1 10t2.5 6.5t4.5 3.5t4 1h5h4h237h4h5t4 -1t4.5 -3.5t2.5 -6.5t1 -10
v-54q0 -6 -1 -10t-2.5 -6.5t-4.5 -3.5t-4 -1h-5h-4h-51v-493h51h4h5t4 -1t4.5 -3.5t2.5 -6.5t1 -10zM105 820q0 33 23.5 56.5t56.5 23.5t56.5 -23.5t23.5 -56.5t-23.5 -56.5t-56.5 -23.5t-56.5 23.5t-23.5 56.5z" />
    <glyph glyph-name="dotlessi" unicode="&#x131;" horiz-adv-x="333" 
d="M313 79v-65v-2q0 -4 -0.5 -6t-3.5 -4t-10 -2h-255h-6t-5 3.5t-3 10.5v65q0 14 14 14h64v308h-65h-6t-5 3.5t-3 10.5v65q0 14 14 14h178q10 0 12 -3t2 -9v-2v-387h64q10 0 12 -3t2 -9v-2z" />
    <glyph glyph-name="Jcircumflex" unicode="&#x134;" horiz-adv-x="457" 
d="M387 664v-453q0 -117 -44 -170q-48 -58 -144 -58q-103 0 -150 69q-34 50 -34 119v20q0 11 9 11h99h4.5t4.5 -3.5t3 -10.5v-6v-14q0 -34 13 -53q16 -24 48 -24t46 25q10 18 10 76v397h-137h-4h-5t-4 1t-4.5 3.5t-2.5 6.5t-1 10v54q0 6 1 10t2.5 6.5t4.5 3.5t4 1h5h4h251h4
h5t4 -1t4.5 -3.5t2.5 -6.5t1 -10zM262 786l-104 -47q-4 -2 -6 -2q-6 0 -10 7l-27 45q-2 4 -2 7q0 6 9 11l126 87q5 5 14 5t14 -5l126 -87q9 -5 9 -11q0 -3 -2 -7l-27 -45q-4 -7 -10 -7q-2 0 -6 2z" />
    <glyph glyph-name="jcircumflex" unicode="&#x135;" horiz-adv-x="288" 
d="M226 480v-486q0 -118 -30 -166q-38 -63 -141 -63q-46 0 -91 14q-22 6 -17 24l22 75q3 10 20 3q27 -11 51 -11q40 0 51 36q8 24 8 68v427h-78h-6t-5 3.5t-3 10.5v65q0 7 3 10.5t5 3.5h6h191q10 0 12 -3t2 -9v-2zM278 609l-19 -32q-7 -13 -14 -13q-6 0 -14 6l-86 49
l-86 -49q-10 -6 -14 -6q-7 0 -14 13l-19 32q-6 12 -6 14q0 5 9 12l118 93q6 6 12 6t12 -6l118 -93q9 -7 9 -12q0 -6 -6 -14z" />
    <glyph glyph-name="Kcommaaccent" unicode="&#x136;" horiz-adv-x="630" 
d="M621 75v-54q0 -6 -1 -10t-2.5 -6.5t-4.5 -3.5t-4 -1h-5h-4h-109q-14 0 -22 12l-221 290h-2v-206h48h4h5t4 -1t4.5 -3.5t2.5 -6.5t1 -10v-54q0 -6 -1 -10t-2.5 -6.5t-4.5 -3.5t-4 -1h-5h-4h-234h-4h-5t-4 1t-4.5 3.5t-2.5 6.5t-1 10v54q0 6 1 10t2.5 6.5t4.5 3.5t4 1h5h4
h51v493h-51h-4h-5t-4 1t-4.5 3.5t-2.5 6.5t-1 10v54q0 6 1 10t2.5 6.5t4.5 3.5t4 1h5h4h234h4h5t4 -1t4.5 -3.5t2.5 -6.5t1 -10v-54q0 -6 -1 -10t-2.5 -6.5t-4.5 -3.5t-4 -1h-5h-4h-48v-205h2l212 291q9 10 21 10h107h4h5t4 -1t4.5 -3.5t2.5 -6.5t1 -10v-54q0 -6 -1 -10
t-2.5 -6.5t-4.5 -3.5t-4 -1h-5h-4h-43l-181 -238l206 -255h30h2q7 0 10 -0.5t6 -5.5t3 -15zM319 -37h80q15 0 15 -10q0 -3 -4 -11l-98 -182q-5 -10 -12 -10q-2 0 -8 2l-32 11q-12 5 -12 11q0 2 2 8l51 167q5 12 12 13q2 1 6 1z" />
    <glyph glyph-name="kcommaaccent" unicode="&#x137;" horiz-adv-x="578" 
d="M560 79v-65v-2q0 -4 -0.5 -6t-3.5 -4t-10 -2h-124q-11 0 -14 4q-2 2 -5 6l-174 234v-151h51q10 0 12 -3t2 -9v-2v-65v-2q0 -4 -0.5 -6t-3.5 -4t-10 -2h-229h-6t-5 3.5t-3 10.5v65q0 14 14 14h51v531h-50h-6t-5 3.5t-3 10.5v65q0 7 3 10.5t5 3.5h6h163q10 0 12 -3t2 -9v-2
v-406l125 104h-41h-6t-5 3.5t-3 10.5v65q0 7 3 10.5t5 3.5h6h221q10 0 12 -3t2 -9v-2v-65v-2q0 -4 -0.5 -6t-3.5 -4t-10 -2h-52l-141 -120l156 -188h49q10 0 12 -3t2 -9v-2zM292 -37h80q15 0 15 -10q0 -3 -4 -11l-98 -182q-5 -10 -12 -10q-2 0 -8 2l-32 11q-12 5 -12 11
q0 2 2 8l51 167q5 12 12 13q2 1 6 1z" />
    <glyph glyph-name="Lacute" unicode="&#x139;" horiz-adv-x="537" 
d="M246 108h146l18 78q2 9 4.5 13.5t7.5 3.5l81 -17q17 -3 18 -10v-3l-2 -13l-32 -142q-2 -10 -7 -14t-6 -4h-9h-405h-4h-5t-4 1t-4.5 3.5t-2.5 6.5t-1 10v54q0 6 1 10t2.5 6.5t4.5 3.5t4 1h5h4h51v493h-51h-4h-5t-4 1t-4.5 3.5t-2.5 6.5t-1 10v54q0 6 1 10t2.5 6.5t4.5 3.5
t4 1h5h4h240h4h5t4 -1t4.5 -3.5t2.5 -6.5t1 -10v-54q0 -6 -1 -10t-2.5 -6.5t-4.5 -3.5t-4 -1h-5h-4h-54v-481zM170 814l182 86q9 4 12 4q6 0 11 -11l31 -75q1 -3 1 -9q0 -2 -1.5 -4t-3 -2.5l-4.5 -1.5l-2 -1l-198 -57q-8 -2 -9 -2q-5 0 -10 10l-19 43q-2 4 -2 6q0 8 12 14z
" />
    <glyph glyph-name="lacute" unicode="&#x13a;" horiz-adv-x="305" 
d="M284 101l20 -82q1 -3 1 -8q0 -13 -35 -20.5t-62 -7.5q-26 0 -46.5 6t-33.5 14.5t-22.5 25t-14 29.5t-6.5 37.5t-2.5 38.5t-0.5 42v448h-50h-6t-5 3.5t-3 10.5v65q0 7 3 10.5t5 3.5h6h163q10 0 12 -3t2 -9v-2v-545q0 -17 0.5 -22t2.5 -17t8 -16.5t17 -4.5q14 0 30 6
q15 7 17 -3zM273 827l-178 -71q-6 -3 -12 -3t-13 14l-17 34q-4 8 -4 12q0 6 13 14l166 98q6 4 11 4q6 0 13 -12l33 -65q4 -6 4 -12q0 -8 -16 -13z" />
    <glyph glyph-name="Lcommaaccent" unicode="&#x13b;" horiz-adv-x="537" 
d="M246 108h146l18 78q2 9 4.5 13.5t7.5 3.5l81 -17q17 -3 18 -10v-3l-2 -13l-32 -142q-2 -10 -7 -14t-6 -4h-9h-405h-4h-5t-4 1t-4.5 3.5t-2.5 6.5t-1 10v54q0 6 1 10t2.5 6.5t4.5 3.5t4 1h5h4h51v493h-51h-4h-5t-4 1t-4.5 3.5t-2.5 6.5t-1 10v54q0 6 1 10t2.5 6.5t4.5 3.5
t4 1h5h4h240h4h5t4 -1t4.5 -3.5t2.5 -6.5t1 -10v-54q0 -6 -1 -10t-2.5 -6.5t-4.5 -3.5t-4 -1h-5h-4h-54v-481zM254 -37h80q15 0 15 -10q0 -3 -4 -11l-98 -182q-5 -10 -12 -10q-2 0 -8 2l-32 11q-12 5 -12 11q0 2 2 8l51 167q5 12 12 13q2 1 6 1z" />
    <glyph glyph-name="lcommaaccent" unicode="&#x13c;" horiz-adv-x="305" 
d="M284 101l20 -82q1 -3 1 -8q0 -13 -35 -20.5t-62 -7.5q-26 0 -46.5 6t-33.5 14.5t-22.5 25t-14 29.5t-6.5 37.5t-2.5 38.5t-0.5 42v448h-50h-6t-5 3.5t-3 10.5v65q0 7 3 10.5t5 3.5h6h163q10 0 12 -3t2 -9v-2v-545q0 -17 0.5 -22t2.5 -17t8 -16.5t17 -4.5q14 0 30 6
q15 7 17 -3zM170 -37h80q15 0 15 -10q0 -3 -4 -11l-98 -182q-5 -10 -12 -10q-2 0 -8 2l-32 11q-12 5 -12 11q0 2 2 8l51 167q5 12 12 13q2 1 6 1z" />
    <glyph glyph-name="Lcaron" unicode="&#x13d;" horiz-adv-x="537" 
d="M246 108h146l18 78q2 9 4.5 13.5t7.5 3.5l81 -17q17 -3 18 -10v-3l-2 -13l-32 -142q-2 -10 -7 -14t-6 -4h-9h-405h-4h-5t-4 1t-4.5 3.5t-2.5 6.5t-1 10v54q0 6 1 10t2.5 6.5t4.5 3.5t4 1h5h4h51v493h-51h-4h-5t-4 1t-4.5 3.5t-2.5 6.5t-1 10v54q0 6 1 10t2.5 6.5t4.5 3.5
t4 1h5h4h240h4h5t4 -1t4.5 -3.5t2.5 -6.5t1 -10v-54q0 -6 -1 -10t-2.5 -6.5t-4.5 -3.5t-4 -1h-5h-4h-54v-481zM422 717h80q15 0 15 -10q0 -3 -4 -11l-98 -182q-5 -10 -12 -10q-2 0 -8 2l-32 11q-12 5 -12 11q0 2 2 8l51 167q5 12 12 13q2 1 6 1z" />
    <glyph glyph-name="lcaron" unicode="&#x13e;" horiz-adv-x="415" 
d="M284 101l20 -82q1 -3 1 -8q0 -13 -35 -20.5t-62 -7.5q-26 0 -46.5 6t-33.5 14.5t-22.5 25t-14 29.5t-6.5 37.5t-2.5 38.5t-0.5 42v448h-50h-6t-5 3.5t-3 10.5v65q0 7 3 10.5t5 3.5h6h163q10 0 12 -3t2 -9v-2v-545q0 -17 0.5 -22t2.5 -17t8 -16.5t17 -4.5q14 0 30 6
q15 7 17 -3zM320 713h80q15 0 15 -10q0 -3 -4 -11l-98 -182q-5 -10 -12 -10q-2 0 -8 2l-32 11q-12 5 -12 11q0 2 2 8l51 167q5 12 12 13q2 1 6 1z" />
    <glyph glyph-name="Lslash" unicode="&#x141;" horiz-adv-x="537" 
d="M246 108h146l18 78q2 9 4.5 13.5t7.5 3.5l81 -17q17 -3 18 -10v-3l-2 -13l-32 -142q-2 -10 -7 -14t-6 -4h-9h-405h-4h-5t-4 1t-4.5 3.5t-2.5 6.5t-1 10v54q0 6 1 10t2.5 6.5t4.5 3.5t4 1h5h4h51v166l-58 -36q-4 -2 -8 -2q-6 0 -6 11v64q0 13 9 17l63 39v234h-51h-4h-5
t-4 1t-4.5 3.5t-2.5 6.5t-1 10v54q0 6 1 10t2.5 6.5t4.5 3.5t4 1h5h4h240h4h5t4 -1t4.5 -3.5t2.5 -6.5t1 -10v-54q0 -6 -1 -10t-2.5 -6.5t-4.5 -3.5t-4 -1h-5h-4h-54v-156l144 88q6 4 10 4q5 0 5 -11v-65q0 -5 -1 -8t-2 -4.5t-3.5 -3t-3.5 -1.5l-149 -92v-232z" />
    <glyph glyph-name="lslash" unicode="&#x142;" horiz-adv-x="305" 
d="M284 101l20 -82q1 -2 1 -8q0 -5 -9 -9q-35 -19 -91 -19q-84 0 -108 62q-15 37 -15 131v55l-80 -57q-8 -4 -11 -4q-10 0 -10 10v62q0 8 7 15l94 67v300h-50h-6t-5 3.5t-3 10.5v65q0 7 3 10.5t5 3.5h6h163q10 0 12 -3t2 -9v-2v-289l104 73q13 9 13 -8v-68q0 -8 -8 -12
l-109 -78v-163v-4q0 -18 1 -27t7.5 -19t20.5 -10t28 6q16 6 18 -3z" />
    <glyph glyph-name="Nacute" unicode="&#x143;" horiz-adv-x="671" 
d="M577 589v-568v-4v-4.5t-0.5 -3.5t-2 -4t-4 -2.5t-6 -2t-8.5 -0.5h-66q-19 0 -23 14l-184 341q-32 60 -59 136h-2q1 -29 2.5 -54t2 -36t0.5 -20v-285h50h4h5t4 -1t4.5 -3.5t2.5 -6.5t1 -10v-54q0 -6 -1 -10t-2.5 -6.5t-4.5 -3.5t-4 -1h-5h-4h-216h-4h-5t-4 1t-4.5 3.5
t-2.5 6.5t-1 10v54q0 6 1 10t2.5 6.5t4.5 3.5t4 1h5h4h51v493h-51h-4h-5t-4 1t-4.5 3.5t-2.5 6.5t-1 10v54q0 6 1 10t2.5 6.5t4.5 3.5t4 1h5h4h154q5 0 8.5 -0.5t5.5 -1t3.5 -2t2 -2.5t2 -3.5t1.5 -3.5l166 -310q36 -66 60 -145h2q-4 113 -4 130v242h-50h-4h-5t-4 1
t-4.5 3.5t-2.5 6.5t-1 10v54q0 6 1 10t2.5 6.5t4.5 3.5t4 1h5h4h216h4h5t4 -1t4.5 -3.5t2.5 -6.5t1 -10v-54q0 -6 -1 -10t-2.5 -6.5t-4.5 -3.5t-4 -1h-5h-4h-51zM304 814l182 86q9 4 12 4q6 0 11 -11l31 -75q1 -3 1 -9q0 -2 -1.5 -4t-3 -2.5l-4.5 -1.5l-2 -1l-198 -57
q-8 -2 -9 -2q-5 0 -10 10l-19 43q-2 4 -2 6q0 8 12 14z" />
    <glyph glyph-name="nacute" unicode="&#x144;" horiz-adv-x="599" 
d="M569 79v-65v-2q0 -4 -0.5 -6t-3.5 -4t-10 -2h-164h-6t-5 3.5t-3 10.5v308q0 43 -12 61q-15 23 -44 23q-45 0 -86 -41v-272h51q10 0 12 -3t2 -9v-2v-65v-2q0 -4 -0.5 -6t-3.5 -4t-10 -2h-229h-6t-5 3.5t-3 10.5v65q0 14 14 14h51v223q0 60 -10 85h-48q-14 0 -14 14v65
q0 14 14 14h139q17 0 26 -33q1 -3 2 -5l4 -14l6 5q25 21 37.5 30.5t43.5 21.5t66 12q69 0 102 -43q28 -38 28 -115v-260h51q10 0 12 -3t2 -9v-2zM461 638l-178 -71q-6 -3 -12 -3t-13 14l-17 34q-4 8 -4 12q0 6 13 14l166 98q6 4 11 4q6 0 13 -12l33 -65q4 -6 4 -12
q0 -8 -16 -13z" />
    <glyph glyph-name="Ncommaaccent" unicode="&#x145;" horiz-adv-x="671" 
d="M577 589v-568v-4v-4.5t-0.5 -3.5t-2 -4t-4 -2.5t-6 -2t-8.5 -0.5h-66q-19 0 -23 14l-184 341q-32 60 -59 136h-2q1 -29 2.5 -54t2 -36t0.5 -20v-285h50h4h5t4 -1t4.5 -3.5t2.5 -6.5t1 -10v-54q0 -6 -1 -10t-2.5 -6.5t-4.5 -3.5t-4 -1h-5h-4h-216h-4h-5t-4 1t-4.5 3.5
t-2.5 6.5t-1 10v54q0 6 1 10t2.5 6.5t4.5 3.5t4 1h5h4h51v493h-51h-4h-5t-4 1t-4.5 3.5t-2.5 6.5t-1 10v54q0 6 1 10t2.5 6.5t4.5 3.5t4 1h5h4h154q5 0 8.5 -0.5t5.5 -1t3.5 -2t2 -2.5t2 -3.5t1.5 -3.5l166 -310q36 -66 60 -145h2q-4 113 -4 130v242h-50h-4h-5t-4 1
t-4.5 3.5t-2.5 6.5t-1 10v54q0 6 1 10t2.5 6.5t4.5 3.5t4 1h5h4h216h4h5t4 -1t4.5 -3.5t2.5 -6.5t1 -10v-54q0 -6 -1 -10t-2.5 -6.5t-4.5 -3.5t-4 -1h-5h-4h-51zM320 -37h80q15 0 15 -10q0 -3 -4 -11l-98 -182q-5 -10 -12 -10q-2 0 -8 2l-32 11q-12 5 -12 11q0 2 2 8l51 167
q5 12 12 13q2 1 6 1z" />
    <glyph glyph-name="ncommaaccent" unicode="&#x146;" horiz-adv-x="599" 
d="M569 79v-65v-2q0 -4 -0.5 -6t-3.5 -4t-10 -2h-164h-6t-5 3.5t-3 10.5v308q0 43 -12 61q-15 23 -44 23q-45 0 -86 -41v-272h51q10 0 12 -3t2 -9v-2v-65v-2q0 -4 -0.5 -6t-3.5 -4t-10 -2h-229h-6t-5 3.5t-3 10.5v65q0 14 14 14h51v223q0 60 -10 85h-48q-14 0 -14 14v65
q0 14 14 14h139q17 0 26 -33q1 -3 2 -5l4 -14l6 5q25 21 37.5 30.5t43.5 21.5t66 12q69 0 102 -43q28 -38 28 -115v-260h51q10 0 12 -3t2 -9v-2zM281 -37h80q15 0 15 -10q0 -3 -4 -11l-98 -182q-5 -10 -12 -10q-2 0 -8 2l-32 11q-12 5 -12 11q0 2 2 8l51 167q5 12 12 13
q2 1 6 1z" />
    <glyph glyph-name="Ncaron" unicode="&#x147;" horiz-adv-x="671" 
d="M577 589v-568v-4v-4.5t-0.5 -3.5t-2 -4t-4 -2.5t-6 -2t-8.5 -0.5h-66q-19 0 -23 14l-184 341q-32 60 -59 136h-2q1 -29 2.5 -54t2 -36t0.5 -20v-285h50h4h5t4 -1t4.5 -3.5t2.5 -6.5t1 -10v-54q0 -6 -1 -10t-2.5 -6.5t-4.5 -3.5t-4 -1h-5h-4h-216h-4h-5t-4 1t-4.5 3.5
t-2.5 6.5t-1 10v54q0 6 1 10t2.5 6.5t4.5 3.5t4 1h5h4h51v493h-51h-4h-5t-4 1t-4.5 3.5t-2.5 6.5t-1 10v54q0 6 1 10t2.5 6.5t4.5 3.5t4 1h5h4h154q5 0 8.5 -0.5t5.5 -1t3.5 -2t2 -2.5t2 -3.5t1.5 -3.5l166 -310q36 -66 60 -145h2q-4 113 -4 130v242h-50h-4h-5t-4 1
t-4.5 3.5t-2.5 6.5t-1 10v54q0 6 1 10t2.5 6.5t4.5 3.5t4 1h5h4h216h4h5t4 -1t4.5 -3.5t2.5 -6.5t1 -10v-54q0 -6 -1 -10t-2.5 -6.5t-4.5 -3.5t-4 -1h-5h-4h-51zM357 850l104 47q4 2 6 2q7 0 10 -7l27 -45q2 -4 2 -7q0 -6 -9 -11l-126 -87q-5 -5 -14 -5t-14 5l-126 87
q-9 5 -9 11q0 3 2 7l27 45q3 7 10 7q2 0 6 -2z" />
    <glyph glyph-name="ncaron" unicode="&#x148;" horiz-adv-x="599" 
d="M569 79v-65v-2q0 -4 -0.5 -6t-3.5 -4t-10 -2h-164h-6t-5 3.5t-3 10.5v308q0 43 -12 61q-15 23 -44 23q-45 0 -86 -41v-272h51q10 0 12 -3t2 -9v-2v-65v-2q0 -4 -0.5 -6t-3.5 -4t-10 -2h-229h-6t-5 3.5t-3 10.5v65q0 14 14 14h51v223q0 60 -10 85h-48q-14 0 -14 14v65
q0 14 14 14h139q17 0 26 -33q1 -3 2 -5l4 -14l6 5q25 21 37.5 30.5t43.5 21.5t66 12q69 0 102 -43q28 -38 28 -115v-260h51q10 0 12 -3t2 -9v-2zM422 721l19 -32q6 -8 6 -14q0 -5 -9 -12l-118 -93q-6 -6 -12 -6t-12 6l-118 93q-9 7 -9 12q0 2 6 14l19 32q7 13 14 13
q4 0 14 -6l86 -49l86 49q8 6 14 6q7 0 14 -13z" />
    <glyph glyph-name="Omacron" unicode="&#x14c;" horiz-adv-x="593" 
d="M296 -17q-50 0 -90.5 16.5t-66 41.5t-44 61.5t-27.5 67.5t-14 70t-6 59t-1 43t1 43.5t6 59.5t14 70t27.5 67.5t44 61.5t66 41.5t90.5 16.5t90.5 -17t66 -41.5t44 -61.5t27.5 -68.5t14 -70t6 -59t1 -42.5q0 -23 -1 -43t-6 -59t-14 -70t-27.5 -67.5t-44 -61.5t-66 -41.5
t-90.5 -16.5zM296 88q107 0 107 254q0 255 -107 255t-107 -255q0 -254 107 -254zM185 869h223q15 0 15 -15v-57q0 -15 -15 -15h-223q-15 0 -15 15v57q0 15 15 15z" />
    <glyph glyph-name="omacron" unicode="&#x14d;" horiz-adv-x="519" 
d="M259 -17q-91 0 -154 66t-63 198t63 198t154 66t154 -66t63 -198t-63 -198t-154 -66zM259 83q44 0 64 38q18 36 18 120q0 98 -21 135q-20 35 -61 35q-42 0 -64 -41q-18 -35 -18 -126q0 -93 20 -127t62 -34zM382 673v-42q0 -5 -0.5 -8.5t-2 -5.5t-2 -3.5t-3.5 -2t-3.5 -0.5
h-4h-4.5h-205q-7 0 -10 0.5t-6.5 5t-3.5 14.5v42v3q0 6 0.5 9t5 5.5t14.5 2.5h205h3q6 0 9 -0.5t5.5 -5t2.5 -14.5z" />
    <glyph glyph-name="Obreve" unicode="&#x14e;" horiz-adv-x="593" 
d="M296 -17q-50 0 -90.5 16.5t-66 41.5t-44 61.5t-27.5 67.5t-14 70t-6 59t-1 43t1 43.5t6 59.5t14 70t27.5 67.5t44 61.5t66 41.5t90.5 16.5t90.5 -17t66 -41.5t44 -61.5t27.5 -68.5t14 -70t6 -59t1 -42.5q0 -23 -1 -43t-6 -59t-14 -70t-27.5 -67.5t-44 -61.5t-66 -41.5
t-90.5 -16.5zM296 88q107 0 107 254q0 255 -107 255t-107 -255q0 -254 107 -254zM362 887l67 -7q11 -1 11 -15q0 -1 -0.5 -4t-0.5 -4q-19 -105 -143 -105t-143 105q0 1 -0.5 4t-0.5 4q0 14 11 15l67 7h7q6 -1 8 -11l2 -8q10 -36 50 -36q17 0 31 10.5t18 28.5l1 5q2 10 7 11
h8z" />
    <glyph glyph-name="obreve" unicode="&#x14f;" horiz-adv-x="519" 
d="M259 -17q-91 0 -154 66t-63 198t63 198t154 66t154 -66t63 -198t-63 -198t-154 -66zM259 83q44 0 64 38q18 36 18 120q0 98 -21 135q-20 35 -61 35q-42 0 -64 -41q-18 -35 -18 -126q0 -93 20 -127t62 -34zM324 722l64 -8q11 -2 11 -13v-5q-2 -30 -18 -54
q-39 -62 -122 -62t-122 62q-16 24 -18 54v5q0 11 11 13l64 8q2 0 4 0.5t4 0.5q5 0 7 -11l2 -9q4 -20 18 -30.5t30 -10.5q39 0 48 43l2 8q1 4 2 6.5t2.5 3t2.5 0.5t4 -0.5t4 -0.5z" />
    <glyph glyph-name="Ohungarumlaut" unicode="&#x150;" horiz-adv-x="562" 
d="M296 -17q-50 0 -90.5 16.5t-66 41.5t-44 61.5t-27.5 67.5t-14 70t-6 59t-1 43t1 43.5t6 59.5t14 70t27.5 67.5t44 61.5t66 41.5t90.5 16.5t90.5 -17t66 -41.5t44 -61.5t27.5 -68.5t14 -70t6 -59t1 -42.5q0 -23 -1 -43t-6 -59t-14 -70t-27.5 -67.5t-44 -61.5t-66 -41.5
t-90.5 -16.5zM296 88q107 0 107 254q0 255 -107 255t-107 -255q0 -254 107 -254zM145 786l126 132q6 6 10 6q5 0 11 -6l44 -44q6 -6 6 -10q0 -8 -8 -14l-144 -109q-5 -5 -12 -5q-4 0 -9 5l-24 25q-5 5 -5 10t5 10zM318 786l126 132q6 6 10 6q5 0 11 -6l44 -44q6 -6 6 -10
q0 -8 -8 -14l-144 -109q-5 -5 -12 -5q-4 0 -9 5l-24 25q-5 5 -5 10t5 10z" />
    <glyph glyph-name="ohungarumlaut" unicode="&#x151;" horiz-adv-x="519" 
d="M259 -17q-91 0 -154 66t-63 198t63 198t154 66t154 -66t63 -198t-63 -198t-154 -66zM259 83q44 0 64 38q18 36 18 120q0 98 -21 135q-20 35 -61 35q-42 0 -64 -41q-18 -35 -18 -126q0 -93 20 -127t62 -34zM345 677l-115 -104q-13 -9 -14 -9q-6 0 -15 9l-15 13
q-10 8 -10 15q0 4 8 14l95 123q7 10 14 10q6 0 14 -8l38 -34q10 -9 10 -14t-10 -15zM500 677l-115 -104q-13 -9 -14 -9q-6 0 -15 9l-15 13q-10 8 -10 15q0 4 8 14l95 123q8 10 14 10t14 -8l38 -34q10 -9 10 -14t-10 -15z" />
    <glyph glyph-name="OE" unicode="&#x152;" horiz-adv-x="800" 
d="M509 412h170q11 0 16 -4t5 -6v-11v-66q0 -6 -1 -10t-2.5 -6.5t-4.5 -3.5t-4 -1h-5h-4h-170v-196h127v70q0 16 5 18.5t16 2.5h66q11 0 16 -4t5 -6v-11v-157q0 -26 -20 -21h-324q-57 -17 -95 -17q-126 0 -192 91q-65 89 -65 268q0 94 17.5 166.5t70.5 128.5q61 65 163 65
q40 0 101 -17h323q17 0 19 -7q2 -4 2 -10v-152q0 -11 -3.5 -15.5t-6.5 -5t-11 -0.5h-66h-4h-5t-4 1t-4.5 3.5t-2.5 6.5t-1 10v61h-127v-165zM379 114v456q-31 27 -72 27q-60 0 -87 -58q-30 -64 -30 -197q0 -142 32 -202q27 -52 83 -52q39 0 74 26z" />
    <glyph glyph-name="oe" unicode="&#x153;" horiz-adv-x="778" 
d="M695 113l25 -60q9 -23 -30 -39q-74 -31 -146 -31q-105 0 -147 65q-46 -65 -139 -65q-92 0 -154.5 65.5t-62.5 196.5q0 119 55 190q59 76 162 76q96 0 143 -62q59 62 138 62q81 0 131 -48q62 -60 69 -203v-6.5v-8.5v-7q-1 -16 -4.5 -20.5t-18.5 -4.5h-263q-2 -44 17 -78
q27 -47 87 -47q50 0 104 24q22 9 23 9q7 0 11 -8zM453 306h151q2 50 -15 79q-19 33 -57 33q-40 0 -61 -40q-13 -23 -17 -62zM258 83q40 0 59 41q16 37 16 123q0 94 -20 129q-19 35 -55 35q-28 0 -48 -18q-34 -31 -34 -146q0 -91 18 -125q20 -39 64 -39z" />
    <glyph glyph-name="Racute" unicode="&#x154;" horiz-adv-x="605" 
d="M603 75v-54q0 -6 -1 -10t-2.5 -6.5t-4.5 -3.5t-4 -1h-5h-4h-128q-16 0 -22 13l-136 270h-48v-187h47h4h5t4 -1t4.5 -3.5t2.5 -6.5t1 -10v-54q0 -6 -1 -10t-2.5 -6.5t-4.5 -3.5t-4 -1h-5h-4h-233h-4h-5t-4 1t-4.5 3.5t-2.5 6.5t-1 10v54q0 6 1 10t2.5 6.5t4.5 3.5t4 1h5h4
h51v493h-51h-4h-5t-4 1t-4.5 3.5t-2.5 6.5t-1 10v54q0 6 1 10t2.5 6.5t4.5 3.5t4 1h5h4h234q63 0 103.5 -10.5t73.5 -39.5q56 -50 56 -143q0 -77 -31 -121q-29 -43 -73 -60l-10 -4l121 -211h46h4h5t4 -1t4.5 -3.5t2.5 -6.5t1 -10zM248 388h26q68 0 95 26q25 25 25 76
q0 46 -24 69q-23 21 -85 21h-37v-192zM223 814l182 86q9 4 12 4q5 0 11 -11l31 -75q1 -3 1 -9q0 -2 -1.5 -4t-3 -2.5t-3.5 -1.5l-3 -1l-198 -57q-8 -2 -9 -2q-5 0 -10 10l-19 43q-2 4 -2 6q0 8 12 14z" />
    <glyph glyph-name="racute" unicode="&#x155;" horiz-adv-x="401" 
d="M303 79v-65v-2q0 -4 -0.5 -6t-3.5 -4t-10 -2h-232h-6t-5 3.5t-3 10.5v65q0 14 14 14h51v223q0 50 -8 78l-2 7h-48h-6t-5 3.5t-3 10.5v65q0 14 14 14h130q23 0 34 -49l3 -13l6 8q53 71 118 71q25 0 43.5 -8t12.5 -25l-31 -84q-3 -9 -6 -9q-4 0 -10 3q-15 8 -37 8
q-32 0 -78 -48v-255h54q10 0 12 -3t2 -9v-2zM391 639l-178 -71q-6 -3 -12 -3t-13 14l-17 34q-4 8 -4 12q0 6 13 14l166 98q6 4 11 4q6 0 13 -12l33 -65q4 -6 4 -12q0 -8 -16 -13z" />
    <glyph glyph-name="Rcommaaccent" unicode="&#x156;" horiz-adv-x="605" 
d="M603 75v-54q0 -6 -1 -10t-2.5 -6.5t-4.5 -3.5t-4 -1h-5h-4h-128q-16 0 -22 13l-136 270h-48v-187h47h4h5t4 -1t4.5 -3.5t2.5 -6.5t1 -10v-54q0 -6 -1 -10t-2.5 -6.5t-4.5 -3.5t-4 -1h-5h-4h-233h-4h-5t-4 1t-4.5 3.5t-2.5 6.5t-1 10v54q0 6 1 10t2.5 6.5t4.5 3.5t4 1h5h4
h51v493h-51h-4h-5t-4 1t-4.5 3.5t-2.5 6.5t-1 10v54q0 6 1 10t2.5 6.5t4.5 3.5t4 1h5h4h234q63 0 103.5 -10.5t73.5 -39.5q56 -50 56 -143q0 -77 -31 -121q-29 -43 -73 -60l-10 -4l121 -211h46h4h5t4 -1t4.5 -3.5t2.5 -6.5t1 -10zM248 388h26q68 0 95 26q25 25 25 76
q0 46 -24 69q-23 21 -85 21h-37v-192zM311 -37h80q15 0 15 -10q0 -3 -4 -11l-98 -182q-5 -10 -12 -10q-2 0 -8 2l-32 11q-12 5 -12 11q0 2 2 8l51 167q5 12 12 13q2 1 6 1z" />
    <glyph glyph-name="rcommaaccent" unicode="&#x157;" horiz-adv-x="401" 
d="M303 79v-65v-2q0 -4 -0.5 -6t-3.5 -4t-10 -2h-232h-6t-5 3.5t-3 10.5v65q0 14 14 14h51v223q0 50 -8 78l-2 7h-48h-6t-5 3.5t-3 10.5v65q0 14 14 14h130q23 0 34 -49l3 -13l6 8q53 71 118 71q25 0 43.5 -8t12.5 -25l-31 -84q-3 -9 -6 -9q-4 0 -10 3q-15 8 -37 8
q-32 0 -78 -48v-255h54q10 0 12 -3t2 -9v-2zM157 -37h80q15 0 15 -10q0 -3 -4 -11l-98 -182q-5 -10 -12 -10q-2 0 -8 2l-32 11q-12 5 -12 11q0 2 2 8l51 167q5 12 12 13q2 1 6 1z" />
    <glyph glyph-name="Rcaron" unicode="&#x158;" horiz-adv-x="605" 
d="M603 75v-54q0 -6 -1 -10t-2.5 -6.5t-4.5 -3.5t-4 -1h-5h-4h-128q-16 0 -22 13l-136 270h-48v-187h47h4h5t4 -1t4.5 -3.5t2.5 -6.5t1 -10v-54q0 -6 -1 -10t-2.5 -6.5t-4.5 -3.5t-4 -1h-5h-4h-233h-4h-5t-4 1t-4.5 3.5t-2.5 6.5t-1 10v54q0 6 1 10t2.5 6.5t4.5 3.5t4 1h5h4
h51v493h-51h-4h-5t-4 1t-4.5 3.5t-2.5 6.5t-1 10v54q0 6 1 10t2.5 6.5t4.5 3.5t4 1h5h4h234q63 0 103.5 -10.5t73.5 -39.5q56 -50 56 -143q0 -77 -31 -121q-29 -43 -73 -60l-10 -4l121 -211h46h4h5t4 -1t4.5 -3.5t2.5 -6.5t1 -10zM248 388h26q68 0 95 26q25 25 25 76
q0 46 -24 69q-23 21 -85 21h-37v-192zM302 850l104 47q4 2 6 2q6 0 10 -7l27 -45q2 -4 2 -7q0 -6 -9 -11l-126 -87q-5 -5 -14 -5t-14 5l-126 87q-9 5 -9 11q0 3 2 7l27 45q4 7 10 7q2 0 6 -2z" />
    <glyph glyph-name="rcaron" unicode="&#x159;" horiz-adv-x="401" 
d="M303 79v-65v-2q0 -4 -0.5 -6t-3.5 -4t-10 -2h-232h-6t-5 3.5t-3 10.5v65q0 14 14 14h51v223q0 50 -8 78l-2 7h-48h-6t-5 3.5t-3 10.5v65q0 14 14 14h130q23 0 34 -49l3 -13l6 8q53 71 118 71q25 0 43.5 -8t12.5 -25l-31 -84q-3 -9 -6 -9q-4 0 -10 3q-15 8 -37 8
q-32 0 -78 -48v-255h54q10 0 12 -3t2 -9v-2zM361 722l19 -32q6 -8 6 -14q0 -5 -9 -12l-118 -93q-6 -6 -12 -6t-12 6l-118 93q-9 7 -9 12q0 2 6 14l19 32q7 13 14 13q4 0 14 -6l86 -49l86 49q8 6 14 6q7 0 14 -13z" />
    <glyph glyph-name="Sacute" unicode="&#x15a;" 
d="M339 501v80l-8 3q-26 10 -59 10q-50 0 -72 -22.5t-22 -55.5q0 -9 1.5 -17t6 -15t7.5 -12t11.5 -11.5t12 -9.5t15.5 -9.5t16 -8.5t18.5 -8.5t18.5 -8.5q68 -32 98 -55q86 -63 86 -167q0 -90 -57 -149q-60 -62 -165 -62q-54 0 -127 18t-73 50v151q0 14 8 16q4 1 9 1h74
q8 0 12 -2t4.5 -4.5t0.5 -7.5v-3v-91l12 -5q35 -15 82 -15q90 0 90 92q0 41 -25 64t-91 52q-105 48 -136 82q-39 42 -39 117q0 95 58.5 149.5t161.5 54.5q69 0 124 -20.5t55 -45.5v-135q0 -8 -3 -12t-5.5 -4.5t-6.5 -0.5h-2h-74q-8 0 -12 2t-4.5 4.5t-0.5 7.5v3zM218 814
l182 86q9 4 12 4q6 0 11 -11l31 -75q1 -3 1 -9q0 -2 -1.5 -4t-3 -2.5l-4.5 -1.5l-2 -1l-198 -57q-8 -2 -9 -2q-5 0 -10 10l-19 43q-2 4 -2 6q0 8 12 14z" />
    <glyph glyph-name="sacute" unicode="&#x15b;" horiz-adv-x="426" 
d="M267 362v49q-22 4 -40 4q-21 0 -35 -6t-19.5 -15t-7.5 -15.5t-2 -13.5q0 -29 35 -45q4 -2 66 -25q65 -23 96 -61q31 -39 31 -90q0 -69 -45 -114q-47 -47 -127 -47q-46 0 -111 16.5t-65 41.5v109q0 7 3 10.5t5 3.5h6h68q14 0 14 -15v-3v-49q44 -14 71 -14q35 0 48 15.5
t13 34.5q0 20 -10 30.5t-29 18.5q-5 2 -72 27q-53 21 -79 48q-33 36 -33 90q0 68 47 115q49 49 140 49q37 0 82.5 -12t45.5 -34v-103q0 -10 -2.5 -12t-8.5 -2h-2h-69h-6t-5 3.5t-3 10.5zM379 638l-178 -71q-6 -3 -12 -3t-13 14l-17 34q-4 8 -4 12q0 6 13 14l166 98q6 4 11 4
q6 0 13 -12l33 -65q4 -6 4 -12q0 -8 -16 -13z" />
    <glyph glyph-name="Scircumflex" unicode="&#x15c;" 
d="M339 501v80l-8 3q-26 10 -59 10q-50 0 -72 -22.5t-22 -55.5q0 -9 1.5 -17t6 -15t7.5 -12t11.5 -11.5t12 -9.5t15.5 -9.5t16 -8.5t18.5 -8.5t18.5 -8.5q68 -32 98 -55q86 -63 86 -167q0 -90 -57 -149q-60 -62 -165 -62q-54 0 -127 18t-73 50v151q0 14 8 16q4 1 9 1h74
q8 0 12 -2t4.5 -4.5t0.5 -7.5v-3v-91l12 -5q35 -15 82 -15q90 0 90 92q0 41 -25 64t-91 52q-105 48 -136 82q-39 42 -39 117q0 95 58.5 149.5t161.5 54.5q69 0 124 -20.5t55 -45.5v-135q0 -8 -3 -12t-5.5 -4.5t-6.5 -0.5h-2h-74q-8 0 -12 2t-4.5 4.5t-0.5 7.5v3zM264 786
l-104 -47q-4 -2 -6 -2q-6 0 -10 7l-27 45q-2 4 -2 7q0 6 9 11l126 87q5 5 14 5t14 -5l126 -87q9 -5 9 -11q0 -3 -2 -7l-27 -45q-4 -7 -10 -7q-2 0 -6 2z" />
    <glyph glyph-name="scircumflex" unicode="&#x15d;" horiz-adv-x="426" 
d="M267 362v49q-22 4 -40 4q-21 0 -35 -6t-19.5 -15t-7.5 -15.5t-2 -13.5q0 -29 35 -45q4 -2 66 -25q65 -23 96 -61q31 -39 31 -90q0 -69 -45 -114q-47 -47 -127 -47q-46 0 -111 16.5t-65 41.5v109q0 7 3 10.5t5 3.5h6h68q14 0 14 -15v-3v-49q44 -14 71 -14q35 0 48 15.5
t13 34.5q0 20 -10 30.5t-29 18.5q-5 2 -72 27q-53 21 -79 48q-33 36 -33 90q0 68 47 115q49 49 140 49q37 0 82.5 -12t45.5 -34v-103q0 -10 -2.5 -12t-8.5 -2h-2h-69h-6t-5 3.5t-3 10.5zM346 609l-19 -32q-7 -13 -14 -13q-6 0 -14 6l-86 49l-86 -49q-10 -6 -14 -6
q-7 0 -14 13l-19 32q-6 12 -6 14q0 5 9 12l118 93q6 6 12 6t12 -6l118 -93q9 -7 9 -12q0 -6 -6 -14z" />
    <glyph glyph-name="Scedilla" unicode="&#x15e;" 
d="M339 501v80l-8 3q-26 10 -59 10q-50 0 -72 -22t-22 -55q0 -10 3 -19.5t5.5 -16.5t11 -14.5t13 -11.5t17 -11t17 -9t20.5 -9.5t20 -9.5l29 -14q79 -38 117 -88t38 -120q0 -90 -53.5 -147.5t-136.5 -63.5l-4 -40q30 0 53 -18.5t23 -57.5q0 -43 -33.5 -67t-84.5 -24
q-28 0 -57 7q-16 4 -13 17l8 43q2 8 6 8q3 0 13 -3q15 -4 33 -4q29 0 29 23q0 8 -5 15q-8 10 -32 10h-11q-17 0 -15 16l8 78q-60 7 -105 24t-45 41v151q0 14 8 16q4 1 9 1h74q8 0 12 -2t4.5 -4.5t0.5 -7.5v-3v-91l12 -5q37 -15 80 -15t67.5 23t24.5 67q0 41 -25.5 65
t-90.5 53q-60 27 -88 44q-44 27 -65.5 62t-21.5 93q0 95 58.5 149.5t161.5 54.5q69 0 124 -20.5t55 -45.5v-135q0 -8 -3 -12t-5.5 -4.5t-6.5 -0.5h-2h-74q-8 0 -12 2t-4.5 4.5t-0.5 7.5v3z" />
    <glyph glyph-name="Scedilla" unicode="&#xf6c1;" 
d="M339 501v80l-8 3q-26 10 -59 10q-50 0 -72 -22t-22 -55q0 -10 3 -19.5t5.5 -16.5t11 -14.5t13 -11.5t17 -11t17 -9t20.5 -9.5t20 -9.5l29 -14q79 -38 117 -88t38 -120q0 -90 -53.5 -147.5t-136.5 -63.5l-4 -40q30 0 53 -18.5t23 -57.5q0 -43 -33.5 -67t-84.5 -24
q-28 0 -57 7q-16 4 -13 17l8 43q2 8 6 8q3 0 13 -3q15 -4 33 -4q29 0 29 23q0 8 -5 15q-8 10 -32 10h-11q-17 0 -15 16l8 78q-60 7 -105 24t-45 41v151q0 14 8 16q4 1 9 1h74q8 0 12 -2t4.5 -4.5t0.5 -7.5v-3v-91l12 -5q37 -15 80 -15t67.5 23t24.5 67q0 41 -25.5 65
t-90.5 53q-60 27 -88 44q-44 27 -65.5 62t-21.5 93q0 95 58.5 149.5t161.5 54.5q69 0 124 -20.5t55 -45.5v-135q0 -8 -3 -12t-5.5 -4.5t-6.5 -0.5h-2h-74q-8 0 -12 2t-4.5 4.5t-0.5 7.5v3z" />
    <glyph glyph-name="scedilla" unicode="&#x15f;" horiz-adv-x="426" 
d="M267 362v50q-33 3 -38 3q-34 0 -50 -14.5t-16 -35.5q0 -6 1 -11.5t4 -10t5.5 -8t8.5 -7t9 -5.5t11 -5.5t11.5 -4.5t13 -4.5t12.5 -4.5q48 -18 55 -21q97 -44 97 -139q0 -66 -42 -110.5t-108 -50.5l-1 -35q32 0 51.5 -21t19.5 -51q0 -37 -28 -62.5t-81 -25.5q-47 0 -65 9
q-9 4 -6 21l7 35q2 5 2 5.5t11 -0.5q13 -5 35 -5q32 0 32 23q0 24 -43 23h-8q-10 1 -10 7q0 19 1 25l6 57q-41 5 -81 20t-40 33v109q0 7 3 10.5t5 3.5h6h68q14 0 14 -15v-3v-49q44 -14 71 -14q35 0 48 15.5t13 34.5q0 18 -12 31t-24.5 18.5t-37.5 13.5l-9 3q-36 12 -54 21
q-86 43 -86 128q0 64 45.5 113.5t141.5 49.5q37 0 82.5 -12t45.5 -34v-103q0 -10 -2.5 -12t-8.5 -2h-2h-69h-6t-5 3.5t-3 10.5z" />
    <glyph glyph-name="scedilla" unicode="&#xf6c2;" horiz-adv-x="426" 
d="M267 362v50q-33 3 -38 3q-34 0 -50 -14.5t-16 -35.5q0 -6 1 -11.5t4 -10t5.5 -8t8.5 -7t9 -5.5t11 -5.5t11.5 -4.5t13 -4.5t12.5 -4.5q48 -18 55 -21q97 -44 97 -139q0 -66 -42 -110.5t-108 -50.5l-1 -35q32 0 51.5 -21t19.5 -51q0 -37 -28 -62.5t-81 -25.5q-47 0 -65 9
q-9 4 -6 21l7 35q2 5 2 5.5t11 -0.5q13 -5 35 -5q32 0 32 23q0 24 -43 23h-8q-10 1 -10 7q0 19 1 25l6 57q-41 5 -81 20t-40 33v109q0 7 3 10.5t5 3.5h6h68q14 0 14 -15v-3v-49q44 -14 71 -14q35 0 48 15.5t13 34.5q0 18 -12 31t-24.5 18.5t-37.5 13.5l-9 3q-36 12 -54 21
q-86 43 -86 128q0 64 45.5 113.5t141.5 49.5q37 0 82.5 -12t45.5 -34v-103q0 -10 -2.5 -12t-8.5 -2h-2h-69h-6t-5 3.5t-3 10.5z" />
    <glyph glyph-name="Scaron" unicode="&#x160;" 
d="M339 501v80l-8 3q-26 10 -59 10q-50 0 -72 -22.5t-22 -55.5q0 -9 1.5 -17t6 -15t7.5 -12t11.5 -11.5t12 -9.5t15.5 -9.5t16 -8.5t18.5 -8.5t18.5 -8.5q68 -32 98 -55q86 -63 86 -167q0 -90 -57 -149q-60 -62 -165 -62q-54 0 -127 18t-73 50v151q0 14 8 16q4 1 9 1h74
q8 0 12 -2t4.5 -4.5t0.5 -7.5v-3v-91l12 -5q35 -15 82 -15q90 0 90 92q0 41 -25 64t-91 52q-105 48 -136 82q-39 42 -39 117q0 95 58.5 149.5t161.5 54.5q69 0 124 -20.5t55 -45.5v-135q0 -8 -3 -12t-5.5 -4.5t-6.5 -0.5h-2h-74q-8 0 -12 2t-4.5 4.5t-0.5 7.5v3zM265 850
l104 47q4 2 6 2q7 0 10 -7l27 -45q2 -4 2 -7q0 -6 -9 -11l-126 -87q-5 -5 -14 -5t-14 5l-126 87q-9 5 -9 11q0 3 2 7l27 45q3 7 10 7q2 0 6 -2z" />
    <glyph glyph-name="scaron" unicode="&#x161;" horiz-adv-x="426" 
d="M267 362v49q-22 4 -40 4q-21 0 -35 -6t-19.5 -15t-7.5 -15.5t-2 -13.5q0 -29 35 -45q4 -2 66 -25q65 -23 96 -61q31 -39 31 -90q0 -69 -45 -114q-47 -47 -127 -47q-46 0 -111 16.5t-65 41.5v109q0 7 3 10.5t5 3.5h6h68q14 0 14 -15v-3v-49q44 -14 71 -14q35 0 48 15.5
t13 34.5q0 20 -10 30.5t-29 18.5q-5 2 -72 27q-53 21 -79 48q-33 36 -33 90q0 68 47 115q49 49 140 49q37 0 82.5 -12t45.5 -34v-103q0 -10 -2.5 -12t-8.5 -2h-2h-69h-6t-5 3.5t-3 10.5zM333 721l19 -32q6 -8 6 -14q0 -5 -9 -12l-118 -93q-6 -6 -12 -6t-12 6l-118 93
q-9 7 -9 12q0 2 6 14l19 32q7 13 14 13q4 0 14 -6l86 -49l86 49q8 6 14 6q7 0 14 -13z" />
    <glyph glyph-name="Tcedilla" unicode="&#x162;" horiz-adv-x="519" 
d="M414 75v-54q0 -6 -1 -10t-2.5 -6.5t-4.5 -3.5t-4 -1h-5h-4h-90l-5 -57q32 0 53 -18q23 -21 23 -57q0 -43 -32.5 -67.5t-85.5 -24.5q-28 0 -57 7q-16 4 -13 17l8 43q2 8 6 8q2 0 13 -3q15 -4 33 -4q19 0 26.5 13.5t-2.5 24.5q-8 10 -32 10h-11q-17 0 -15 16l10 92h-96h-4
h-5t-4 1t-4.5 3.5t-2.5 6.5t-1 10v54q0 6 1 10t2.5 6.5t4.5 3.5t4 1h5h4h66v481h-73v-96q0 -8 -3 -12t-5.5 -4.5t-6.5 -0.5h-2h-59q-8 0 -12 2t-4.5 4.5t-0.5 7.5v3v187v3.5v3.5t0.5 3t1.5 3t3 2t5 1.5t7 0.5h433q14 0 16 -8q1 -4 1 -9v-187q0 -8 -3 -12t-5.5 -4.5
t-6.5 -0.5h-2h-59q-8 0 -12 2t-4.5 4.5t-0.5 7.5v3v96h-73v-481h66h4h5t4 -1t4.5 -3.5t2.5 -6.5t1 -10z" />
    <glyph glyph-name="tcedilla" unicode="&#x163;" horiz-adv-x="370" 
d="M338 111l20 -82q2 -6 2 -8q0 -10 -18 -17q-40 -17 -80 -21l-3 -35q25 -2 42 -13q29 -19 29 -59q0 -36 -27 -61q-30 -27 -82 -27q-47 0 -65 9q-9 4 -6 21l7 35q2 9 14 5q15 -5 34 -5q32 0 32 23t-43 23h-8q-10 0 -10 7q0 8 1 25l4 55q-49 10 -73 54q-18 34 -18 136v225
h-71h-6t-5 3.5t-3 10.5v65q0 7 3 10.5t5 3.5h6h71v126q0 14 9 16q3 2 7 2l88 12q11 3 17 1t6 -17v-140h114q18 0 18 -10q0 -2 -2 -10l-14 -59q-4 -14 -19 -14h-97v-242q0 -34 7 -46q9 -15 33 -15q17 0 53 13q14 6 20 6t8 -6z" />
    <glyph glyph-name="Tcaron" unicode="&#x164;" horiz-adv-x="519" 
d="M414 75v-54q0 -6 -1 -10t-2.5 -6.5t-4.5 -3.5t-4 -1h-5h-4h-267h-4h-5t-4 1t-4.5 3.5t-2.5 6.5t-1 10v54q0 6 1 10t2.5 6.5t4.5 3.5t4 1h5h4h66v481h-73v-96q0 -8 -3 -12t-5.5 -4.5t-6.5 -0.5h-2h-59q-8 0 -12 2t-4.5 4.5t-0.5 7.5v3v187v3.5v3.5t0.5 3t1.5 3t3 2t5 1.5
t7 0.5h433q14 0 16 -8q1 -4 1 -9v-187q0 -8 -3 -12t-5.5 -4.5t-6.5 -0.5h-2h-59q-8 0 -12 2t-4.5 4.5t-0.5 7.5v3v96h-73v-481h66h4h5t4 -1t4.5 -3.5t2.5 -6.5t1 -10zM259 850l104 47q4 2 6 2q7 0 10 -7l27 -45q2 -4 2 -7q0 -6 -9 -11l-126 -87q-5 -5 -14 -5t-14 5l-126 87
q-9 5 -9 11q0 3 2 7l27 45q3 7 10 7q2 0 6 -2z" />
    <glyph glyph-name="tcaron" unicode="&#x165;" horiz-adv-x="418" 
d="M338 111l20 -82q2 -6 2 -8q0 -10 -18 -17q-52 -21 -116 -21q-40 0 -69.5 11t-48.5 46q-18 34 -18 136v225h-71h-6t-5 3.5t-3 10.5v65q0 7 3 10.5t5 3.5h6h71v126q0 14 9 16q3 2 7 2l88 12q11 3 17 1t6 -17v-140h114q18 0 18 -10q0 -2 -2 -10l-14 -59q-4 -14 -19 -14h-97
v-242q0 -34 7 -46q9 -15 33 -15q17 0 53 13q14 6 20 6t8 -6zM334 737h80q15 0 15 -10q0 -3 -4 -11l-98 -182q-5 -10 -12 -10q-2 0 -8 2l-32 11q-12 5 -12 11q0 2 2 8l51 167q5 12 12 13q2 1 6 1z" />
    <glyph glyph-name="Umacron" unicode="&#x16a;" horiz-adv-x="685" 
d="M584 589v-357q0 -142 -75 -204q-56 -45 -166 -45t-166 45q-75 61 -75 204v357h-51h-4h-5t-4 1t-4.5 3.5t-2.5 6.5t-1 10v54q0 6 1 10t2.5 6.5t4.5 3.5t4 1h5h4h236h4h5t4 -1t4.5 -3.5t2.5 -6.5t1 -10v-54q0 -6 -1 -10t-2.5 -6.5t-4.5 -3.5t-4 -1h-5h-4h-50v-357
q0 -89 31 -118q25 -23 75 -23q36 0 59 12.5t32.5 36.5t12 43t2.5 49v357h-50h-4h-5t-4 1t-4.5 3.5t-2.5 6.5t-1 10v54q0 6 1 10t2.5 6.5t4.5 3.5t4 1h5h4h236h4h5t4 -1t4.5 -3.5t2.5 -6.5t1 -10v-54q0 -6 -1 -10t-2.5 -6.5t-4.5 -3.5t-4 -1h-5h-4h-51zM231 869h223
q15 0 15 -15v-57q0 -15 -15 -15h-223q-15 0 -15 15v57q0 15 15 15z" />
    <glyph glyph-name="umacron" unicode="&#x16b;" horiz-adv-x="586" 
d="M554 79v-65v-2q0 -4 -0.5 -6t-3.5 -4t-10 -2h-133q-20 0 -29 35l-3 12l-12 -11q-24 -21 -38 -29q-43 -24 -99 -24q-81 0 -113 54q-21 35 -21 104v260h-51h-6t-5 3.5t-3 10.5v65q0 14 14 14h164q10 0 12 -3t2 -9v-2v-308q0 -43 9 -61q13 -28 49 -28q43 0 84 41v277h-51h-6
t-5 3.5t-3 10.5v65q0 14 14 14h164q10 0 12 -3t2 -9v-2v-302q0 -60 10 -85h42h2q4 0 6 -0.5t4 -3.5t2 -10zM415 673v-42q0 -5 -0.5 -8.5t-2 -5.5t-2 -3.5t-3.5 -2t-3.5 -0.5h-4h-4.5h-205q-7 0 -10 0.5t-6.5 5t-3.5 14.5v42v3q0 6 0.5 9t5 5.5t14.5 2.5h205h3q6 0 9 -0.5
t5.5 -5t2.5 -14.5z" />
    <glyph glyph-name="Ubreve" unicode="&#x16c;" horiz-adv-x="685" 
d="M584 589v-357q0 -142 -75 -204q-56 -45 -166 -45t-166 45q-75 61 -75 204v357h-51h-4h-5t-4 1t-4.5 3.5t-2.5 6.5t-1 10v54q0 6 1 10t2.5 6.5t4.5 3.5t4 1h5h4h236h4h5t4 -1t4.5 -3.5t2.5 -6.5t1 -10v-54q0 -6 -1 -10t-2.5 -6.5t-4.5 -3.5t-4 -1h-5h-4h-50v-357
q0 -89 31 -118q25 -23 75 -23q36 0 59 12.5t32.5 36.5t12 43t2.5 49v357h-50h-4h-5t-4 1t-4.5 3.5t-2.5 6.5t-1 10v54q0 6 1 10t2.5 6.5t4.5 3.5t4 1h5h4h236h4h5t4 -1t4.5 -3.5t2.5 -6.5t1 -10v-54q0 -6 -1 -10t-2.5 -6.5t-4.5 -3.5t-4 -1h-5h-4h-51zM408 887l67 -7
q11 -1 11 -15q0 -1 -0.5 -4t-0.5 -4q-19 -105 -143 -105t-143 105q0 1 -0.5 4t-0.5 4q0 14 11 15l67 7h7q6 -1 8 -11l2 -8q10 -36 50 -36q17 0 31 10.5t18 28.5l1 5q2 10 7 11h8z" />
    <glyph glyph-name="ubreve" unicode="&#x16d;" horiz-adv-x="586" 
d="M554 79v-65v-2q0 -4 -0.5 -6t-3.5 -4t-10 -2h-133q-20 0 -29 35l-3 12l-12 -11q-24 -21 -38 -29q-43 -24 -99 -24q-81 0 -113 54q-21 35 -21 104v260h-51h-6t-5 3.5t-3 10.5v65q0 14 14 14h164q10 0 12 -3t2 -9v-2v-308q0 -43 9 -61q13 -28 49 -28q43 0 84 41v277h-51h-6
t-5 3.5t-3 10.5v65q0 14 14 14h164q10 0 12 -3t2 -9v-2v-302q0 -60 10 -85h42h2q4 0 6 -0.5t4 -3.5t2 -10zM358 722l64 -8q11 -2 11 -13v-5q-2 -30 -18 -54q-39 -62 -122 -62t-122 62q-16 24 -18 54v5q0 11 11 13l64 8q2 0 4 0.5t4 0.5q5 0 7 -11l2 -9q4 -20 18 -30.5
t30 -10.5q39 0 48 43l2 8q1 4 2 6.5t2.5 3t2.5 0.5t4 -0.5t4 -0.5z" />
    <glyph glyph-name="Uring" unicode="&#x16e;" horiz-adv-x="685" 
d="M584 589v-357q0 -142 -75 -204q-56 -45 -166 -45t-166 45q-75 61 -75 204v357h-51h-4h-5t-4 1t-4.5 3.5t-2.5 6.5t-1 10v54q0 6 1 10t2.5 6.5t4.5 3.5t4 1h5h4h236h4h5t4 -1t4.5 -3.5t2.5 -6.5t1 -10v-54q0 -6 -1 -10t-2.5 -6.5t-4.5 -3.5t-4 -1h-5h-4h-50v-357
q0 -89 31 -118q25 -23 75 -23q36 0 59 12.5t32.5 36.5t12 43t2.5 49v357h-50h-4h-5t-4 1t-4.5 3.5t-2.5 6.5t-1 10v54q0 6 1 10t2.5 6.5t4.5 3.5t4 1h5h4h236h4h5t4 -1t4.5 -3.5t2.5 -6.5t1 -10v-54q0 -6 -1 -10t-2.5 -6.5t-4.5 -3.5t-4 -1h-5h-4h-51zM450 850
q0 -46 -31 -77t-77 -31t-77 31t-31 77t31 77t77 31t77 -31t31 -77zM342 806q18 0 31 13t13 31t-13 31t-31 13t-31 -13t-13 -31t13 -31t31 -13z" />
    <glyph glyph-name="uring" unicode="&#x16f;" horiz-adv-x="586" 
d="M554 79v-65v-2q0 -4 -0.5 -6t-3.5 -4t-10 -2h-133q-20 0 -29 35l-3 12l-12 -11q-24 -21 -38 -29q-43 -24 -99 -24q-81 0 -113 54q-21 35 -21 104v260h-51h-6t-5 3.5t-3 10.5v65q0 14 14 14h164q10 0 12 -3t2 -9v-2v-308q0 -43 9 -61q13 -28 49 -28q43 0 84 41v277h-51h-6
t-5 3.5t-3 10.5v65q0 14 14 14h164q10 0 12 -3t2 -9v-2v-302q0 -60 10 -85h42h2q4 0 6 -0.5t4 -3.5t2 -10zM398 668q0 -43 -31 -73.5t-74 -30.5t-73.5 30.5t-30.5 73.5t31 74t73 31q43 0 74 -31t31 -74zM293 626q16 0 29.5 11.5t13.5 30.5q0 18 -12.5 30.5t-30.5 12.5
q-16 0 -29 -11.5t-13 -31.5t14 -31t28 -11z" />
    <glyph glyph-name="Uhungarumlaut" unicode="&#x170;" horiz-adv-x="685" 
d="M584 589v-357q0 -142 -75 -204q-56 -45 -166 -45t-166 45q-75 61 -75 204v357h-51h-4h-5t-4 1t-4.5 3.5t-2.5 6.5t-1 10v54q0 6 1 10t2.5 6.5t4.5 3.5t4 1h5h4h236h4h5t4 -1t4.5 -3.5t2.5 -6.5t1 -10v-54q0 -6 -1 -10t-2.5 -6.5t-4.5 -3.5t-4 -1h-5h-4h-50v-357
q0 -89 31 -118q25 -23 75 -23q36 0 59 12.5t32.5 36.5t12 43t2.5 49v357h-50h-4h-5t-4 1t-4.5 3.5t-2.5 6.5t-1 10v54q0 6 1 10t2.5 6.5t4.5 3.5t4 1h5h4h236h4h5t4 -1t4.5 -3.5t2.5 -6.5t1 -10v-54q0 -6 -1 -10t-2.5 -6.5t-4.5 -3.5t-4 -1h-5h-4h-51zM166 787l126 132
q6 6 10 6q5 0 11 -6l44 -44q6 -6 6 -10q0 -8 -8 -14l-144 -109q-5 -5 -12 -5q-4 0 -9 5l-24 25q-5 5 -5 10t5 10zM339 787l126 132q6 6 10 6q5 0 11 -6l44 -44q6 -6 6 -10q0 -8 -8 -14l-144 -109q-5 -5 -12 -5q-4 0 -9 5l-24 25q-5 5 -5 10t5 10z" />
    <glyph glyph-name="uhungarumlaut" unicode="&#x171;" horiz-adv-x="586" 
d="M554 79v-65v-2q0 -4 -0.5 -6t-3.5 -4t-10 -2h-133q-20 0 -29 35l-3 12l-12 -11q-24 -21 -38 -29q-43 -24 -99 -24q-81 0 -113 54q-21 35 -21 104v260h-51h-6t-5 3.5t-3 10.5v65q0 14 14 14h164q10 0 12 -3t2 -9v-2v-308q0 -43 9 -61q13 -28 49 -28q43 0 84 41v277h-51h-6
t-5 3.5t-3 10.5v65q0 14 14 14h164q10 0 12 -3t2 -9v-2v-302q0 -60 10 -85h42h2q4 0 6 -0.5t4 -3.5t2 -10zM369 677l-115 -104q-13 -9 -14 -9q-6 0 -15 9l-15 13q-10 8 -10 15q0 4 8 14l95 123q7 10 14 10q6 0 14 -8l38 -34q10 -9 10 -14t-10 -15zM524 677l-115 -104
q-13 -9 -14 -9q-6 0 -15 9l-15 13q-10 8 -10 15q0 4 8 14l95 123q8 10 14 10t14 -8l38 -34q10 -9 10 -14t-10 -15z" />
    <glyph glyph-name="Uogonek" unicode="&#x172;" horiz-adv-x="685" 
d="M584 589v-357q0 -109 -42 -168q-29 -41 -75 -60q-21 -20 -39.5 -46.5t-18.5 -44.5q0 -24 29 -24q23 0 45 13q10 5 12 5q4 0 7 -8l15 -50q3 -11 -9 -18q-40 -22 -86 -22t-73.5 23.5t-27.5 63.5q0 34 16 57q11 19 29 33q-21 -3 -41 -3q-91 0 -148 45q-75 60 -75 204v357
h-51h-4h-5t-4 1t-4.5 3.5t-2.5 6.5t-1 10v54q0 6 1 10t2.5 6.5t4.5 3.5t4 1h5h4h236h4h5t4 -1t4.5 -3.5t2.5 -6.5t1 -10v-54q0 -6 -1 -10t-2.5 -6.5t-4.5 -3.5t-4 -1h-5h-4h-50v-357q0 -69 16 -98q24 -43 90 -43q67 0 91 46q15 30 15 95v357h-50h-4h-5t-4 1t-4.5 3.5
t-2.5 6.5t-1 10v54q0 6 1 10t2.5 6.5t4.5 3.5t4 1h5h4h236h4h5t4 -1t4.5 -3.5t2.5 -6.5t1 -10v-54q0 -6 -1 -10t-2.5 -6.5t-4.5 -3.5t-4 -1h-5h-4h-51z" />
    <glyph glyph-name="uogonek" unicode="&#x173;" horiz-adv-x="586" 
d="M488 480v-303q0 -44 9 -80l1 -4h43q14 0 14 -14v-65q0 -8 -5 -13l-5 -5q-62 -62 -62 -94q0 -23 28 -23q21 0 43 14q8 5 10 5q4 0 7 -6l14 -45q1 -3 1.5 -5.5t1 -3.5t0.5 -2q0 -6 -11 -12q-40 -20 -79 -20q-46 0 -73 24q-26 23 -26 59t19 65q15 24 46 48h-57q-20 0 -29 35
l-3 12l-12 -11q-57 -53 -132 -53q-66 0 -102 36q-24 24 -30.5 51.5t-6.5 70.5v260h-51h-6t-5 3.5t-3 10.5v65q0 14 14 14h164q10 0 12 -3t2 -9v-2v-308q0 -42 7 -58q13 -31 49 -31q20 0 45.5 13t40.5 28v277h-51h-6t-5 3.5t-3 10.5v65q0 14 14 14h164q10 0 12 -3t2 -9v-2z
" />
    <glyph glyph-name="Ydieresis" unicode="&#x178;" horiz-adv-x="547" 
d="M430 75v-54q0 -6 -1 -10t-2.5 -6.5t-4.5 -3.5t-4 -1h-5h-4h-271h-4h-5t-4 1t-4.5 3.5t-2.5 6.5t-1 10v54q0 6 1 10t2.5 6.5t4.5 3.5t4 1h5h4h68v185l-159 308h-26h-3.5h-3.5t-3 0.5t-3 1.5t-2 3t-1.5 5t-0.5 7v62v3.5v3.5t0.5 3t1.5 3t3 2t5 1.5t7 0.5h114q15 0 22 -13
l78 -162q26 -51 41 -114h2l5 17q22 74 34 97l78 162l3.5 7t3 4t3.5 1.5t3 0.5h4h5h109h3.5h3.5t3 -0.5t3 -1.5t2 -3t1.5 -5t0.5 -7v-62q0 -8 -2 -12t-4.5 -4.5t-7.5 -0.5h-3h-32l-153 -308v-185h68h4h5t4 -1t4.5 -3.5t2.5 -6.5t1 -10zM121 819q0 29 21.5 50.5t50.5 21.5
t50.5 -21.5t21.5 -50.5t-21.5 -50.5t-50.5 -21.5t-50.5 21.5t-21.5 50.5zM305 819q0 29 21.5 50.5t50.5 21.5t50.5 -21.5t21.5 -50.5t-21.5 -50.5t-50.5 -21.5t-50.5 21.5t-21.5 50.5z" />
    <glyph glyph-name="Zacute" unicode="&#x179;" horiz-adv-x="519" 
d="M187 108h179l18 80q3 14 10 15.5t13 -2.5l73 -16q17 -3 12 -24l-32 -143q-2 -10 -6 -14t-5 -4h-11h-377q-8 0 -12 2t-4.5 4.5t-0.5 7.5v3v83l279 477h-161v-80q0 -8 -3 -12t-5.5 -4.5t-6.5 -0.5h-2h-74q-8 0 -12 2t-4.5 4.5t-0.5 7.5v3v171q0 8 2 12t4.5 4.5t7.5 0.5h3
h370q11 0 16 -4t5 -6v-10v-90zM214 814l182 86q9 4 12 4q6 0 11 -11l31 -75q1 -3 1 -9q0 -2 -1.5 -4t-3 -2.5l-4.5 -1.5l-2 -1l-198 -57q-8 -2 -9 -2q-5 0 -10 10l-19 43q-2 4 -2 6q0 8 12 14z" />
    <glyph glyph-name="zacute" unicode="&#x17a;" horiz-adv-x="462" 
d="M328 105l22 53q2 8 7 8q7 0 14 -3l62 -27q9 -4 9 -11q0 -1 -3 -10l-43 -102q-4 -13 -19 -13h-327q-10 0 -10 10v75l231 304h-110v-40q0 -13 -7 -13h-86q-7 0 -7 13v131q0 14 14 14h317q6 0 11.5 -3.5t5.5 -6.5v-78l-226 -301h145zM369 638l-178 -71q-6 -3 -12 -3t-13 14
l-17 34q-4 8 -4 12q0 6 13 14l166 98q6 4 11 4q6 0 13 -12l33 -65q4 -6 4 -12q0 -8 -16 -13z" />
    <glyph glyph-name="Zdotaccent" unicode="&#x17b;" horiz-adv-x="519" 
d="M187 108h179l18 80q3 14 10 15.5t13 -2.5l73 -16q17 -3 12 -24l-32 -143q-2 -10 -6 -14t-5 -4h-11h-377q-8 0 -12 2t-4.5 4.5t-0.5 7.5v3v83l279 477h-161v-80q0 -8 -3 -12t-5.5 -4.5t-6.5 -0.5h-2h-74q-8 0 -12 2t-4.5 4.5t-0.5 7.5v3v171q0 8 2 12t4.5 4.5t7.5 0.5h3
h370q11 0 16 -4t5 -6v-10v-90zM179 820q0 33 23.5 56.5t56.5 23.5t56.5 -23.5t23.5 -56.5t-23.5 -56.5t-56.5 -23.5t-56.5 23.5t-23.5 56.5z" />
    <glyph glyph-name="zdotaccent" unicode="&#x17c;" horiz-adv-x="462" 
d="M328 105l22 53q2 8 7 8q7 0 14 -3l62 -27q9 -4 9 -11q0 -1 -3 -10l-43 -102q-4 -13 -19 -13h-327q-10 0 -10 10v75l231 304h-110v-40q0 -13 -7 -13h-86q-7 0 -7 13v131q0 14 14 14h317q6 0 11.5 -3.5t5.5 -6.5v-78l-226 -301h145zM309 651q0 -31 -23 -54t-55 -23
q-31 0 -54 22.5t-23 54.5t23 55t54 23q32 0 55 -23.5t23 -54.5z" />
    <glyph glyph-name="Zcaron" unicode="&#x17d;" horiz-adv-x="519" 
d="M187 108h179l18 80q3 14 10 15.5t13 -2.5l73 -16q17 -3 12 -24l-32 -143q-2 -10 -6 -14t-5 -4h-11h-377q-8 0 -12 2t-4.5 4.5t-0.5 7.5v3v83l279 477h-161v-80q0 -8 -3 -12t-5.5 -4.5t-6.5 -0.5h-2h-74q-8 0 -12 2t-4.5 4.5t-0.5 7.5v3v171q0 8 2 12t4.5 4.5t7.5 0.5h3
h370q11 0 16 -4t5 -6v-10v-90zM259 850l104 47q4 2 6 2q7 0 10 -7l27 -45q2 -4 2 -7q0 -6 -9 -11l-126 -87q-5 -5 -14 -5t-14 5l-126 87q-9 5 -9 11q0 3 2 7l27 45q3 7 10 7q2 0 6 -2z" />
    <glyph glyph-name="zcaron" unicode="&#x17e;" horiz-adv-x="462" 
d="M328 105l22 53q2 8 7 8q7 0 14 -3l62 -27q9 -4 9 -11q0 -1 -3 -10l-43 -102q-4 -13 -19 -13h-327q-10 0 -10 10v75l231 304h-110v-40q0 -13 -7 -13h-86q-7 0 -7 13v131q0 14 14 14h317q6 0 11.5 -3.5t5.5 -6.5v-78l-226 -301h145zM345 721l19 -32q6 -8 6 -14q0 -5 -9 -12
l-118 -93q-6 -6 -12 -6t-12 6l-118 93q-9 7 -9 12q0 2 6 14l19 32q7 13 14 13q4 0 14 -6l86 -49l86 49q8 6 14 6q7 0 14 -13z" />
    <glyph glyph-name="Schwa" unicode="&#x18f;" horiz-adv-x="553" 
d="M70 405h293q0 70 -17 115q-27 74 -103 74q-50 0 -97 -36q-14 -11 -21 -11q-5 0 -11 10l-37 56q-5 10 -5 13q0 9 19 26q30 25 75.5 37.5t84.5 12.5q35 0 67.5 -8.5t67.5 -33t60.5 -63.5t42 -106.5t16.5 -155.5q0 -83 -13.5 -146.5t-35.5 -101.5t-52.5 -62.5t-61 -33
t-65.5 -8.5q-55 0 -95.5 18t-66 48.5t-40.5 79t-20.5 102.5t-5.5 126v26q0 14 5.5 18t15.5 4zM363 295h-172q-3 -204 84 -204q22 0 43.5 17.5t33.5 58.5q11 42 11 128z" />
    <glyph glyph-name="florin" unicode="&#x192;" horiz-adv-x="556" 
d="M327 401l-81 -411q-17 -90 -56 -134q-51 -58 -143 -58q-39 0 -66 6q-15 3 -15 11q0 1 0.5 2t1 3.5t1.5 5.5l19 68q2 8 11 8q3 0 15 -2q14 -2 25 -2q42 0 59.5 24.5t28.5 79.5l80 399h-61q-11 0 -15.5 3t-4.5 8t1 12l9 51q4 19 22 19h69l14 65q19 88 56 121q42 37 120 37
q44 0 76 -11q23 -8 23 -17q0 -3 -2 -9l-22 -65q-3 -10 -9 -10l-9 3q-25 13 -48 13q-30 0 -47 -20q-15 -17 -22 -54l-10 -53h103q16 0 19.5 -7t-1.5 -17l-16 -52q-6 -17 -22 -17h-103z" />
    <glyph glyph-name="Icaron" unicode="&#x1cf;" horiz-adv-x="370" 
d="M324 75v-54q0 -6 -1 -10t-2.5 -6.5t-4.5 -3.5t-4 -1h-5h-4h-237h-4h-5t-4 1t-4.5 3.5t-2.5 6.5t-1 10v54q0 6 1 10t2.5 6.5t4.5 3.5t4 1h5h4h51v493h-51h-4h-5t-4 1t-4.5 3.5t-2.5 6.5t-1 10v54q0 6 1 10t2.5 6.5t4.5 3.5t4 1h5h4h237h4h5t4 -1t4.5 -3.5t2.5 -6.5t1 -10
v-54q0 -6 -1 -10t-2.5 -6.5t-4.5 -3.5t-4 -1h-5h-4h-51v-493h51h4h5t4 -1t4.5 -3.5t2.5 -6.5t1 -10zM185 850l104 47q4 2 6 2q7 0 10 -7l27 -45q2 -4 2 -7q0 -6 -9 -11l-126 -87q-5 -5 -14 -5t-14 5l-126 87q-9 5 -9 11q0 3 2 7l27 45q3 7 10 7q2 0 6 -2z" />
    <glyph glyph-name="icaron" unicode="&#x1d0;" horiz-adv-x="333" 
d="M313 79v-65v-2q0 -4 -0.5 -6t-3.5 -4t-10 -2h-255h-6t-5 3.5t-3 10.5v65q0 14 14 14h64v308h-65h-6t-5 3.5t-3 10.5v65q0 14 14 14h178q10 0 12 -3t2 -9v-2v-387h64q10 0 12 -3t2 -9v-2zM281 721l19 -32q6 -8 6 -14q0 -5 -9 -12l-118 -93q-6 -6 -12 -6t-12 6l-118 93
q-9 7 -9 12q0 2 6 14l19 32q7 13 14 13q4 0 14 -6l86 -49l86 49q8 6 14 6q7 0 14 -13z" />
    <glyph glyph-name="eturn" unicode="&#x1dd;" 
d="M66 281h269q0 125 -110 125q-49 0 -111 -28q-12 -5 -16 -5q-8 0 -11 8l-25 59q-3 9 -3 11q0 9 16 20q62 40 160 40q105 0 162 -58q65 -67 65 -193q0 -132 -66 -208q-60 -69 -153 -69q-27 0 -51 5t-52.5 22t-49 45t-34 78t-13.5 116q0 20 4 26t19 6zM335 188h-157v-10
q0 -24 4 -41q6 -27 22 -43q20 -18 48 -18q35 0 57 27q21 27 26 85z" />
    <glyph glyph-name="Scommaaccent" unicode="&#x218;" 
d="M339 501v80l-8 3q-26 10 -59 10q-50 0 -72 -22.5t-22 -55.5q0 -9 1.5 -17t6 -15t7.5 -12t11.5 -11.5t12 -9.5t15.5 -9.5t16 -8.5t18.5 -8.5t18.5 -8.5q68 -32 98 -55q86 -63 86 -167q0 -90 -57 -149q-60 -62 -165 -62q-54 0 -127 18t-73 50v151q0 14 8 16q4 1 9 1h74
q8 0 12 -2t4.5 -4.5t0.5 -7.5v-3v-91l12 -5q35 -15 82 -15q90 0 90 92q0 41 -25 64t-91 52q-105 48 -136 82q-39 42 -39 117q0 95 58.5 149.5t161.5 54.5q69 0 124 -20.5t55 -45.5v-135q0 -8 -3 -12t-5.5 -4.5t-6.5 -0.5h-2h-74q-8 0 -12 2t-4.5 4.5t-0.5 7.5v3zM238 -37h80
q15 0 15 -10q0 -3 -4 -11l-98 -182q-5 -10 -12 -10q-2 0 -8 2l-32 11q-12 5 -12 11q0 2 2 8l51 167q5 12 12 13q2 1 6 1z" />
    <glyph glyph-name="scommaaccent" unicode="&#x219;" horiz-adv-x="426" 
d="M267 362v49q-22 4 -40 4q-21 0 -35 -6t-19.5 -15t-7.5 -15.5t-2 -13.5q0 -29 35 -45q4 -2 66 -25q65 -23 96 -61q31 -39 31 -90q0 -69 -45 -114q-47 -47 -127 -47q-46 0 -111 16.5t-65 41.5v109q0 7 3 10.5t5 3.5h6h68q14 0 14 -15v-3v-49q44 -14 71 -14q35 0 48 15.5
t13 34.5q0 20 -10 30.5t-29 18.5q-5 2 -72 27q-53 21 -79 48q-33 36 -33 90q0 68 47 115q49 49 140 49q37 0 82.5 -12t45.5 -34v-103q0 -10 -2.5 -12t-8.5 -2h-2h-69h-6t-5 3.5t-3 10.5zM194 -37h80q15 0 15 -10q0 -3 -4 -11l-98 -182q-5 -10 -12 -10q-2 0 -8 2l-32 11
q-12 5 -12 11q0 2 2 8l51 167q5 12 12 13q2 1 6 1z" />
    <glyph glyph-name="Tcommaaccent" unicode="&#x21a;" horiz-adv-x="519" 
d="M414 75v-54q0 -6 -1 -10t-2.5 -6.5t-4.5 -3.5t-4 -1h-5h-4h-267h-4h-5t-4 1t-4.5 3.5t-2.5 6.5t-1 10v54q0 6 1 10t2.5 6.5t4.5 3.5t4 1h5h4h66v481h-73v-96q0 -8 -3 -12t-5.5 -4.5t-6.5 -0.5h-2h-59q-8 0 -12 2t-4.5 4.5t-0.5 7.5v3v187v3.5v3.5t0.5 3t1.5 3t3 2t5 1.5
t7 0.5h433q14 0 16 -8q1 -4 1 -9v-187q0 -8 -3 -12t-5.5 -4.5t-6.5 -0.5h-2h-59q-8 0 -12 2t-4.5 4.5t-0.5 7.5v3v96h-73v-481h66h4h5t4 -1t4.5 -3.5t2.5 -6.5t1 -10zM233 -37h80q15 0 15 -10q0 -3 -4 -11l-98 -182q-5 -10 -12 -10q-2 0 -8 2l-32 11q-12 5 -12 11q0 2 2 8
l51 167q5 12 12 13q2 1 6 1z" />
    <glyph glyph-name="tcommaaccent" unicode="&#x21b;" horiz-adv-x="370" 
d="M338 111l20 -82q2 -6 2 -8q0 -10 -18 -17q-52 -21 -116 -21q-40 0 -69.5 11t-48.5 46q-18 34 -18 136v225h-71h-6t-5 3.5t-3 10.5v65q0 7 3 10.5t5 3.5h6h71v126q0 14 9 16q3 2 7 2l88 12q11 3 17 1t6 -17v-140h114q18 0 18 -10q0 -2 -2 -10l-14 -59q-4 -14 -19 -14h-97
v-242q0 -34 7 -46q9 -15 33 -15q17 0 53 13q14 6 20 6t8 -6zM173 -37h80q15 0 15 -10q0 -3 -4 -11l-98 -182q-5 -10 -12 -10q-2 0 -8 2l-32 11q-12 5 -12 11q0 2 2 8l51 167q5 12 12 13q2 1 6 1z" />
    <glyph glyph-name="schwa" unicode="&#x259;" 
d="M66 281h269q0 125 -110 125q-49 0 -111 -28q-12 -5 -16 -5q-8 0 -11 8l-25 59q-3 9 -3 11q0 9 16 20q62 40 160 40q105 0 162 -58q65 -67 65 -193q0 -132 -66 -208q-60 -69 -153 -69q-27 0 -51 5t-52.5 22t-49 45t-34 78t-13.5 116q0 20 4 26t19 6zM335 188h-157v-10
q0 -24 4 -41q6 -27 22 -43q20 -18 48 -18q35 0 57 27q21 27 26 85z" />
    <glyph glyph-name="afii57929" unicode="&#x2bc;" horiz-adv-x="184" 
d="M82 717h80q15 0 15 -10q0 -3 -4 -11l-98 -182q-5 -10 -12 -10q-2 0 -8 2l-32 11q-12 5 -12 11q0 2 2 8l51 167q5 12 12 13q2 1 6 1z" />
    <glyph glyph-name="circumflex" unicode="&#x2c6;" horiz-adv-x="335" 
d="M301 609l-19 -32q-7 -13 -14 -13q-6 0 -14 6l-86 49l-86 -49q-10 -6 -14 -6q-7 0 -14 13l-19 32q-6 12 -6 14q0 5 9 12l118 93q6 6 12 6t12 -6l118 -93q9 -7 9 -12q0 -6 -6 -14z" />
    <glyph glyph-name="caron" unicode="&#x2c7;" horiz-adv-x="335" 
d="M282 721l19 -32q6 -8 6 -14q0 -5 -9 -12l-118 -93q-6 -6 -12 -6t-12 6l-118 93q-9 7 -9 12q0 2 6 14l19 32q7 13 14 13q4 0 14 -6l86 -49l86 49q8 6 14 6q7 0 14 -13z" />
    <glyph glyph-name="breve" unicode="&#x2d8;" horiz-adv-x="334" 
d="M232 722l64 -8q11 -2 11 -13v-5q-2 -30 -18 -54q-39 -62 -122 -62t-122 62q-16 24 -18 54v5q0 11 11 13l64 8q2 0 4 0.5t4 0.5q5 0 7 -11l2 -9q4 -20 18 -30.5t30 -10.5q39 0 48 43l2 8q1 4 2 6.5t2.5 3t2.5 0.5t4 -0.5t4 -0.5z" />
    <glyph glyph-name="dotaccent" unicode="&#x2d9;" horiz-adv-x="335" 
d="M246 651q0 -31 -23 -54t-55 -23q-31 0 -54 22.5t-23 54.5t23 55t54 23q32 0 55 -23.5t23 -54.5z" />
    <glyph glyph-name="ring" unicode="&#x2da;" horiz-adv-x="335" 
d="M273 668q0 -43 -31 -73.5t-74 -30.5t-73.5 30.5t-30.5 73.5t31 74t73 31q43 0 74 -31t31 -74zM168 626q16 0 29.5 11.5t13.5 30.5q0 18 -12.5 30.5t-30.5 12.5q-16 0 -29 -11.5t-13 -31.5t14 -31t28 -11z" />
    <glyph glyph-name="ogonek" unicode="&#x2db;" horiz-adv-x="338" 
d="M281 -108l14 -45q1 -3 1.5 -5.5t1 -3.5t0.5 -2q0 -6 -11 -12q-40 -20 -79 -20q-45 0 -72 23.5t-27 59.5q0 62 89 113h78q-83 -65 -83 -97q0 -24 27 -24q20 0 44 14q8 5 10 5q4 0 7 -6z" />
    <glyph glyph-name="tilde" unicode="&#x2dc;" horiz-adv-x="335" 
d="M67 590l-47 24q-7 2 -7 8q0 7 18 39q35 55 87 55q27 0 63 -21q24 -14 37 -14q16 0 30 22l5 8q6 8 15 4l47 -24q7 -4 7 -9q0 -7 -22 -44q-35 -50 -82 -50q-29 0 -62 21q-23 14 -35 14q-21 0 -36 -26l-3 -5q-2 -5 -6 -5z" />
    <glyph glyph-name="hungarumlaut" unicode="&#x2dd;" horiz-adv-x="482" 
d="M243 677l-115 -104q-13 -9 -14 -9q-6 0 -15 9l-15 13q-10 8 -10 15q0 4 8 14l95 123q7 10 14 10q6 0 14 -8l38 -34q10 -9 10 -14t-10 -15zM398 677l-115 -104q-13 -9 -14 -9q-6 0 -15 9l-15 13q-10 8 -10 15q0 4 8 14l95 123q8 10 14 10t14 -8l38 -34q10 -9 10 -14
t-10 -15z" />
    <glyph glyph-name="accent" unicode="&#x301;" horiz-adv-x="2" 
d="M-161 638l-178 -71q-6 -3 -12 -3t-13 14l-17 34q-4 8 -4 12q0 6 13 14l166 98q6 4 11 4q6 0 13 -12l33 -65q4 -6 4 -12q0 -8 -16 -13z" />
    <glyph glyph-name="accent" unicode="&#xf400;" horiz-adv-x="2" 
d="M-161 638l-178 -71q-6 -3 -12 -3t-13 14l-17 34q-4 8 -4 12q0 6 13 14l166 98q6 4 11 4q6 0 13 -12l33 -65q4 -6 4 -12q0 -8 -16 -13z" />
    <glyph glyph-name="uni0313" unicode="&#x313;" horiz-adv-x="184" 
d="M82 717h80q15 0 15 -10q0 -3 -4 -11l-98 -182q-5 -10 -12 -10q-2 0 -8 2l-32 11q-12 5 -12 11q0 2 2 8l51 167q5 12 12 13q2 1 6 1z" />
    <glyph glyph-name="uni0315" unicode="&#x315;" horiz-adv-x="184" 
d="M82 717h80q15 0 15 -10q0 -3 -4 -11l-98 -182q-5 -10 -12 -10q-2 0 -8 2l-32 11q-12 5 -12 11q0 2 2 8l51 167q5 12 12 13q2 1 6 1z" />
    <glyph glyph-name="uni0326" unicode="&#x326;" 
d="M238 -37h80q15 0 15 -10q0 -3 -4 -11l-98 -182q-5 -10 -12 -10q-2 0 -8 2l-32 11q-12 5 -12 11q0 2 2 8l51 167q5 12 12 13q2 1 6 1z" />
    <glyph glyph-name="anoteleia" unicode="&#x387;" horiz-adv-x="250" 
d="M202 256q0 -32 -22.5 -54t-53.5 -22q-35 0 -56 24t-21 52q0 31 23 54t54 23t53.5 -22.5t22.5 -54.5z" />
    <glyph glyph-name="Delta" unicode="&#x394;" horiz-adv-x="537" 
d="M209 685h115q10 0 15 -16l173 -569v-83v-3.5v-3.5t-0.5 -3t-1.5 -3t-3 -2t-5 -1.5t-7 -0.5h-460q-8 0 -12 2t-4.5 4.5t-0.5 7.5v3v83l174 570q2 6 3 8t4.5 4.5t9.5 2.5zM367 108l-107 416l-108 -416h215z" />
    <glyph glyph-name="Delta" unicode="&#x2206;" horiz-adv-x="537" 
d="M209 685h115q10 0 15 -16l173 -569v-83v-3.5v-3.5t-0.5 -3t-1.5 -3t-3 -2t-5 -1.5t-7 -0.5h-460q-8 0 -12 2t-4.5 4.5t-0.5 7.5v3v83l174 570q2 6 3 8t4.5 4.5t9.5 2.5zM367 108l-107 416l-108 -416h215z" />
    <glyph glyph-name="Omega" unicode="&#x3a9;" horiz-adv-x="645" 
d="M344 20v161q0 6 3 9.5t5.5 4.5t8.5 2q8 2 19 7t29 22.5t27 42.5q16 45 16 113q0 109 -35 160q-36 52 -102 52t-102 -52q-35 -51 -35 -160q0 -68 16 -113q9 -25 27 -42.5t29 -22.5t19 -7q1 0 3 -0.5l4 -1t3 -1.5q7 -4 7 -13v-161q0 -20 -20 -20h-204q-14 0 -17 4t-5 14
l-28 123q-5 20 10 24h2l64 16q14 3 18 -2q3 -4 5 -11l14 -60h44v64q-133 43 -133 230q0 163 94 242q70 58 185 58t185 -58q94 -78 94 -241q0 -188 -133 -231v-64h44l14 60q3 13 10 14.5t13 -1.5l64 -16q12 -3 13 -10q1 -5 -1 -14l-28 -123q-2 -10 -6 -14t-5 -4h-11h-204
q-20 0 -20 20z" />
    <glyph glyph-name="Omega" unicode="&#x2126;" horiz-adv-x="645" 
d="M344 20v161q0 6 3 9.5t5.5 4.5t8.5 2q8 2 19 7t29 22.5t27 42.5q16 45 16 113q0 109 -35 160q-36 52 -102 52t-102 -52q-35 -51 -35 -160q0 -68 16 -113q9 -25 27 -42.5t29 -22.5t19 -7q1 0 3 -0.5l4 -1t3 -1.5q7 -4 7 -13v-161q0 -20 -20 -20h-204q-14 0 -17 4t-5 14
l-28 123q-5 20 10 24h2l64 16q14 3 18 -2q3 -4 5 -11l14 -60h44v64q-133 43 -133 230q0 163 94 242q70 58 185 58t185 -58q94 -78 94 -241q0 -188 -133 -231v-64h44l14 60q3 13 10 14.5t13 -1.5l64 -16q12 -3 13 -10q1 -5 -1 -14l-28 -123q-2 -10 -6 -14t-5 -4h-11h-204
q-20 0 -20 20z" />
    <glyph glyph-name="pi" unicode="&#x3c0;" horiz-adv-x="629" 
d="M134 93v308h-9q-31 0 -52 -13.5t-26 -13.5q-4 0 -8 6l-39 50q-17 22 42 43t107 21h426q10 0 12 -3t2 -9v-2v-65v-2q0 -4 -0.5 -6t-3.5 -4t-10 -2h-51v-308h51q10 0 12 -3t2 -9v-2v-65v-2q0 -4 -0.5 -6t-3.5 -4t-10 -2h-164h-6t-5 3.5t-3 10.5v377h-136v-298h39
q10 0 12 -3t2 -9v-2v-65v-2q0 -4 -0.5 -6t-3.5 -4t-10 -2h-217h-6t-5 3.5t-3 10.5v65q0 14 14 14h51z" />
    <glyph glyph-name="afii10023" unicode="&#x401;" horiz-adv-x="537" 
d="M481 178v-157q0 -11 -4 -16t-6 -5h-10h-401h-4h-5t-4 1t-4.5 3.5t-2.5 6.5t-1 10v54q0 6 1 10t2.5 6.5t4.5 3.5t4 1h5h4h51v493h-51h-4h-5t-4 1t-4.5 3.5t-2.5 6.5t-1 10v54q0 6 1 10t2.5 6.5t4.5 3.5t4 1h5h4h400q17 0 19 -7q2 -4 2 -10v-152q0 -11 -3.5 -15.5t-6.5 -5
t-11 -0.5h-66h-4h-5t-4 1t-4.5 3.5t-2.5 6.5t-1 10v61h-127v-165h170h4h4.5t3.5 -0.5t4 -2t2.5 -4t2 -6t0.5 -8.5v-66q0 -6 -1 -10t-2.5 -6.5t-4.5 -3.5t-4 -1h-5h-4h-170v-196h127v70v5v5t0.5 4t2 3t4 1.5t6 2t8.5 0.5h66h4h4.5t3.5 -0.5t4 -2t2.5 -4t2 -6t0.5 -8.5z
M250 788q0 -28 -20 -48.5t-49 -20.5t-49 20.5t-20 48.5t20 48.5t49 20.5t49 -20.5t20 -48.5zM427 788q0 -28 -20.5 -48.5t-48.5 -20.5t-48.5 20.5t-20.5 48.5t20.5 48.5t48.5 20.5t48.5 -21t20.5 -48z" />
    <glyph glyph-name="afii10051" unicode="&#x402;" horiz-adv-x="671" 
d="M322 577v-191q63 27 123 27q89 0 138 -49q48 -49 48 -164q0 -103 -37 -155q-43 -62 -133 -62q-47 0 -82 15q-14 7 -10 21l16 74q2 6 9 6q1 0 19 -6q13 -5 28 -5q35 0 47 33q7 16 7 79q0 57 -18 79q-21 26 -66 26q-47 0 -89 -24v-260q0 -6 -1 -10t-2.5 -6.5t-4.5 -3.5
t-4 -1h-5h-4h-180h-4h-5t-4 1t-4.5 3.5t-2.5 6.5t-1 10v54q0 6 1 10t2.5 6.5t4.5 3.5t4 1h5h4h66v481h-68v-96q0 -8 -3 -12t-5.5 -4.5t-6.5 -0.5h-2h-59q-8 0 -12 2t-4.5 4.5t-0.5 7.5v3v187v3.5v3.5t0.5 3t1.5 3t3 2t5 1.5t7 0.5h433q14 0 16 -8q1 -4 1 -9v-187
q0 -8 -3 -12t-5.5 -4.5t-6.5 -0.5h-2h-59q-8 0 -12 2t-4.5 4.5t-0.5 7.5v3v96h-78z" />
    <glyph glyph-name="afii10052" unicode="&#x403;" 
d="M112 589h-51h-4h-5t-4 1t-4.5 3.5t-2.5 6.5t-1 10v54q0 6 1 10t2.5 6.5t4.5 3.5t4 1h5h4h403q14 0 16 -8q1 -4 1 -9v-187q0 -8 -3 -12t-5.5 -4.5t-6.5 -0.5h-2h-59q-8 0 -12 2t-4.5 4.5t-0.5 7.5v3v96h-141v-481h66h4h5t4 -1t4.5 -3.5t2.5 -6.5t1 -10v-54q0 -6 -1 -10
t-2.5 -6.5t-4.5 -3.5t-4 -1h-5h-4h-252h-4h-5t-4 1t-4.5 3.5t-2.5 6.5t-1 10v54q0 6 1 10t2.5 6.5t4.5 3.5t4 1h5h4h51v493zM246 814l182 86q9 4 12 4q6 0 11 -11l31 -75q1 -3 1 -9q0 -2 -1.5 -4t-3 -2.5l-4.5 -1.5l-2 -1l-198 -57q-8 -2 -9 -2q-5 0 -10 10l-19 43
q-2 4 -2 6q0 8 12 14z" />
    <glyph glyph-name="afii10053" unicode="&#x404;" horiz-adv-x="528" 
d="M488 186v-145q0 -15 -27 -29q-60 -29 -133 -29q-166 0 -238 127q-47 83 -47 217q0 136 33 217q63 158 236 158q55 0 111.5 -19.5t56.5 -46.5v-134q0 -8 -3 -12t-5.5 -4.5t-6.5 -0.5h-2h-74q-8 0 -12 2t-4.5 4.5t-0.5 7.5v3v91q-28 9 -53 9q-57 0 -91 -33
q-50 -50 -50 -163h149h3h5t3.5 -0.5t3.5 -2t2.5 -4t2 -6.5t0.5 -9v-63q0 -11 -4 -16t-6 -5h-10h-149q-1 -50 11 -101.5t38 -78.5q34 -37 98 -37q25 0 55 11v92q0 14 8 16q4 1 9 1h74q8 0 12 -3t4.5 -5.5t0.5 -6.5v-2z" />
    <glyph glyph-name="afii10054" unicode="&#x405;" 
d="M339 501v80l-8 3q-26 10 -59 10q-50 0 -72 -22.5t-22 -55.5q0 -9 1.5 -17t6 -15t7.5 -12t11.5 -11.5t12 -9.5t15.5 -9.5t16 -8.5t18.5 -8.5t18.5 -8.5q68 -32 98 -55q86 -63 86 -167q0 -90 -57 -149q-60 -62 -165 -62q-54 0 -127 18t-73 50v151q0 14 8 16q4 1 9 1h74
q8 0 12 -2t4.5 -4.5t0.5 -7.5v-3v-91l12 -5q35 -15 82 -15q90 0 90 92q0 41 -25 64t-91 52q-105 48 -136 82q-39 42 -39 117q0 95 58.5 149.5t161.5 54.5q69 0 124 -20.5t55 -45.5v-135q0 -8 -3 -12t-5.5 -4.5t-6.5 -0.5h-2h-74q-8 0 -12 2t-4.5 4.5t-0.5 7.5v3z" />
    <glyph glyph-name="afii10055" unicode="&#x406;" horiz-adv-x="370" 
d="M324 75v-54q0 -6 -1 -10t-2.5 -6.5t-4.5 -3.5t-4 -1h-5h-4h-237h-4h-5t-4 1t-4.5 3.5t-2.5 6.5t-1 10v54q0 6 1 10t2.5 6.5t4.5 3.5t4 1h5h4h51v493h-51h-4h-5t-4 1t-4.5 3.5t-2.5 6.5t-1 10v54q0 6 1 10t2.5 6.5t4.5 3.5t4 1h5h4h237h4h5t4 -1t4.5 -3.5t2.5 -6.5t1 -10
v-54q0 -6 -1 -10t-2.5 -6.5t-4.5 -3.5t-4 -1h-5h-4h-51v-493h51h4h5t4 -1t4.5 -3.5t2.5 -6.5t1 -10z" />
    <glyph glyph-name="afii10056" unicode="&#x407;" horiz-adv-x="370" 
d="M324 75v-54q0 -6 -1 -10t-2.5 -6.5t-4.5 -3.5t-4 -1h-5h-4h-237h-4h-5t-4 1t-4.5 3.5t-2.5 6.5t-1 10v54q0 6 1 10t2.5 6.5t4.5 3.5t4 1h5h4h51v493h-51h-4h-5t-4 1t-4.5 3.5t-2.5 6.5t-1 10v54q0 6 1 10t2.5 6.5t4.5 3.5t4 1h5h4h237h4h5t4 -1t4.5 -3.5t2.5 -6.5t1 -10
v-54q0 -6 -1 -10t-2.5 -6.5t-4.5 -3.5t-4 -1h-5h-4h-51v-493h51h4h5t4 -1t4.5 -3.5t2.5 -6.5t1 -10zM21 819q0 29 21.5 50.5t50.5 21.5t50.5 -21.5t21.5 -50.5t-21.5 -50.5t-50.5 -21.5t-50.5 21.5t-21.5 50.5zM205 819q0 29 21.5 50.5t50.5 21.5t50.5 -21.5t21.5 -50.5
t-21.5 -50.5t-50.5 -21.5t-50.5 21.5t-21.5 50.5z" />
    <glyph glyph-name="afii10057" unicode="&#x408;" horiz-adv-x="457" 
d="M387 664v-453q0 -117 -44 -170q-48 -58 -144 -58q-103 0 -150 69q-34 50 -34 119v20q0 11 9 11h99h4.5t4.5 -3.5t3 -10.5v-6v-14q0 -34 13 -53q16 -24 48 -24t46 25q10 18 10 76v397h-137h-4h-5t-4 1t-4.5 3.5t-2.5 6.5t-1 10v54q0 6 1 10t2.5 6.5t4.5 3.5t4 1h5h4h251h4
h5t4 -1t4.5 -3.5t2.5 -6.5t1 -10z" />
    <glyph glyph-name="afii10058" unicode="&#x409;" horiz-adv-x="835" 
d="M375 580h-97l-4 -109q-7 -192 -20.5 -281t-44.5 -131q-19 -27 -48 -43.5t-45.5 -21t-46.5 -9.5l-12 -2q-14 -2 -18 9l-28 88q-6 17 10 20l16 3q68 12 91 76q23 66 27 293l2 117h-51h-4h-5t-4 1t-4.5 3.5t-2.5 6.5t-1 10v54q0 6 1 10t2.5 6.5t4.5 3.5t4 1h5h4h455h4h5
t4 -1t4.5 -3.5t2.5 -6.5t1 -10v-54q0 -6 -1 -10t-2.5 -6.5t-4.5 -3.5t-4 -1h-5h-4h-51v-179h65q114 0 169 -46q64 -52 64 -162q0 -98 -64 -151q-61 -51 -176 -51h-241h-4h-5t-4 1t-4.5 3.5t-2.5 6.5t-1 10v54q0 6 1 10t2.5 6.5t4.5 3.5t4 1h5h4h48v484zM510 105h49
q60 0 89 27q25 24 25 71q0 60 -38 85q-25 17 -72 17h-53v-200z" />
    <glyph glyph-name="afii10059" unicode="&#x40a;" horiz-adv-x="898" 
d="M438 408v181h-48h-4h-5t-4 1t-4.5 3.5t-2.5 6.5t-1 10v54q0 6 1 10t2.5 6.5t4.5 3.5t4 1h5h4h234h4h5t4 -1t4.5 -3.5t2.5 -6.5t1 -10v-54q0 -6 -1 -10t-2.5 -6.5t-4.5 -3.5t-4 -1h-5h-4h-51v-179h65q114 0 169 -46q64 -52 64 -162q0 -98 -64 -151q-61 -51 -176 -51h-241
h-4h-5t-4 1t-4.5 3.5t-2.5 6.5t-1 10v54q0 6 1 10t2.5 6.5t4.5 3.5t4 1h5h4h48v204h-191v-204h48h4h5t4 -1t4.5 -3.5t2.5 -6.5t1 -10v-54q0 -6 -1 -10t-2.5 -6.5t-4.5 -3.5t-4 -1h-5h-4h-234h-4h-5t-4 1t-4.5 3.5t-2.5 6.5t-1 10v54q0 6 1 10t2.5 6.5t4.5 3.5t4 1h5h4h51
v493h-51h-4h-5t-4 1t-4.5 3.5t-2.5 6.5t-1 10v54q0 6 1 10t2.5 6.5t4.5 3.5t4 1h5h4h234h4h5t4 -1t4.5 -3.5t2.5 -6.5t1 -10v-54q0 -6 -1 -10t-2.5 -6.5t-4.5 -3.5t-4 -1h-5h-4h-48v-181h191zM573 105h49q60 0 89 27q25 24 25 71q0 60 -38 85q-25 17 -72 17h-53v-200z" />
    <glyph glyph-name="afii10060" unicode="&#x40b;" horiz-adv-x="744" 
d="M322 283v-187h44h4h5t4 -1t4.5 -3.5t2.5 -6.5t1 -10v-54q0 -6 -1 -10t-2.5 -6.5t-4.5 -3.5t-4 -1h-5h-4h-245h-4h-5t-4 1t-4.5 3.5t-2.5 6.5t-1 10v54q0 6 1 10t2.5 6.5t4.5 3.5t4 1h5h4h66v481h-68v-96q0 -8 -3 -12t-5.5 -4.5t-6.5 -0.5h-2h-59q-8 0 -12 2t-4.5 4.5
t-0.5 7.5v3v187v3.5v3.5t0.5 3t1.5 3t3 2t5 1.5t7 0.5h433q14 0 16 -8q1 -4 1 -9v-187q0 -8 -3 -12t-5.5 -4.5t-6.5 -0.5h-2h-59q-8 0 -12 2t-4.5 4.5t-0.5 7.5v3v96h-78v-189q67 25 118 25q93 0 143 -44q24 -21 35.5 -51t12.5 -48.5t1 -58.5v-115h51h4h5t4 -1t4.5 -3.5
t2.5 -6.5t1 -10v-54q0 -6 -1 -10t-2.5 -6.5t-4.5 -3.5t-4 -1h-5h-4h-230h-4h-5t-4 1t-4.5 3.5t-2.5 6.5t-1 10v54q0 6 1 10t2.5 6.5t4.5 3.5t4 1h5h4h44v131q0 42 -22 60t-62 18q-45 0 -91 -22z" />
    <glyph glyph-name="afii10061" unicode="&#x40c;" horiz-adv-x="602" 
d="M240 302v-206h44h4h5t4 -1t4.5 -3.5t2.5 -6.5t1 -10v-54q0 -6 -1 -10t-2.5 -6.5t-4.5 -3.5t-4 -1h-5h-4h-223h-4h-5t-4 1t-4.5 3.5t-2.5 6.5t-1 10v54q0 6 1 10t2.5 6.5t4.5 3.5t4 1h5h4h44v493h-44h-4h-5t-4 1t-4.5 3.5t-2.5 6.5t-1 10v54q0 5 0.5 8.5t1.5 5.5t2.5 4
t3 2.5t3.5 1t3 0.5h4h3h223h2q6 0 9 -0.5t6.5 -6t3.5 -15.5v-54q0 -6 -1 -10t-2.5 -6.5t-4.5 -3.5t-4 -1h-5h-4h-44v-179h46q38 0 57.5 15.5t27.5 59.5l15 85q4 25 9 41t18 34.5t34 31.5q40 25 85 25q15 0 19 -12l21 -71q5 -18 -10 -21l-25 -6q-19 -5 -28.5 -17t-15.5 -47
l-12 -71q-13 -74 -78 -97v-3q76 -23 92 -106l16 -84q8 -38 13 -47q9 -14 31 -20l26 -6q15 -4 10 -20l-26 -76q-2 -5 -3.5 -7.5t-6.5 -5t-14 -2.5q-66 0 -104 33q-13 12 -21.5 29t-12 30t-8.5 40l-23 120q-3 15 -6 23.5t-10.5 20.5t-22.5 17.5t-37 5.5h-56zM286 814l182 86
q9 4 12 4q6 0 11 -11l31 -75q1 -3 1 -9q0 -2 -1.5 -4t-3 -2.5l-4.5 -1.5l-2 -1l-198 -57q-8 -2 -9 -2q-5 0 -10 10l-19 43q-2 4 -2 6q0 8 12 14z" />
    <glyph glyph-name="afii10062" unicode="&#x40e;" horiz-adv-x="567" 
d="M282 193h-62q-11 0 -15 7q-2 2 -3 6l-144 383h-39h-3.5h-3.5t-3 0.5t-3 1.5t-2 3t-1.5 5t-0.5 7v62v3.5v3.5t0.5 3t1.5 3t3 2t5 1.5t7 0.5h143h4.5h3.5t2.5 -0.5t2.5 -2t2 -4l3 -7.5l77 -237q16 -49 42 -150h5q26 112 36 150l66 237q1 4 2.5 7t2 4.5t2.5 2t2.5 0.5h4h4.5
h124h3.5h3.5t3 -0.5t3 -1.5t2 -3t1.5 -5t0.5 -7v-62v-3.5v-3.5t-0.5 -3t-1.5 -3t-3 -2t-5 -1.5t-7 -0.5h-39l-129 -469q-7 -26 -16 -45t-27 -42.5t-50 -36.5t-76 -13q-77 0 -129 34q-12 8 -7 20l31 75q3 7 10 7q5 0 16 -7q37 -21 70 -21q32 0 46.5 16.5t24.5 52.5zM362 887
l67 -7q11 -1 11 -15q0 -1 -0.5 -4t-0.5 -4q-19 -105 -143 -105t-143 105q0 1 -0.5 4t-0.5 4q0 14 11 15l67 7h7q6 -1 8 -11l2 -8q10 -36 50 -36q17 0 31 10.5t18 28.5l1 5q2 10 7 11h8z" />
    <glyph glyph-name="afii10145" unicode="&#x40f;" horiz-adv-x="671" 
d="M424 589h-48h-4h-5t-4 1t-4.5 3.5t-2.5 6.5t-1 10v54q0 6 1 10t2.5 6.5t4.5 3.5t4 1h5h4h234h4h5t4 -1t4.5 -3.5t2.5 -6.5t1 -10v-54q0 -6 -1 -10t-2.5 -6.5t-4.5 -3.5t-4 -1h-5h-4h-51v-493h51h4h5t4 -1t4.5 -3.5t2.5 -6.5t1 -10v-54q0 -6 -1 -10t-2.5 -6.5t-4.5 -3.5
t-4 -1h-5h-4h-211v-152q0 -20 -20 -20h-87q-20 0 -20 20v152h-211h-4h-5t-4 1t-4.5 3.5t-2.5 6.5t-1 10v54q0 6 1 10t2.5 6.5t4.5 3.5t4 1h5h4h51v493h-51h-4h-5t-4 1t-4.5 3.5t-2.5 6.5t-1 10v54q0 6 1 10t2.5 6.5t4.5 3.5t4 1h5h4h234h4h5t4 -1t4.5 -3.5t2.5 -6.5t1 -10
v-54q0 -6 -1 -10t-2.5 -6.5t-4.5 -3.5t-4 -1h-5h-4h-48v-481h177v481z" />
    <glyph glyph-name="afii10017" unicode="&#x410;" horiz-adv-x="630" 
d="M615 75v-54q0 -6 -1 -10t-2.5 -6.5t-4.5 -3.5t-4 -1h-5h-4h-208h-4h-5t-4 1t-4.5 3.5t-2.5 6.5t-1 10v54q0 6 1 10t2.5 6.5t4.5 3.5t4 1h5h4h32l-23 87h-172l-22 -87h33h4h5t4 -1t4.5 -3.5t2.5 -6.5t1 -10v-54q0 -6 -1 -10t-2.5 -6.5t-4.5 -3.5t-4 -1h-5h-4h-198h-4h-5
t-4 1t-4.5 3.5t-2.5 6.5t-1 10v54q0 6 1 10t2.5 6.5t4.5 3.5t4 1h5h4h30l175 573q0 1 1 4q1 5 2 7t5.5 3.5t13.5 1.5h104q4 0 7.5 -0.5t5.5 -1t3.5 -1.5t2.5 -2.5t1 -2.5t1 -4t1 -4l171 -573h34h4h5t4 -1t4.5 -3.5t2.5 -6.5t1 -10zM370 273l-41 172q-14 56 -22 140h-2
q-10 -90 -23 -140l-44 -172h132z" />
    <glyph glyph-name="afii10018" unicode="&#x411;" horiz-adv-x="580" 
d="M112 589h-51h-4h-5t-4 1t-4.5 3.5t-2.5 6.5t-1 10v54q0 6 1 10t2.5 6.5t4.5 3.5t4 1h5h4h427q17 0 19 -7q2 -4 2 -10v-163q0 -11 -3.5 -15.5t-6.5 -5t-11 -0.5h-66h-4h-5t-4 1t-4.5 3.5t-2.5 6.5t-1 10v72h-154v-167h70q35 0 55.5 -1.5t56.5 -14.5t62 -39q54 -54 54 -150
q0 -103 -59 -154q-60 -51 -189 -51h-236h-4h-5t-4 1t-4.5 3.5t-2.5 6.5t-1 10v54q0 10 3 15t6.5 5.5t11.5 0.5h51v493zM247 105h49q114 0 114 100q0 53 -34 79q-28 21 -78 21h-51v-200z" />
    <glyph glyph-name="afii10019" unicode="&#x412;" horiz-adv-x="593" 
d="M61 685h247q214 0 214 -175q0 -108 -102 -151q57 -14 91 -56t34 -114q0 -97 -64 -145q-60 -44 -172 -44h-248q-13 0 -17 4t-4 17v54q0 6 1 10t2.5 6.5t4.5 3.5t4 1h5h4h51v493h-51h-4h-5t-4 1t-4.5 3.5t-2.5 6.5t-1 10v54q0 6 1 10t2.5 6.5t4.5 3.5t4 1h5h4zM247 402h41
q53 0 80 32q19 21 19 62t-23 62q-24 22 -75 22h-42v-178zM247 105h50q62 0 91 32q22 26 22 67q0 52 -36 75q-26 18 -77 18h-50v-192z" />
    <glyph glyph-name="afii10020" unicode="&#x413;" 
d="M112 589h-51h-4h-5t-4 1t-4.5 3.5t-2.5 6.5t-1 10v54q0 6 1 10t2.5 6.5t4.5 3.5t4 1h5h4h403q14 0 16 -8q1 -4 1 -9v-187q0 -8 -3 -12t-5.5 -4.5t-6.5 -0.5h-2h-59q-8 0 -12 2t-4.5 4.5t-0.5 7.5v3v96h-141v-481h66h4h5t4 -1t4.5 -3.5t2.5 -6.5t1 -10v-54q0 -6 -1 -10
t-2.5 -6.5t-4.5 -3.5t-4 -1h-5h-4h-252h-4h-5t-4 1t-4.5 3.5t-2.5 6.5t-1 10v54q0 6 1 10t2.5 6.5t4.5 3.5t4 1h5h4h51v493z" />
    <glyph glyph-name="afii10021" unicode="&#x414;" horiz-adv-x="618" 
d="M506 96h58q3 0 5.5 -0.5t4 -1.5t2.5 -1.5t1.5 -3.5t0.5 -3.5v-4.5v-5v-229v-3q0 -6 -0.5 -8.5t-3.5 -5t-10 -2.5h-102q-11 0 -13 3.5t-2 15.5v153h-291v-153v-7t-0.5 -5t-2 -4.5l-4.5 -1.5t-8 -1h-102q-10 0 -12 4t-2 15v229q0 16 5 19q3 1 9 1h32q78 162 78 376v117h-51
h-4h-5t-4 1t-4.5 3.5t-2.5 6.5t-1 10v54q0 6 1 10t2.5 6.5t4.5 3.5t4 1h5h4h459h4h5t4 -1t4.5 -3.5t2.5 -6.5t1 -10v-54q0 -6 -1 -10t-2.5 -6.5t-4.5 -3.5t-4 -1h-5h-4h-51v-493zM371 108v469h-102l-3 -125q-3 -118 -17.5 -197.5t-47.5 -146.5h170z" />
    </font>
</defs>
</svg>
